<svg xmlns="http://www.w3.org/2000/svg" width="21.885" height="21.885" viewBox="0 0 21.885 21.885">
  <g id="plus-symbol-in-a-rounded-black-square" transform="translate(-0.003)">
    <path id="Caminho_671" data-name="Caminho 671" d="M20.684,1.2a3.952,3.952,0,0,0-2.9-1.2H4.106a3.953,3.953,0,0,0-2.9,1.2A3.953,3.953,0,0,0,0,4.1V17.781a3.953,3.953,0,0,0,1.2,2.9,3.953,3.953,0,0,0,2.9,1.2H17.784a4.111,4.111,0,0,0,4.1-4.1V4.1A3.953,3.953,0,0,0,20.684,1.2ZM18.24,11.854a.925.925,0,0,1-.912.912H12.769v4.559a.925.925,0,0,1-.912.912H10.033a.925.925,0,0,1-.912-.912V12.766H4.562a.925.925,0,0,1-.912-.912V10.03a.925.925,0,0,1,.912-.912H9.122V4.559a.925.925,0,0,1,.912-.912h1.824a.926.926,0,0,1,.912.912V9.118h4.559a.924.924,0,0,1,.912.912v1.824Z" fill="#005b9e"/>
  </g>
</svg>
