<svg xmlns="http://www.w3.org/2000/svg" width="24.464" height="24" viewBox="0 0 24.464 24">
  <g id="noun_schedule_2080593" transform="translate(79.5 50.6)">
    <g id="Grupo_2" data-name="Grupo 2" transform="translate(-93 -82.212)">
      <path id="Caminho_1" data-name="Caminho 1" d="M41.854,60.3H39.611a.813.813,0,0,0-.811.811v1.378a.813.813,0,0,0,.811.811h2.243a.813.813,0,0,0,.811-.811V61.111A.831.831,0,0,0,41.854,60.3Z" transform="translate(-15.832 -13.857)" fill="#005b9e"/>
      <path id="Caminho_2" data-name="Caminho 2" d="M20.454,60.3H18.211a.813.813,0,0,0-.811.811v1.378a.813.813,0,0,0,.811.811h2.243a.813.813,0,0,0,.811-.811V61.111A.831.831,0,0,0,20.454,60.3Z" transform="translate(0 -13.857)" fill="#005b9e"/>
      <path id="Caminho_3" data-name="Caminho 3" d="M41.854,41.6H39.611a.813.813,0,0,0-.811.811v1.378a.813.813,0,0,0,.811.811h2.243a.813.813,0,0,0,.811-.811V42.411A.831.831,0,0,0,41.854,41.6Z" transform="translate(-15.832)" fill="#005b9e"/>
      <path id="Caminho_4" data-name="Caminho 4" d="M20.454,41.6H18.211a.813.813,0,0,0-.811.811v1.378a.813.813,0,0,0,.811.811h2.243a.813.813,0,0,0,.811-.811V42.411A.831.831,0,0,0,20.454,41.6Z" fill="#005b9e"/>
      <path id="Caminho_5" data-name="Caminho 5" d="M63.254,41.6H61.011a.813.813,0,0,0-.811.811v1.378a.813.813,0,0,0,.811.811h2.243a.813.813,0,0,0,.811-.811V42.411A.831.831,0,0,0,63.254,41.6Z" transform="translate(-31.665)" fill="#005b9e"/>
    </g>
    <g id="Grupo_1" data-name="Grupo 1" transform="translate(-82 -54)">
      <path id="Caminho_6" data-name="Caminho 6" d="M24.878,18.284V8.061a2.575,2.575,0,0,0-.67-1.725V6.31h-.026a2.629,2.629,0,0,0-1.957-.876H20.294V4.276a.868.868,0,0,0-.876-.876H18.105a.868.868,0,0,0-.876.876V5.434H10.122V4.276A.868.868,0,0,0,9.247,3.4H7.933a.868.868,0,0,0-.876.876V5.434H5.127A2.629,2.629,0,0,0,3.17,6.31h0v.026A2.575,2.575,0,0,0,2.5,8.061V22.1a2.638,2.638,0,0,0,2.627,2.627H17.461a5.042,5.042,0,1,0,7.416-6.438Zm-8.009,4.069a5,5,0,0,0,.052.618H5.127a.868.868,0,0,1-.876-.876V11.383H23.1V17.46a4.53,4.53,0,0,0-1.185-.155A5.055,5.055,0,0,0,16.869,22.353ZM24,23.409H21.53a.665.665,0,0,1-.67-.67v-2.6a.67.67,0,0,1,1.339,0V22.1H24a.665.665,0,0,1,.67.67A.677.677,0,0,1,24,23.409Z" fill="#005b9e"/>
    </g>
  </g>
</svg>
