<svg xmlns="http://www.w3.org/2000/svg" width="134.031" height="107.54" viewBox="0 0 134.031 107.54">
 <g>
  <title>background</title>
  <rect fill="none" id="canvas_background" height="402" width="582" y="-1" x="-1"/>
 </g>
 <g>
  <title>Layer 1</title>
  <g id="Agrupar_3008">
   <g id="manual">
    <path fill="#baced8" d="m105.287,8.159l-72.925,0a4.362,4.362 0 0 0 -4.362,4.363l0,86.892a4.187,4.187 0 0 0 4.187,4.187l73.485,0a3.977,3.977 0 0 0 3.977,-3.977l0,-87.1a4.362,4.362 0 0 0 -4.362,-4.362l0,-0.003zm0,0.003" id="Caminho_1132"/>
    <path fill="#395f80" d="m32.186,94.84l67.268,0a2.744,2.744 0 0 0 2.746,-2.74l0,-83.738a4.363,4.363 0 0 0 -4.364,-4.362l-65.473,0a4.362,4.362 0 0 0 -4.363,4.362l0,90.664a4.187,4.187 0 0 1 4.186,-4.186zm0,0" id="Caminho_1133"/>
    <path fill="#1d4859" d="m97.835999,4l-10.81,0a4.363,4.363 0 0 1 4.362,4.362l0,83.738a2.744,2.744 0 0 1 -2.745,2.745l10.81,0a2.744,2.744 0 0 0 2.749,-2.745l0,-83.738a4.363,4.363 0 0 0 -4.366,-4.362zm0,0" id="Caminho_1134"/>
    <path fill="#f9644b" d="m48.48,110.622991l-4.532,-3.2a0.84,0.84 0 0 0 -0.971,0l-4.533,3.2a0.842,0.842 0 0 1 -1.327,-0.688l0,-15.1l12.69,0l0,15.1a0.842,0.842 0 0 1 -1.328,0.688l0.001,0zm-0.001,0" id="Caminho_1135"/>
    <path fill="#ffb123" d="m86.194,38.851001a21.123,21.123 0 1 1 -21.122,-21.122a21.123,21.123 0 0 1 21.122,21.122zm0,0" id="Caminho_1136"/>
    <path fill="#ff901d" d="m65.072,17.729a21.147,21.147 0 0 0 -5.405,0.7a21.129,21.129 0 0 1 0,40.848a21.125,21.125 0 1 0 5.405,-41.547l0,-0.001z" id="Caminho_1137"/>
    <g id="Agrupar_1551">
     <path fill="#e1effb" d="m75.543997,34.704001a0.925,0.925 0 0 0 -1.309,0l-5.522,5.521a3.552,3.552 0 0 1 -5.025,0l0,0a3.552,3.552 0 0 1 0,-5.024l5.523,-5.523a0.925,0.925 0 0 0 0,-1.308l-0.587,-0.587a0.925,0.925 0 0 0 -0.811,-0.257l-9.534,1.646a2.654,2.654 0 0 0 -2.138,2.039l-1.11,8.576a10.091,10.091 0 0 1 -2.871,5.839l-4.775,4.774a21.243,21.243 0 0 0 6.126,6.131l4.776,-4.776a10.093,10.093 0 0 1 5.839,-2.872l8.576,-1.11a2.652,2.652 0 0 0 2.039,-2.138l1.646,-9.534a0.926,0.926 0 0 0 -0.257,-0.812l-0.586,-0.585zm0.586,0.585" id="Caminho_1138"/>
     <path fill="#e1effb" d="m91.812998,70.204008l-53.48,0a1.611,1.611 0 0 0 0,3.223l53.48,0a1.611,1.611 0 0 0 0,-3.223zm0,0" id="Caminho_1139"/>
     <path fill="#e1effb" d="m91.812998,80.297987l-5.617,0c-0.045,0 -0.09,0 -0.134,0.006s-0.088,-0.006 -0.133,-0.006l-47.6,0a1.611,1.611 0 0 0 0,3.223l47.6,0c0.045,0 0.089,0 0.133,0s0.089,0 0.134,0l5.617,0a1.611,1.611 0 1 0 0,-3.223zm0,0" id="Caminho_1140"/>
    </g>
   </g>
  </g>
 </g>
</svg>
