<!-- <svg xmlns="http://www.w3.org/2000/svg" width="32.755" height="32.755" viewBox="0 0 32.755 32.755">
  <g id="picture" transform="translate(0 -0.001)">
    <g id="Grupo_1193" data-name="Grupo 1193" transform="translate(0 0.001)">
      <path id="Caminho_968" data-name="Caminho 968" d="M16.377,0A16.378,16.378,0,1,0,32.755,16.379,16.378,16.378,0,0,0,16.377,0ZM7.725,24.769a.786.786,0,0,1-.787-.786V8.774a.786.786,0,0,1,.787-.786H25.03a.786.786,0,0,1,.787.786V17.19h-1.85V9.809H8.77V19.967h.868L13.145,14.5l2.344,3.654,1.164,1.815h1.009l-1.668-2.6,1.087-1.7,2.756,4.3h1.111v3.839h2.558v.963H7.725ZM22.63,13.217A1.628,1.628,0,1,1,21,11.589,1.628,1.628,0,0,1,22.63,13.217Zm3.8,9.456V25.23H24.639V22.673H22.081V20.881h2.558V18.323H26.43v2.557h2.558v1.792Z" transform="translate(0 -0.001)" fill="#005b9e"/>
    </g>
  </g>
</svg> -->
<svg xmlns="http://www.w3.org/2000/svg" width="44" height="44" viewBox="0 0 44 44">
  <path id="paperclip" d="M22,0A22,22,0,1,0,44,22,21.937,21.937,0,0,0,22,0ZM33.5,21.8,22.6,32.7A7.928,7.928,0,0,1,16.9,35a8.1,8.1,0,0,1-5.7-2.3A7.928,7.928,0,0,1,8.9,27a8.1,8.1,0,0,1,2.3-5.7L23.3,9.2a.967.967,0,0,1,1.4,0l1.4,1.4a.967.967,0,0,1,0,1.4L14,24.1a3.949,3.949,0,0,0-1.2,2.8A3.784,3.784,0,0,0,14,29.7a4.172,4.172,0,0,0,5.7,0L30.6,18.8a.908.908,0,0,0,.3-.7.945.945,0,0,0-1-1,.914.914,0,0,0-.7.3L20,26.6a.967.967,0,0,1-1.4,0l-1.4-1.4a.967.967,0,0,1,0-1.4l9.2-9.2a5.093,5.093,0,0,1,3.5-1.5,4.951,4.951,0,0,1,5,5,4.552,4.552,0,0,1-1.4,3.7Z" fill="#005b9e"/>
</svg>
