<svg xmlns="http://www.w3.org/2000/svg" width="18.341" height="18.341" viewBox="0 0 18.341 18.341">
  <path id="Path_672" data-name="Path 672" d="M17.335,1.009A3.312,3.312,0,0,0,14.905,0H3.442a3.313,3.313,0,0,0-2.43,1.009A3.313,3.313,0,0,0,0,3.439V14.9a3.313,3.313,0,0,0,1.009,2.43,3.313,3.313,0,0,0,2.43,1.009H14.905A3.445,3.445,0,0,0,18.344,14.9V3.439A3.313,3.313,0,0,0,17.335,1.009ZM15.515,6.651,8.183,13.983a.75.75,0,0,1-1.075,0L2.833,9.708a.75.75,0,0,1,0-1.075L4.051,7.415a.75.75,0,0,1,1.075,0l2.52,2.519,5.577-5.577a.75.75,0,0,1,1.075,0l1.218,1.218a.75.75,0,0,1,0,1.075Z" transform="translate(-0.003)" fill="#009e00"/>
</svg>
