<svg id="Camada_1" data-name="Camada 1" xmlns="http://www.w3.org/2000/svg" viewBox="0 0 489.82 489.71"><title>Voltar</title><path d="M295.51,731.89V349.34a10.89,10.89,0,0,0,.88-2.1c4.46-23.87,18.26-39.84,40.92-48.22,3.8-1.41,7.83-2.17,11.76-3.23H731.61c.39.25.76.68,1.17.72,26.33,3.06,52.69,27.11,52.56,64-.45,120.14-.15,240.29-.23,360.44a75.94,75.94,0,0,1-1.57,16.57c-6.65,29.11-30.84,47.91-61.44,47.92q-148.67.06-297.34,0c-22.62,0-45.25.14-67.88,0-26.88-.21-49.59-16.59-58.13-41.69C297.44,739.85,296.58,735.83,295.51,731.89Zm176-206.58-1.09-1.57a31.62,31.62,0,0,0,4.25-3Q502.64,492.9,530.48,465a52,52,0,0,0,3.62-3.81,15.19,15.19,0,0,0,1.47-17.41c-3.23-5.51-9.65-8.89-15.84-7.15a24.18,24.18,0,0,0-10,6q-41.44,41-82.56,82.39c-9.24,9.25-9.16,22,.18,31.36q41.06,41.08,82.14,82.14a33.52,33.52,0,0,0,3.5,3.25c5.05,3.75,10.54,4.39,16.17,1.57s8.41-7.53,8.39-13.88c0-5-2.54-8.68-5.92-12.06q-28.62-28.51-57.14-57.11c-1.18-1.18-2.27-2.44-4-4.37H628.07c1.75,0,3.51.07,5.25-.09a15.25,15.25,0,0,0,.21-30.4c-1.74-.17-3.5-.1-5.25-.1H471.53Z" transform="translate(-295.51 -295.79)" fill="#c0392b"/></svg>