<svg xmlns="http://www.w3.org/2000/svg" width="22.635" height="28.187" viewBox="0 0 22.635 28.187">
  <g id="budget" transform="translate(0 0)">
    <path id="Caminho_1601" data-name="Caminho 1601" d="M15.916,4.332,13.906,0H2.513A2.013,2.013,0,0,0,.5,2.013V24.541a2.013,2.013,0,0,0,2.013,2.013H19.925l.564-.669V6.583Zm0,0" transform="translate(-0.501 0)" fill="#ebebeb"/>
    <g id="Agrupar_2755" data-name="Agrupar 2755" transform="translate(2.893 3.314)">
      <path id="Caminho_1602" data-name="Caminho 1602" d="M53.48,61.714a.425.425,0,0,1-.425-.425v-.664a.425.425,0,0,1,.851,0v.664A.425.425,0,0,1,53.48,61.714Zm0,0" transform="translate(-53.055 -60.199)" fill="#4b5562"/>
      <path id="Caminho_1603" data-name="Caminho 1603" d="M186.746,61.714a.425.425,0,0,1-.425-.425v-.664a.425.425,0,0,1,.851,0v.664A.425.425,0,0,1,186.746,61.714Zm0,0" transform="translate(-178.984 -60.199)" fill="#4b5562"/>
      <path id="Caminho_1604" data-name="Caminho 1604" d="M104.573,72.67a1.622,1.622,0,0,1-1.226-.546.425.425,0,1,1,.64-.56.8.8,0,0,0,1.17,0,.425.425,0,1,1,.64.56A1.622,1.622,0,0,1,104.573,72.67Zm0,0" transform="translate(-100.48 -70.801)" fill="#4b5562"/>
    </g>
    <path id="Caminho_1605" data-name="Caminho 1605" d="M250.594,6.582h-5.139a1.443,1.443,0,0,1-1.443-1.444V0Zm0,0" transform="translate(-230.606 0)" fill="#d5d4da"/>
    <path id="Caminho_1606" data-name="Caminho 1606" d="M47.7,171.953a.425.425,0,0,1-.414-.523l.318-1.35a.425.425,0,0,1,.828.2l-.11.466,1.888-.944a.425.425,0,0,1,.38.761l-2.7,1.35A.425.425,0,0,1,47.7,171.953Zm0,0" transform="translate(-44.703 -160.406)" fill="#00ccac"/>
    <path id="Caminho_1607" data-name="Caminho 1607" d="M141.868,182.867h-5.31a.425.425,0,0,1,0-.851h5.31a.425.425,0,0,1,0,.851Zm0,0" transform="translate(-128.666 -171.996)" fill="#00ccac"/>
    <path id="Caminho_1608" data-name="Caminho 1608" d="M127.382,218.8a8.916,8.916,0,0,0-6.949,14.509h10.958l.564-.669V220.061a8.869,8.869,0,0,0-4.573-1.264Zm0,0" transform="translate(-111.967 -206.752)" fill="#d5d4da"/>
    <path id="Caminho_1609" data-name="Caminho 1609" d="M47.7,272.133a.425.425,0,0,1-.414-.523l.318-1.35a.425.425,0,1,1,.828.195l-.11.466,1.888-.944a.425.425,0,0,1,.38.761l-2.7,1.35A.425.425,0,0,1,47.7,272.133Zm0,0" transform="translate(-44.703 -255.071)" fill="#00ccac"/>
    <path id="Caminho_1610" data-name="Caminho 1610" d="M47.7,372.313a.425.425,0,0,1-.414-.523l.318-1.35a.425.425,0,1,1,.828.2l-.11.466,1.888-.944a.425.425,0,0,1,.38.761l-2.7,1.35A.425.425,0,0,1,47.7,372.313Zm0,0" transform="translate(-44.703 -349.737)" fill="#00ccac"/>
    <path id="Caminho_1611" data-name="Caminho 1611" d="M141.868,283.049h-5.31a.425.425,0,1,1,0-.851h5.31a.425.425,0,1,1,0,.851Zm0,0" transform="translate(-128.666 -266.663)" fill="#76e6d5"/>
    <path id="Caminho_1612" data-name="Caminho 1612" d="M147.117,282.2h-4.86a8.936,8.936,0,0,0-.57.833.43.43,0,0,0,.12.017h5.31a.425.425,0,1,0,0-.851Zm0,0" transform="translate(-133.915 -266.663)" fill="#00ccac"/>
    <path id="Caminho_1613" data-name="Caminho 1613" d="M163.808,256.924a7.22,7.22,0,1,1-7.22-7.22A7.22,7.22,0,0,1,163.808,256.924Zm0,0" transform="translate(-141.173 -235.957)" fill="#68f668"/>
    <path id="Caminho_1614" data-name="Caminho 1614" d="M199.6,294.932a5.006,5.006,0,1,1-5.006-5.006A5.006,5.006,0,0,1,199.6,294.932Zm0,0" transform="translate(-179.18 -273.965)" fill="#6eb446"/>
    <path id="Caminho_1615" data-name="Caminho 1615" d="M252.992,335.419c-.823-.02-1.441-.462-1.441-.843,0-.19.17-.476.381-.476.258,0,.463.442,1.061.51v-1.353c-.619-.231-1.319-.5-1.319-1.367a1.326,1.326,0,0,1,1.319-1.326v-.19c0-.088.1-.17.231-.17s.231.082.231.17v.177c.442.014,1.163.143,1.163.537,0,.157-.109.469-.36.469-.19,0-.347-.218-.8-.252v1.2c.605.224,1.285.531,1.285,1.455a1.387,1.387,0,0,1-1.285,1.442v.211c0,.088-.116.17-.231.17s-.231-.082-.231-.17Zm.054-3.067v-1.027c-.34.054-.544.218-.544.476C252.5,332.1,252.734,332.23,253.046,332.352Zm.354,1.068V334.6a.556.556,0,0,0,.51-.558C253.91,333.712,253.693,333.549,253.4,333.42Zm0,0" transform="translate(-237.73 -312.025)" fill="#f5f5f0"/>
  </g>
</svg>
