<svg xmlns="http://www.w3.org/2000/svg" width="21.584" height="24.288" viewBox="0 0 21.584 24.288">
  <g id="invoice" transform="translate(-28.5)">
    <g id="Agrupar_1110" data-name="Agrupar 1110" transform="translate(28.5)">
      <g id="Agrupar_1109" data-name="Agrupar 1109" transform="translate(0)">
        <path id="Caminho_932" data-name="Caminho 932" d="M109.923,253h-.474a.949.949,0,1,0,0,1.9h.474a.949.949,0,1,0,0-1.9Z" transform="translate(-104.705 -240.998)" fill="#009e00"/>
        <path id="Caminho_933" data-name="Caminho 933" d="M195.473,173h-6.024a.949.949,0,0,0,0,1.9h6.024a.949.949,0,0,0,0-1.9Z" transform="translate(-180.91 -164.793)" fill="#009e00"/>
        <path id="Caminho_934" data-name="Caminho 934" d="M41.54,22.39H32.295a1.9,1.9,0,0,1-1.9-1.9V3.795a1.9,1.9,0,0,1,1.9-1.9H43.959a1.9,1.9,0,0,1,1.9,1.9v5.36a.949.949,0,1,0,1.9,0V3.795A3.8,3.8,0,0,0,43.959,0H32.295A3.8,3.8,0,0,0,28.5,3.795v16.7a3.8,3.8,0,0,0,3.795,3.795H41.54a.949.949,0,0,0,0-1.9Z" transform="translate(-28.5)" fill="#009e00"/>
        <path id="Caminho_935" data-name="Caminho 935" d="M109.923,333h-.474a.949.949,0,1,0,0,1.9h.474a.949.949,0,1,0,0-1.9Z" transform="translate(-104.705 -317.204)" fill="#009e00"/>
        <path id="Caminho_936" data-name="Caminho 936" d="M195.473,93h-6.024a.949.949,0,0,0,0,1.9h6.024a.949.949,0,0,0,0-1.9Z" transform="translate(-180.91 -88.588)" fill="#009e00"/>
        <path id="Caminho_937" data-name="Caminho 937" d="M351.24,258.074h-.869a.779.779,0,0,1-.771-.785v-.128a.742.742,0,0,1,.771-.745h.822a.462.462,0,0,1,.492.432.949.949,0,0,0,1.9,0,2.35,2.35,0,0,0-1.946-2.289v-.61a.949.949,0,0,0-1.9,0v.643a2.649,2.649,0,0,0-1.249.686,2.612,2.612,0,0,0-.788,1.883v.128a2.678,2.678,0,0,0,2.669,2.682h.869a.776.776,0,0,1,.776.773v.451a.735.735,0,0,1-.776.723h-1.413a.448.448,0,0,1-.469-.445.949.949,0,0,0-1.9,0,2.315,2.315,0,0,0,.7,1.67,2.365,2.365,0,0,0,1.577.671v.524a.949.949,0,0,0,1.9,0v-.549a2.605,2.605,0,0,0,2.278-2.593v-.451A2.675,2.675,0,0,0,351.24,258.074Z" transform="translate(-332.33 -240.998)" fill="#009e00"/>
        <path id="Caminho_938" data-name="Caminho 938" d="M193.576,334.9a.949.949,0,0,0,0-1.9h-4.127a.949.949,0,0,0,0,1.9Z" transform="translate(-180.91 -317.204)" fill="#009e00"/>
        <path id="Caminho_939" data-name="Caminho 939" d="M109.923,173h-.474a.949.949,0,1,0,0,1.9h.474a.949.949,0,1,0,0-1.9Z" transform="translate(-104.705 -164.793)" fill="#009e00"/>
        <path id="Caminho_940" data-name="Caminho 940" d="M196.422,253.949a.949.949,0,0,0-.949-.949h-6.024a.949.949,0,0,0,0,1.9h6.024A.949.949,0,0,0,196.422,253.949Z" transform="translate(-180.91 -240.998)" fill="#009e00"/>
        <path id="Caminho_941" data-name="Caminho 941" d="M109.923,93h-.474a.949.949,0,1,0,0,1.9h.474a.949.949,0,0,0,0-1.9Z" transform="translate(-104.705 -88.588)" fill="#009e00"/>
      </g>
    </g>
  </g>
</svg>
