<svg xmlns="http://www.w3.org/2000/svg" width="30" height="30" viewBox="0 0 30 30">
  <g id="Agrupar_3084" data-name="Agrupar 3084" transform="translate(-86 5)">
    <g id="Agrupar_1078" data-name="Agrupar 1078" transform="translate(86 -5)">
      <g id="Agrupar_1063" data-name="Agrupar 1063" transform="translate(0)">
        <g id="Agrupar_1059" data-name="Agrupar 1059">
          <circle id="Elipse_216" data-name="Elipse 216" cx="15" cy="15" r="15" fill="#bebebe"/>
        </g>
      </g>
    </g>
    <g id="calendar-with-a-clock-time-tools" transform="translate(91 1)">
      <path id="Caminho_931" data-name="Caminho 931" d="M2.5,3.119V.624a.624.624,0,0,1,1.248,0v2.5a.624.624,0,0,1-1.248,0Zm10.6.624a.623.623,0,0,0,.624-.624V.624a.624.624,0,0,0-1.248,0v2.5A.624.624,0,0,0,13.1,3.743Zm6.861,11.228a4.99,4.99,0,1,1-4.99-4.99A4.99,4.99,0,0,1,19.962,14.971Zm-1.247,0a3.743,3.743,0,1,0-3.743,3.743A3.747,3.747,0,0,0,18.714,14.971ZM4.991,7.485H2.5v2.5h2.5ZM2.5,13.723h2.5v-2.5H2.5ZM6.239,9.98h2.5v-2.5h-2.5Zm0,3.743h2.5v-2.5h-2.5Zm-4.99,1.123V6.238H14.972v2.5h1.248V3.867A1.361,1.361,0,0,0,14.868,2.5h-.52v.624a1.247,1.247,0,1,1-2.495,0V2.5H4.367v.624a1.248,1.248,0,1,1-2.5,0V2.5h-.52A1.362,1.362,0,0,0,0,3.867v10.98a1.363,1.363,0,0,0,1.352,1.372H8.734V14.971H1.353A.118.118,0,0,1,1.249,14.847ZM12.476,9.98v-2.5H9.981v2.5Zm4.367,4.99H14.972V13.1a.624.624,0,0,0-1.247,0v2.5a.623.623,0,0,0,.624.624h2.5a.624.624,0,0,0,0-1.248Z" transform="translate(-0.001 0)" fill="#fff"/>
    </g>
  </g>
</svg>
