<svg xmlns="http://www.w3.org/2000/svg" width="22.737" height="18.569" viewBox="0 0 22.737 18.569">
  <g id="photo-camera" transform="translate(0 -5.5)">
    <path id="Caminho_646" data-name="Caminho 646" d="M22.548,20.5A4.548,4.548,0,1,0,27.1,25.048,4.553,4.553,0,0,0,22.548,20.5Z" transform="translate(-11.179 -9.316)" fill="#005b9e"/>
    <path id="Caminho_647" data-name="Caminho 647" d="M20.919,9.29h-3.23L16.173,5.5H6.565L5.049,9.29h-.5V7.395H2.274V9.29H1.819A1.82,1.82,0,0,0,0,11.108V22.238a1.834,1.834,0,0,0,1.832,1.832H20.906a1.834,1.834,0,0,0,1.832-1.832V11.108A1.82,1.82,0,0,0,20.919,9.29ZM3.79,9.29H3.032V8.153H3.79Zm7.579,13.264a6.821,6.821,0,1,1,6.821-6.821A6.829,6.829,0,0,1,11.369,22.553Zm8.337-8.716a1.516,1.516,0,1,1,1.516-1.516A1.517,1.517,0,0,1,19.706,13.837Z" fill="#005b9e"/>
  </g>
</svg>
