<svg xmlns="http://www.w3.org/2000/svg" width="137.251" height="96.666" viewBox="0 0 137.251 96.666">
  <g id="car" transform="translate(0 0)">
    <g id="Agrupar_1546" data-name="Agrupar 1546" transform="translate(68.31 24.025)">
      <path id="Caminho_1091" data-name="Caminho 1091" d="M254.823,186.983h57.056l-4.709-21.555H267.879Z" transform="translate(-254.823 -165.4)" fill="#a0ebff"/>
      <path id="Caminho_1092" data-name="Caminho 1092" d="M262.141,186.111h55.021l-4.541-20.786h-37.89Z" transform="translate(-260.179 -165.325)" fill="#a0ebff"/>
    </g>
    <path id="Caminho_1093" data-name="Caminho 1093" d="M296.366,169.395l1.919-3.169h39.291l.692,3.169Z" transform="translate(-216.919 -141.959)" fill="#6ee1ff"/>
    <g id="Agrupar_1547" data-name="Agrupar 1547" transform="translate(82.906 24.437)">
      <path id="Caminho_1094" data-name="Caminho 1094" d="M399.94,166.862l10.536,20.786h5.229l-10.536-20.786Z" transform="translate(-375.634 -166.862)" fill="#fff" opacity="0.5"/>
      <path id="Caminho_1095" data-name="Caminho 1095" d="M335.867,187.648H341.1L330.56,166.862h-5.229Z" transform="translate(-321.026 -166.862)" fill="#fff" opacity="0.5"/>
      <path id="Caminho_1096" data-name="Caminho 1096" d="M319.806,187.648h2.615l-10.536-20.786H309.27Z" transform="translate(-309.27 -166.862)" fill="#fff" opacity="0.61"/>
    </g>
    <path id="Caminho_1097" data-name="Caminho 1097" d="M465.2,333.49h11.831a.713.713,0,0,0,.713-.713v-3.615a.713.713,0,0,0-.713-.713H465.2Z" transform="translate(-340.498 -260.695)" fill="#50555a"/>
    <path id="Caminho_1098" data-name="Caminho 1098" d="M157.076,202.5c.09.025,3.562.385,3.562.385h78.491s6.541-.154,6.707-.165V178.51l-5.5-24.378A5.3,5.3,0,0,0,235.189,150H197.606a5.274,5.274,0,0,0-4.6,2.694l-10.123,18.183H167.411a10.335,10.335,0,0,0-10.334,10.336C157.076,188.34,157.076,200.8,157.076,202.5Zm40.882-46.638h19.087v17.611H191.022v-.036h-2.906Zm40.622,17.611H222.915V155.865h11.79Z" transform="translate(-114.969 -130.079)" fill="#2896ff"/>
    <path id="Caminho_1099" data-name="Caminho 1099" d="M141.92,307.931a6.094,6.094,0,0,0,6.095,6.095h87a2.488,2.488,0,0,0,2.488-2.488v-7.212a2.488,2.488,0,0,0-2.488-2.489h-87A6.094,6.094,0,0,0,141.92,307.931Z" transform="translate(-103.876 -241.217)" fill="#1e87dc"/>
    <path id="Caminho_1100" data-name="Caminho 1100" d="M336.707,255.157H343a2.141,2.141,0,0,0,0-4.282h-6.291a2.141,2.141,0,0,0,0,4.282Z" transform="translate(-244.879 -203.917)" fill="#1e73be"/>
    <path id="Caminho_1101" data-name="Caminho 1101" d="M161.495,268.548a3.944,3.944,0,1,1,0,7.887h-4.419v-7.887Z" transform="translate(-114.969 -216.852)" fill="#1e87dc"/>
    <path id="Caminho_1102" data-name="Caminho 1102" d="M157.12,262.96h4.375a3.944,3.944,0,1,1,0,7.887h-4.419v-6.956C157.076,263.577,157.092,263.267,157.12,262.96Z" transform="translate(-114.969 -212.762)" fill="#fac855"/>
    <path id="Caminho_1103" data-name="Caminho 1103" d="M472.7,276.226h3.307v-9.379H472.7A1.151,1.151,0,0,0,471.547,268v7.077A1.152,1.152,0,0,0,472.7,276.226Z" transform="translate(-345.14 -215.607)" fill="#ff640a"/>
    <path id="Caminho_1104" data-name="Caminho 1104" d="M208.9,311.642H183.321a13.062,13.062,0,0,1,26.123-.013Z" transform="translate(-134.178 -238.833)" fill="#1e73be"/>
    <circle id="Elipse_250" data-name="Elipse 250" cx="10.092" cy="10.092" r="10.092" transform="translate(52.113 62.717)" fill="#373c41"/>
    <circle id="Elipse_251" data-name="Elipse 251" cx="4.088" cy="4.088" r="4.088" transform="translate(58.117 68.722)" fill="#696e73"/>
    <path id="Caminho_1105" data-name="Caminho 1105" d="M220.885,332.055v8.176a4.088,4.088,0,1,1,0-8.176Z" transform="translate(-158.68 -263.335)" fill="#82878c"/>
    <g id="Agrupar_1548" data-name="Agrupar 1548" transform="translate(74.06 25.786)">
      <rect id="Retângulo_1910" data-name="Retângulo 1910" width="5.87" height="1.589" transform="translate(28.015)" fill="#1e87dc"/>
      <rect id="Retângulo_1911" data-name="Retângulo 1911" width="49.553" height="1.727" transform="translate(0 17.61)" fill="#1e87dc"/>
    </g>
    <path id="Caminho_1106" data-name="Caminho 1106" d="M264.436,220.366h4.334V211.7h-4.334a4.334,4.334,0,0,0-4.334,4.334h0A4.334,4.334,0,0,0,264.436,220.366Z" transform="translate(-190.377 -175.242)" fill="#1e73be"/>
    <g id="Agrupar_1549" data-name="Agrupar 1549" transform="translate(43.881 40.79)">
      <path id="Caminho_1107" data-name="Caminho 1107" d="M163.692,232.41a10.324,10.324,0,0,1,8.561-4.545h15.476a9.511,9.511,0,0,1-8.112,4.545Z" transform="translate(-163.692 -227.865)" fill="#1e87dc"/>
      <rect id="Retângulo_1912" data-name="Retângulo 1912" width="1.684" height="17.733" transform="translate(60.439 3.472)" fill="#1e87dc"/>
    </g>
    <path id="Caminho_1108" data-name="Caminho 1108" d="M393.33,311.642H367.754a13.062,13.062,0,0,1,26.123-.013Z" transform="translate(-269.171 -238.833)" fill="#1e73be"/>
    <circle id="Elipse_252" data-name="Elipse 252" cx="10.092" cy="10.092" r="10.092" transform="translate(101.553 62.717)" fill="#373c41"/>
    <circle id="Elipse_253" data-name="Elipse 253" cx="4.088" cy="4.088" r="4.088" transform="translate(107.557 68.722)" fill="#696e73"/>
    <path id="Caminho_1109" data-name="Caminho 1109" d="M405.318,332.055v8.176a4.088,4.088,0,1,1,0-8.176Z" transform="translate(-293.673 -263.335)" fill="#82878c"/>
    <path id="Caminho_1110" data-name="Caminho 1110" d="M312.029,134.006h34.245a1.141,1.141,0,0,0,1.141-1.141h0a1.141,1.141,0,0,0-1.141-1.141H312.029a1.141,1.141,0,0,0-1.141,1.141h0A1.141,1.141,0,0,0,312.029,134.006Z" transform="translate(-227.549 -116.706)" fill="#696e73"/>
    <g id="Agrupar_1550" data-name="Agrupar 1550" transform="translate(87.308 13.091)">
      <path id="Caminho_1111" data-name="Caminho 1111" d="M423.024,131.362h2.5v-5.575a1.249,1.249,0,1,0-2.5,0v5.575Z" transform="translate(-396.932 -124.537)" fill="#82878c"/>
      <path id="Caminho_1112" data-name="Caminho 1112" d="M325.691,131.362h2.5v-5.575a1.249,1.249,0,1,0-2.5,0v5.575Z" transform="translate(-325.691 -124.537)" fill="#82878c"/>
    </g>
    <path id="Caminho_1113" data-name="Caminho 1113" d="M103.817,176.722a4.113,4.113,0,0,1-2.045-7.684l29.936-17.112a4.113,4.113,0,0,1,4.082,7.141l-29.936,17.112A4.1,4.1,0,0,1,103.817,176.722Z" transform="translate(-72.973 -131.095)" fill="#1b224a"/>
    <path id="Caminho_1114" data-name="Caminho 1114" d="M101.772,217.242a4.112,4.112,0,1,0,4.082,7.141Z" transform="translate(-72.973 -179.3)" fill="#ffb69e"/>
    <path id="Caminho_1115" data-name="Caminho 1115" d="M109.1,213.524l-1.733,1,4.1,7.14,1.835-1.049Z" transform="translate(-78.584 -176.578)" fill="#fff"/>
    <path id="Caminho_1116" data-name="Caminho 1116" d="M224.641,273.539v38.71a4.8,4.8,0,0,0,4.659,4.921h.013a4.805,4.805,0,0,0,4.646-4.949V273.539Z" transform="translate(-164.422 -220.505)" fill="#5f6e9b"/>
    <path id="Caminho_1117" data-name="Caminho 1117" d="M182.686,273.538l0,38.7a4.8,4.8,0,0,0,4.659,4.935h0a4.8,4.8,0,0,0,4.66-4.935l0-38.7h-9.319Z" transform="translate(-133.711 -220.504)" fill="#414b82"/>
    <path id="Caminho_1118" data-name="Caminho 1118" d="M182.682,185.4h20.566V155.859a5.6,5.6,0,0,0-5.436-5.758h-9.694a5.6,5.6,0,0,0-5.436,5.758V185.4Z" transform="translate(-133.711 -130.157)" fill="#252d5c"/>
    <path id="Caminho_1119" data-name="Caminho 1119" d="M41.78,273.067l0,38.823a4.65,4.65,0,1,0,9.282,0l0-38.822Z" transform="translate(-30.58 -220.16)" fill="#414b82"/>
    <path id="Caminho_1120" data-name="Caminho 1120" d="M0,273.067v38.808a4.8,4.8,0,0,0,4.628,4.949h.013A4.794,4.794,0,0,0,9.282,311.9V273.067Z" transform="translate(0 -220.16)" fill="#5f6e9b"/>
    <path id="Caminho_1121" data-name="Caminho 1121" d="M20.484,185.4H0V155.858A5.594,5.594,0,0,1,5.414,150.1H15.07a5.594,5.594,0,0,1,5.414,5.758Z" transform="translate(0 -130.156)" fill="#cd2d23"/>
    <circle id="Elipse_254" data-name="Elipse 254" cx="8.524" cy="8.524" r="8.524" transform="translate(1.593 0)" fill="#ba6746"/>
    <circle id="Elipse_255" data-name="Elipse 255" cx="8.524" cy="8.524" r="8.524" transform="translate(49.978 0)" fill="#ffb69e"/>
    <path id="Caminho_1122" data-name="Caminho 1122" d="M218.883,294.852H209a2.1,2.1,0,0,1-2.1-2.1v-9.887a2.1,2.1,0,0,1,2.1-2.1h9.887a2.1,2.1,0,0,1,2.1,2.1v9.887A2.1,2.1,0,0,1,218.883,294.852Zm-7.789-4.2h5.691v-5.691h-5.691Z" transform="translate(-151.434 -225.796)" fill="#292d30"/>
    <path id="Caminho_1123" data-name="Caminho 1123" d="M209.749,327.818a2.181,2.181,0,0,1-2.18,2.18H184.863a2.181,2.181,0,0,1-2.18-2.18V313.505a2.181,2.181,0,0,1,2.18-2.18h22.705a2.181,2.181,0,0,1,2.18,2.18Z" transform="translate(-133.711 -248.162)" fill="#80391b"/>
    <path id="Caminho_1124" data-name="Caminho 1124" d="M210.948,191.7a4.113,4.113,0,0,1-3.408-4.713l2.213-13.779-5.686-16.055a4.113,4.113,0,0,1,7.753-2.746l6.036,17.044a4.115,4.115,0,0,1,.184,2.025l-2.379,14.815A4.113,4.113,0,0,1,210.948,191.7Z" transform="translate(-149.189 -131.304)" fill="#1b224a"/>
    <path id="Caminho_1125" data-name="Caminho 1125" d="M217.525,283.427a4.113,4.113,0,1,0,8.121,1.3Z" transform="translate(-159.175 -227.742)" fill="#ffb69e"/>
    <path id="Caminho_1126" data-name="Caminho 1126" d="M35.645,176.506a4.176,4.176,0,0,1-.484-.028L20.835,174.8a4.112,4.112,0,0,1-2.42-1.167l-11.873-11.8A4.113,4.113,0,1,1,12.34,156l10.865,10.8,12.914,1.515a4.113,4.113,0,0,1-.474,8.2Z" transform="translate(-3.9 -133.598)" fill="#ba6746"/>
    <path id="Caminho_1127" data-name="Caminho 1127" d="M20.508,164.114,12.34,156a4.113,4.113,0,1,0-5.8,5.835L14.765,170Z" transform="translate(-3.901 -133.598)" fill="#be1e14"/>
    <path id="Caminho_1128" data-name="Caminho 1128" d="M217.984,276.117l-.315,1.96,8.121,1.3.33-2.053Z" transform="translate(-159.319 -222.392)" fill="#fff"/>
    <path id="Caminho_1129" data-name="Caminho 1129" d="M244.519,311.324H233.166V330h11.353a2.181,2.181,0,0,0,2.18-2.18V313.5A2.18,2.18,0,0,0,244.519,311.324Z" transform="translate(-170.661 -248.161)" fill="#703014"/>
  </g>
</svg>
