<svg xmlns="http://www.w3.org/2000/svg" width="25.202" height="21.11" viewBox="0 0 25.202 21.11">
  <g id="chatting" transform="translate(0 -40.806)">
    <path id="Caminho_644" data-name="Caminho 644" d="M170.833,133.9c4.376,0,7.923,2.817,7.923,6.292,0,2.481-1.809,4.627-4.436,5.651a3.926,3.926,0,0,0,1.087,3.367,3.877,3.877,0,0,1-3.7-2.764q-.43.037-.872.038c-4.375,0-7.923-2.817-7.923-6.292S166.457,133.9,170.833,133.9Z" transform="translate(-153.553 -87.29)" fill="#71c386"/>
    <path id="Caminho_645" data-name="Caminho 645" d="M7.923,40.806C3.547,40.806,0,43.623,0,47.1c0,2.481,1.809,4.627,4.436,5.651a3.926,3.926,0,0,1-1.087,3.367,3.877,3.877,0,0,0,3.7-2.764c.287.025.578.038.872.038,4.375,0,7.923-2.817,7.923-6.292S12.3,40.806,7.923,40.806Z" transform="translate(0)" fill="#005b9e"/>
  </g>
</svg>
