<svg xmlns="http://www.w3.org/2000/svg" width="20" height="20" viewBox="0 0 20 20">
  <path id="Caminho_11" data-name="Caminho 11" d="M10,0A10,10,0,1,0,20,10,10,10,0,0,0,10,0Zm5.54,7.032a1.38,1.38,0,0,0-.108.1q-3.348,3.354-6.7,6.7c-.036.036-.072.068-.1.1-.016.016-.032.028-.048.044l-.132.12-.136-.116a.28.28,0,0,0-.04-.032c-.028-.024-.056-.048-.084-.076l-1-.992c-.952-.952-1.94-1.94-2.908-2.9a.35.35,0,0,1-.12-.256A.359.359,0,0,1,4.3,9.48a1.661,1.661,0,0,0,.132-.144.692.692,0,0,1,.432-.3c.224-.02.372.168.492.32a1.277,1.277,0,0,0,.112.128c.868.864,1.944,1.936,2.968,2.972l.012.012a.056.056,0,0,0,.016-.016c1.04-1.044,2.1-2.1,3.124-3.128,1.064-1.064,2.164-2.168,3.248-3.252a.446.446,0,0,1,.332-.164.436.436,0,0,1,.292.176,1.2,1.2,0,0,0,.124.12.556.556,0,0,1,.256.4C15.836,6.784,15.68,6.916,15.54,7.032Z" fill="#009e00"/>
</svg>
