<svg xmlns="http://www.w3.org/2000/svg" width="18.003" height="18.003" viewBox="0 0 18.003 18.003">
  <g id="Group_795" data-name="Group 795" transform="translate(-1118 -413)">
    <g id="Group_784" data-name="Group 784" transform="translate(1118 413)">
      <path id="Path_687" data-name="Path 687" d="M17.015.99A3.251,3.251,0,0,0,14.631,0H3.379A3.252,3.252,0,0,0,.993.99,3.252,3.252,0,0,0,0,3.376V14.627a3.252,3.252,0,0,0,.99,2.385A3.251,3.251,0,0,0,3.379,18H14.63a3.382,3.382,0,0,0,3.375-3.376V3.376A3.252,3.252,0,0,0,17.015.99ZM15.228,6.528l-7.2,7.2a.736.736,0,0,1-1.055,0l-4.2-4.2a.736.736,0,0,1,0-1.055l1.2-1.2a.736.736,0,0,1,1.055,0L7.5,9.752l5.474-5.474a.736.736,0,0,1,1.055,0l1.2,1.2a.736.736,0,0,1,0,1.055Z" transform="translate(-0.003)" fill="#ec0d24"/>
      <rect id="Rectangle_1646" data-name="Rectangle 1646" width="15.151" height="12.396" transform="translate(1.489 2.755)" fill="#ec0d24"/>
    </g>
    <g id="exclamation" transform="translate(1124.887 414.374)">
      <g id="Group_794" data-name="Group 794" transform="translate(0)">
        <path id="Path_688" data-name="Path 688" d="M146.849,301.5h2.689a.682.682,0,0,1,.672.672v2.353a.681.681,0,0,1-.672.672h-2.689a.681.681,0,0,1-.672-.672v-2.353a.682.682,0,0,1,.672-.672Z" transform="translate(-145.861 -290.406)" fill="#fff"/>
        <path id="Path_689" data-name="Path 689" d="M137.788.2a.63.63,0,0,1,.468-.2h3.361a.63.63,0,0,1,.467.2.619.619,0,0,1,.184.473l-.294,8.067a.676.676,0,0,1-.215.473.663.663,0,0,1-.478.2h-2.689a.664.664,0,0,1-.478-.2.678.678,0,0,1-.215-.473L137.6.672A.618.618,0,0,1,137.788.2Z" transform="translate(-137.603)" fill="#fff"/>
      </g>
    </g>
  </g>
</svg>
