<svg xmlns="http://www.w3.org/2000/svg" width="23.206" height="23.206" viewBox="0 0 23.206 23.206">
  <path id="Caminho_672" data-name="Caminho 672" d="M21.932,1.277A4.19,4.19,0,0,0,18.858,0H4.354A4.192,4.192,0,0,0,1.28,1.277,4.192,4.192,0,0,0,0,4.351v14.5A4.192,4.192,0,0,0,1.28,21.929a4.191,4.191,0,0,0,3.075,1.277h14.5a4.359,4.359,0,0,0,4.351-4.351V4.351A4.192,4.192,0,0,0,21.932,1.277Zm-2.3,7.139-9.277,9.276a.949.949,0,0,1-1.36,0L3.583,12.283a.949.949,0,0,1,0-1.36L5.125,9.382a.949.949,0,0,1,1.36,0L9.672,12.57l7.056-7.056a.949.949,0,0,1,1.36,0l1.541,1.541a.949.949,0,0,1,0,1.36Z" transform="translate(-0.003)" fill="#009e00"/>
</svg>
