<svg xmlns="http://www.w3.org/2000/svg" width="101.923" height="93.85" viewBox="0 0 101.923 93.85">
  <g id="Agrupar_2752" data-name="Agrupar 2752" transform="translate(-771.52 -12.474)">
    <path id="back_1_" data-name="back (1)" d="M101.923,47.425a44.869,44.869,0,0,1-14.9,33.181A52.758,52.758,0,0,1,51.061,94.35a53.556,53.556,0,0,1-29.033-8.392A48.831,48.831,0,0,1,7.947,72.343v9.91H0v-22H23.842v7.332H14.1c7.628,11.978,21.491,19.43,36.959,19.43,23.663,0,42.915-17.761,42.915-39.593ZM50.664,7.832c15.468,0,29.331,7.452,36.959,19.43H78.082v7.332h23.643v-22H93.777v9.909A48.83,48.83,0,0,0,79.7,8.892,53.556,53.556,0,0,0,50.664.5,52.436,52.436,0,0,0,14.79,14.252,44.965,44.965,0,0,0,0,47.425H7.947C7.947,25.593,27.11,7.832,50.664,7.832Z" transform="translate(771.52 11.974)" fill="#fff"/>
    <g id="sports-car" transform="translate(796 32.833)">
      <g id="Agrupar_2751" data-name="Agrupar 2751" transform="translate(0 5.707)">
        <path id="Caminho_1600" data-name="Caminho 1600" d="M57.74,18.425a1.494,1.494,0,0,0-1.152-.549H50.936c-1.395-3.679-3.212-7.283-5.277-8.644-7.145-4.7-26.1-4.7-33.241,0-2.067,1.362-3.876,4.971-5.279,8.644H1.487A1.488,1.488,0,0,0,.031,19.665l.837,4.056a1.486,1.486,0,0,0,1.456,1.185H4a10.041,10.041,0,0,0-2.41,6.562A9.83,9.83,0,0,0,4.694,38.85c.022.019.045.033.065.052v5.676a2.232,2.232,0,0,0,2.23,2.23H12.2a2.232,2.232,0,0,0,2.23-2.23V42.3H43.639v2.281a2.232,2.232,0,0,0,2.23,2.23h5.213a2.234,2.234,0,0,0,2.23-2.23V39.013a10.2,10.2,0,0,0,.651-14.11H55.75a1.481,1.481,0,0,0,1.456-1.187l.839-4.055A1.5,1.5,0,0,0,57.74,18.425ZM14.867,12.957c5.7-3.749,22.645-3.749,28.337,0,1.106.726,2.529,3.659,3.833,7.252h-36C12.337,16.618,13.76,13.686,14.867,12.957ZM8.2,32.027a4.388,4.388,0,1,1,4.388,4.388A4.387,4.387,0,0,1,8.2,32.027Zm37.351,4.388a4.387,4.387,0,1,1,4.388-4.388A4.389,4.389,0,0,1,45.547,36.415Z" transform="translate(0 -5.707)" fill="#fff"/>
      </g>
    </g>
  </g>
</svg>
