<svg xmlns="http://www.w3.org/2000/svg" width="34" height="34" viewBox="0 0 37.969 37.969">
  <g id="Agrupar_3090" data-name="Agrupar 3090" transform="translate(-630.491 -975)">
    <g id="Agrupar_3088" data-name="Agrupar 3088" transform="translate(634.163 979)">
      <g id="Agrupar_1063" data-name="Agrupar 1063">
        <g id="Agrupar_1059" data-name="Agrupar 1059">
          <circle id="Elipse_216" data-name="Elipse 216" cx="15" cy="15" r="15" fill="#ec0d24"/>
        </g>
      </g>
    </g>
    <g id="gear" transform="translate(622.597 986.703) rotate(90)">
      <g id="Agrupar_999" data-name="Agrupar 999" transform="translate(-3.104 -37.382)">
        <path id="Caminho_891" data-name="Caminho 891" d="M20.522,8.566A.579.579,0,0,0,19.81,8.1a1.759,1.759,0,0,1-1.389-3.183.58.58,0,0,0,.146-.836A10.272,10.272,0,0,0,16.3,1.9a.58.58,0,0,0-.831.173,1.766,1.766,0,0,1-1.506.85A1.762,1.762,0,0,1,12.239.792.578.578,0,0,0,11.752.1,10.292,10.292,0,0,0,8.607.145a.58.58,0,0,0-.466.709,1.75,1.75,0,0,1-.065,1.052A1.775,1.775,0,0,1,6.429,3.039a1.751,1.751,0,0,1-1.476-.809.579.579,0,0,0-.835-.149,10.249,10.249,0,0,0-2.2,2.261.581.581,0,0,0,.175.833A1.763,1.763,0,0,1,1.9,8.3a1.769,1.769,0,0,1-1.1.108.58.58,0,0,0-.7.484,10.256,10.256,0,0,0,.04,3.164.58.58,0,0,0,.718.464,1.756,1.756,0,0,1,1.375,3.193.58.58,0,0,0-.157.84,10.23,10.23,0,0,0,2.278,2.213.58.58,0,0,0,.837-.183,1.763,1.763,0,0,1,3.243,1.284.579.579,0,0,0,.484.706,10.38,10.38,0,0,0,1.425.1,10.253,10.253,0,0,0,1.751-.151.579.579,0,0,0,.461-.721,1.744,1.744,0,0,1,.051-1.088A1.763,1.763,0,0,1,14.89,17.7a1.749,1.749,0,0,1,.856.715.58.58,0,0,0,.841.155,10.241,10.241,0,0,0,2.2-2.282.581.581,0,0,0-.181-.834,1.742,1.742,0,0,1-.721-.8,1.761,1.761,0,0,1,1.992-2.438.583.583,0,0,0,.457-.091.577.577,0,0,0,.243-.4A10.288,10.288,0,0,0,20.522,8.566ZM12.144,14.4A4.444,4.444,0,1,1,14.4,8.53,4.41,4.41,0,0,1,12.144,14.4Z" transform="translate(0 0)" fill="#fff"/>
        <path id="Caminho_892" data-name="Caminho 892" d="M3.282,0a3.285,3.285,0,0,0,0,6.57,3.285,3.285,0,0,0,0-6.57Z" transform="translate(7.054 7.051)" fill="#fff"/>
      </g>
    </g>
    <g id="Agrupar_3089" data-name="Agrupar 3089" transform="translate(-117.002 451)">
      <g id="Agrupar_3060" data-name="Agrupar 3060">
        <g id="Agrupar_3063" data-name="Agrupar 3063">
          <g id="Agrupar_3061" data-name="Agrupar 3061">
            <g id="Agrupar_3064" data-name="Agrupar 3064">
              <path id="Hover" d="M18.984,0A18.984,18.984,0,1,1,0,18.984,18.984,18.984,0,0,1,18.984,0Z" transform="translate(747.492 524)" fill="#ec0d24" opacity="0.27"/>
            </g>
          </g>
        </g>
      </g>
    </g>
  </g>
</svg>
