<svg xmlns="http://www.w3.org/2000/svg" width="30" height="30" viewBox="0 0 30 30">
  <g id="Agrupar_3094" data-name="Agrupar 3094" transform="translate(-861.165 -912)">
    <g id="Agrupar_3092" data-name="Agrupar 3092" transform="translate(876.165 917)">
      <g id="Agrupar_1067" data-name="Agrupar 1067" transform="translate(-15 -5)">
        <g id="Agrupar_1063" data-name="Agrupar 1063">
          <g id="Agrupar_1059" data-name="Agrupar 1059">
            <circle id="Elipse_216" data-name="Elipse 216" cx="15" cy="15" r="15" fill="#005b9e"/>
          </g>
        </g>
      </g>
    </g>
    <path id="Caminho_891" data-name="Caminho 891" d="M21.216,8.855a.6.6,0,0,0-.736-.478,1.818,1.818,0,0,1-1.436-3.291.6.6,0,0,0,.151-.864A10.619,10.619,0,0,0,16.854,1.96.6.6,0,0,0,16,2.138a1.825,1.825,0,0,1-1.557.878,1.822,1.822,0,0,1-1.785-2.2.6.6,0,0,0-.5-.717A10.64,10.64,0,0,0,8.9.15a.6.6,0,0,0-.481.733,1.809,1.809,0,0,1-.067,1.088,1.835,1.835,0,0,1-1.7,1.171A1.81,1.81,0,0,1,5.12,2.306a.6.6,0,0,0-.863-.154A10.6,10.6,0,0,0,1.983,4.49a.6.6,0,0,0,.181.861,1.823,1.823,0,0,1-.2,3.23,1.829,1.829,0,0,1-1.136.112.6.6,0,0,0-.724.5,10.6,10.6,0,0,0,.042,3.271.6.6,0,0,0,.743.479,1.816,1.816,0,0,1,1.422,3.3.6.6,0,0,0-.163.869A10.576,10.576,0,0,0,4.505,19.4a.6.6,0,0,0,.865-.189,1.822,1.822,0,0,1,3.353,1.328.6.6,0,0,0,.5.73,10.73,10.73,0,0,0,1.473.1,10.6,10.6,0,0,0,1.81-.156.6.6,0,0,0,.476-.746,1.8,1.8,0,0,1,.053-1.125A1.822,1.822,0,0,1,15.393,18.3a1.808,1.808,0,0,1,.885.74.6.6,0,0,0,.87.16,10.587,10.587,0,0,0,2.277-2.359.6.6,0,0,0-.187-.862,1.8,1.8,0,0,1-.745-.83,1.821,1.821,0,0,1,2.06-2.521.6.6,0,0,0,.472-.094.6.6,0,0,0,.251-.41A10.636,10.636,0,0,0,21.216,8.855Zm-8.662,6.027a4.594,4.594,0,1,1,2.33-6.064A4.559,4.559,0,0,1,12.554,14.883Z" transform="translate(886.981 916.6) rotate(90)" fill="#fff"/>
    <path id="Caminho_892" data-name="Caminho 892" d="M3.393,0a3.4,3.4,0,0,0,0,6.792A3.4,3.4,0,0,0,3.393,0Z" transform="translate(879.691 923.892) rotate(90)" fill="#fff"/>
  </g>
</svg>
