<svg xmlns="http://www.w3.org/2000/svg" width="21" height="24" viewBox="0 0 21 24">
  <g id="Grupo_3" data-name="Grupo 3" transform="translate(-541.5 -633)">
    <g id="noun_clipboard_534026" transform="translate(494 605)">
      <g id="Grupo_2" data-name="Grupo 2" transform="translate(46 28)">
        <g id="Grupo_1" data-name="Grupo 1">
          <path id="Caminho_1" data-name="Caminho 1" d="M6,4h9a.5.5,0,0,0,.5-.5v-1A1.5,1.5,0,0,0,14,1H12.226A1.99,1.99,0,0,0,8.774,1H7A1.5,1.5,0,0,0,5.5,2.5v1A.5.5,0,0,0,6,4Zm11,9a5.5,5.5,0,1,0,5.5,5.5A5.506,5.506,0,0,0,17,13Zm2.354,4.854a.5.5,0,0,1-.708,0L17.5,16.707V21.5a.5.5,0,0,1-1,0V16.707l-1.146,1.146a.5.5,0,0,1-.707-.707l2-2a.518.518,0,0,1,.163-.109.5.5,0,0,1,.382,0,.477.477,0,0,1,.163.109l2,2A.5.5,0,0,1,19.354,17.854ZM10.5,18.5a6.494,6.494,0,0,1,8.357-6.227.49.49,0,0,0,.441-.078.5.5,0,0,0,.2-.4V3.5A1.5,1.5,0,0,0,18,2H17a.5.5,0,0,0-.5.5v1A1.5,1.5,0,0,1,15,5H6A1.5,1.5,0,0,1,4.5,3.5v-1A.5.5,0,0,0,4,2H3A1.5,1.5,0,0,0,1.5,3.5v19A1.5,1.5,0,0,0,3,24h9.125a.5.5,0,0,0,.259-.928A6.446,6.446,0,0,1,10.5,18.5Z" fill="#005b9e"/>
        </g>
      </g>
    </g>
  </g>
</svg>
