<svg xmlns="http://www.w3.org/2000/svg" width="27.565" height="24" viewBox="0 0 27.565 24">
  <g id="Grupo_1" data-name="Grupo 1" transform="translate(-589.981 -573)">
    <g id="noun_Stock_1174580" transform="translate(533 543.871)">
      <path id="Caminho_4" data-name="Caminho 4" d="M13.215,24.625H23.538a2.6,2.6,0,0,0,2.6-2.6V20.311a2.6,2.6,0,0,0-2.6-2.6H13.215a2.6,2.6,0,0,0-2.6,2.6v1.718A2.6,2.6,0,0,0,13.215,24.625Zm0-8.586H23.538a2.6,2.6,0,0,0,2.6-2.6V11.725a2.6,2.6,0,0,0-2.6-2.6H13.216a2.6,2.6,0,0,0-2.6,2.6v1.717A2.6,2.6,0,0,0,13.216,16.039Zm14.7,10.238H8.9V12.717c0-.044-.009-.127-.009-.171a1.625,1.625,0,0,0-1.6-1.657H3.61a1.692,1.692,0,0,0-1.629,1.7A1.724,1.724,0,0,0,3.61,14.325H5.468V26.277H5.343a1.69,1.69,0,0,0-1.628,1.7,1.723,1.723,0,0,0,1.628,1.735H7.254s0,.007,0,.01a3.408,3.408,0,0,0,6.815,0s0-.007,0-.01h5.208s0,.007,0,.01a3.408,3.408,0,0,0,6.815,0s0-.007,0-.01h1.83a1.723,1.723,0,0,0,1.628-1.735A1.69,1.69,0,0,0,27.918,26.277Z" transform="translate(55 20)" fill="#005b9e" fill-rule="evenodd"/>
    </g>
  </g>
</svg>
