<svg xmlns="http://www.w3.org/2000/svg" width="29.594" height="27.745" viewBox="0 0 29.594 27.745">
  <g id="excel" transform="translate(0 -15.989)">
    <path id="Path_722" data-name="Path 722" d="M269.872,100.356H256.925a.925.925,0,0,1-.925-.925v-18.5a.925.925,0,0,1,.925-.925h12.947a.925.925,0,0,1,.925.925v18.5A.925.925,0,0,1,269.872,100.356Z" transform="translate(-241.204 -60.321)" fill="#eceff1"/>
    <g id="Group_859" data-name="Group 859" transform="translate(14.796 23.389)">
      <path id="Path_723" data-name="Path 723" d="M260.624,145.861h-3.7a.925.925,0,0,1,0-1.85h3.7a.925.925,0,0,1,0,1.85Z" transform="translate(-256 -144.011)" fill="#388e3c"/>
      <path id="Path_724" data-name="Path 724" d="M260.624,209.861h-3.7a.925.925,0,0,1,0-1.85h3.7a.925.925,0,0,1,0,1.85Z" transform="translate(-256 -204.312)" fill="#388e3c"/>
      <path id="Path_725" data-name="Path 725" d="M260.624,273.861h-3.7a.925.925,0,0,1,0-1.85h3.7a.925.925,0,0,1,0,1.85Z" transform="translate(-256 -264.613)" fill="#388e3c"/>
      <path id="Path_726" data-name="Path 726" d="M260.624,337.861h-3.7a.925.925,0,1,1,0-1.85h3.7a.925.925,0,1,1,0,1.85Z" transform="translate(-256 -324.914)" fill="#388e3c"/>
      <path id="Path_727" data-name="Path 727" d="M386.774,145.861h-1.85a.925.925,0,0,1,0-1.85h1.85a.925.925,0,0,1,0,1.85Z" transform="translate(-376.602 -144.011)" fill="#388e3c"/>
      <path id="Path_728" data-name="Path 728" d="M386.774,209.861h-1.85a.925.925,0,1,1,0-1.85h1.85a.925.925,0,0,1,0,1.85Z" transform="translate(-376.602 -204.312)" fill="#388e3c"/>
      <path id="Path_729" data-name="Path 729" d="M386.774,273.861h-1.85a.925.925,0,0,1,0-1.85h1.85a.925.925,0,0,1,0,1.85Z" transform="translate(-376.602 -264.613)" fill="#388e3c"/>
      <path id="Path_730" data-name="Path 730" d="M386.774,337.861h-1.85a.925.925,0,1,1,0-1.85h1.85a.925.925,0,1,1,0,1.85Z" transform="translate(-376.602 -324.914)" fill="#388e3c"/>
    </g>
    <path id="Path_731" data-name="Path 731" d="M16.311,16.2a.909.909,0,0,0-.76-.2L.755,18.782A.922.922,0,0,0,0,19.69V40.035a.924.924,0,0,0,.755.908l14.8,2.774a.87.87,0,0,0,.17.017.925.925,0,0,0,.925-.925V16.915A.922.922,0,0,0,16.311,16.2Z" fill="#2e7d32"/>
    <path id="Path_732" data-name="Path 732" d="M88.078,168.665l-2.924-3.342,2.957-3.8a.925.925,0,0,0-1.459-1.137L83.913,163.9,81.6,161.267a.924.924,0,1,0-1.391,1.217l2.543,2.907-2.578,3.314a.925.925,0,0,0,1.461,1.136L84,166.808l2.689,3.072a.923.923,0,1,0,1.391-1.215Z" transform="translate(-75.361 -135.712)" fill="#fafafa"/>
  </g>
</svg>
