<svg id="file" xmlns="http://www.w3.org/2000/svg" width="29.01" height="30.537" viewBox="0 0 29.01 30.537">
  <path id="Caminho_561" data-name="Caminho 561" d="M12.009,23.018H24.733a.509.509,0,1,0,0-1.018H12.009a.509.509,0,1,0,0,1.018Z" transform="translate(-6.411 -10.803)" fill="#ec0d24"/>
  <path id="Caminho_562" data-name="Caminho 562" d="M12.009,15.018H17.1A.509.509,0,1,0,17.1,14H12.009a.509.509,0,1,0,0,1.018Z" transform="translate(-6.411 -6.875)" fill="#ec0d24"/>
  <path id="Caminho_563" data-name="Caminho 563" d="M12.009,31.018H24.733a.509.509,0,0,0,0-1.018H12.009a.509.509,0,1,0,0,1.018Z" transform="translate(-6.411 -14.732)" fill="#ec0d24"/>
  <path id="Caminho_564" data-name="Caminho 564" d="M20.661,38H12.009a.509.509,0,1,0,0,1.018h8.652a.509.509,0,1,0,0-1.018Z" transform="translate(-6.411 -18.66)" fill="#ec0d24"/>
  <path id="Caminho_565" data-name="Caminho 565" d="M19.134,46H12.009a.509.509,0,1,0,0,1.018h7.125a.509.509,0,1,0,0-1.018Z" transform="translate(-6.411 -22.589)" fill="#ec0d24"/>
  <path id="Caminho_566" data-name="Caminho 566" d="M25.42,17.489V7.423L18,0H1.5V30.536H23.894A6.613,6.613,0,0,0,25.42,17.489ZM18.3,1.738l5.388,5.388H18.3Zm2.075,27.781H2.518V1.018H17.277V8.143H24.4v9.183c-.174-.015-.343-.022-.509-.022a6.624,6.624,0,0,0-6.616,6.616c0,.2.013.4.031.6,0,.046.009.092.014.138.022.194.05.387.088.576,0,.022.011.044.015.067.037.172.081.341.131.508.013.042.024.084.038.125q.086.269.193.528c.014.033.029.064.043.1q.1.226.213.442c.018.035.036.07.054.1q.134.242.287.472c.023.035.048.069.072.1q.14.2.293.392c.019.024.038.049.058.073.118.141.242.277.371.408.032.032.064.063.1.095.125.122.252.24.386.351l.035.031c.144.118.294.229.447.335l.112.076C20.294,29.466,20.331,29.494,20.371,29.519Zm3.523,0a5.6,5.6,0,1,1,0-11.2c.159,0,.316.011.471.024s.3.034.463.061l.225.038a5.6,5.6,0,0,1-1.159,11.075Z" transform="translate(-1.5)" fill="#ec0d24"/>
  <path id="Caminho_567" data-name="Caminho 567" d="M45.445,41.906a.508.508,0,0,0-.72,0l-1.8,1.8-1.8-1.8a.509.509,0,1,0-.72.72l1.8,1.8-1.8,1.8a.509.509,0,1,0,.72.72l1.8-1.8,1.8,1.8a.509.509,0,0,0,.72-.72l-1.8-1.8,1.8-1.8A.509.509,0,0,0,45.445,41.906Z" transform="translate(-20.532 -20.505)" fill="#ec0d24"/>
</svg>
