<svg xmlns="http://www.w3.org/2000/svg" width="30" height="20.566" viewBox="0 0 30 20.566">
  <g id="report" transform="translate(0 -80.5)">
    <g id="Agrupar_2769" data-name="Agrupar 2769" transform="translate(0.439 80.939)">
      <g id="Agrupar_2745" data-name="Agrupar 2745" transform="translate(7.207 16.172)">
        <g id="Agrupar_2744" data-name="Agrupar 2744">
          <g id="Agrupar_2743" data-name="Agrupar 2743">
            <path id="Caminho_1599" data-name="Caminho 1599" d="M132.844,364v1.557a.611.611,0,0,1-.611.611H130.5V364Z" transform="translate(-130.5 -364)" fill="#d1d5cd"/>
          </g>
        </g>
      </g>
      <g id="Agrupar_2748" data-name="Agrupar 2748" transform="translate(3.809 16.172)">
        <g id="Agrupar_2747" data-name="Agrupar 2747">
          <g id="Agrupar_2746" data-name="Agrupar 2746">
            <path id="Caminho_1600" data-name="Caminho 1600" d="M76.426,366.168v.495a.794.794,0,0,1-.795.795H73.295a.794.794,0,0,1-.795-.795V364h3.926Z" transform="translate(-72.5 -364)" fill="#74767f"/>
          </g>
        </g>
      </g>
      <path id="Caminho_1601" data-name="Caminho 1601" d="M74.293,366.663V364H72.5v2.663a.794.794,0,0,0,.795.795h1.794A.794.794,0,0,1,74.293,366.663Z" transform="translate(-68.691 -347.828)" fill="#656872"/>
      <path id="Caminho_1602" data-name="Caminho 1602" d="M100.545,146.587l-.049-.373A1.369,1.369,0,0,0,99.135,145H87.568a1.369,1.369,0,0,0-1.361,1.215l-.049.373-.658,4.975v.5h15.7v-.5Z" transform="translate(-80.93 -141.66)" fill="#c8e5fc"/>
      <path id="Caminho_1603" data-name="Caminho 1603" d="M88.3,146.587l.049-.373A1.369,1.369,0,0,1,89.706,145H87.568a1.369,1.369,0,0,0-1.361,1.215l-.049.373-.658,4.975v.5h2.139v-.5Z" transform="translate(-80.93 -141.66)" fill="#b8dcf4"/>
      <g id="Agrupar_2751" data-name="Agrupar 2751" transform="translate(5.228 3.34)">
        <g id="Agrupar_2750" data-name="Agrupar 2750">
          <g id="Agrupar_2749" data-name="Agrupar 2749">
            <path id="Caminho_1604" data-name="Caminho 1604" d="M111.068,146.215l.049.373H96.73l.049-.373A1.369,1.369,0,0,1,98.14,145h11.568A1.369,1.369,0,0,1,111.068,146.215Z" transform="translate(-96.73 -145)" fill="#74767f"/>
          </g>
        </g>
      </g>
      <path id="Caminho_1605" data-name="Caminho 1605" d="M98.869,146.587h0l.049-.373A1.369,1.369,0,0,1,100.278,145H98.14a1.368,1.368,0,0,0-1.361,1.215l-.049.373h2.139Z" transform="translate(-91.502 -141.66)" fill="#636570"/>
      <path id="Caminho_1606" data-name="Caminho 1606" d="M72.755,261.612a21.87,21.87,0,0,0-.359-3.191A1.738,1.738,0,0,0,70.685,257H55.368a1.738,1.738,0,0,0-1.711,1.417,21.56,21.56,0,0,0-.356,3.195c-.007.181-.011.361-.012.541a1.744,1.744,0,0,0,1.741,1.761H71.026a1.744,1.744,0,0,0,1.742-1.76C72.767,261.974,72.762,261.793,72.755,261.612Z" transform="translate(-50.606 -247.098)" fill="#005b9e"/>
      <path id="Caminho_1607" data-name="Caminho 1607" d="M56.458,262.153c0-.18,0-.36.012-.541a21.56,21.56,0,0,1,.356-3.195A1.738,1.738,0,0,1,58.537,257H55.368a1.738,1.738,0,0,0-1.711,1.417,21.56,21.56,0,0,0-.356,3.195c-.007.181-.011.361-.012.541a1.744,1.744,0,0,0,1.741,1.761H58.2A1.744,1.744,0,0,1,56.458,262.153Z" transform="translate(-50.606 -247.098)" fill="#005b9e"/>
      <g id="Agrupar_2752" data-name="Agrupar 2752" transform="translate(2.683 14.514)">
        <path id="Caminho_1608" data-name="Caminho 1608" d="M72.755,335.71H53.3c-.007.181-.011.361-.012.541a1.744,1.744,0,0,0,1.741,1.761H71.026a1.744,1.744,0,0,0,1.742-1.76C72.767,336.072,72.762,335.891,72.755,335.71Z" transform="translate(-53.289 -335.71)" fill="#005b9e"/>
      </g>
      <path id="Caminho_1609" data-name="Caminho 1609" d="M56.458,336.251c0-.18,0-.36.012-.541H53.3c-.007.181-.011.361-.012.541a1.744,1.744,0,0,0,1.741,1.761H58.2A1.744,1.744,0,0,1,56.458,336.251Z" transform="translate(-50.606 -321.196)" fill="#005b9e"/>
      <g id="Agrupar_2755" data-name="Agrupar 2755" transform="translate(7.565 11.924)">
        <g id="Agrupar_2754" data-name="Agrupar 2754" transform="translate(0)">
          <g id="Agrupar_2753" data-name="Agrupar 2753">
            <path id="Caminho_1610" data-name="Caminho 1610" d="M136.659,294.09a1.1,1.1,0,0,1-.037-.5l.177-1.154a1.108,1.108,0,0,1,1.1-.94h7.144a1.108,1.108,0,0,1,1.1.94l.177,1.154a1.107,1.107,0,0,1-1.1,1.275h-7.5A1.108,1.108,0,0,1,136.659,294.09Z" transform="translate(-136.609 -291.5)" fill="#d1d5cd"/>
          </g>
        </g>
      </g>
      <path id="Caminho_1611" data-name="Caminho 1611" d="M146.029,294.493h-7.5a1.107,1.107,0,0,1-1.1-1.275l.177-1.154a1.1,1.1,0,0,1,.14-.393,1.107,1.107,0,0,0-.954.93l-.177,1.154a1.107,1.107,0,0,0,1.1,1.275h7.5a1.106,1.106,0,0,0,.955-.547A1.121,1.121,0,0,1,146.029,294.493Z" transform="translate(-129.044 -279.737)" fill="#c4c6c2"/>
      <g id="Agrupar_2758" data-name="Agrupar 2758" transform="translate(4.336 11.133)">
        <g id="Agrupar_2757" data-name="Agrupar 2757">
          <g id="Agrupar_2756" data-name="Agrupar 2756">
            <path id="Caminho_1612" data-name="Caminho 1612" d="M82.613,278a1.113,1.113,0,1,1-1.113,1.113A1.114,1.114,0,0,1,82.613,278Z" transform="translate(-81.5 -278)" fill="#c8e5fc"/>
          </g>
        </g>
      </g>
      <g id="Agrupar_2762" data-name="Agrupar 2762" transform="translate(0 7.207)">
        <g id="Agrupar_2761" data-name="Agrupar 2761">
          <g id="Agrupar_2760" data-name="Agrupar 2760">
            <g id="Agrupar_2759" data-name="Agrupar 2759">
              <path id="Caminho_1613" data-name="Caminho 1613" d="M10.078,212v.214a.781.781,0,0,1-.782.782H8.282a.781.781,0,0,1-.782-.782v-.429A.781.781,0,0,1,8.282,211H9.3a.781.781,0,0,1,.782.782Z" transform="translate(-7.5 -211)" fill="#005b9e"/>
            </g>
          </g>
        </g>
      </g>
      <path id="Caminho_1614" data-name="Caminho 1614" d="M298.375,101H287.4a.9.9,0,0,0-.9.9v16.425a.9.9,0,0,0,.9.9h10.976a.9.9,0,0,0,.9-.9V101.9A.9.9,0,0,0,298.375,101Z" transform="translate(-270.152 -100.238)" fill="#5fed65"/>
      <path id="Caminho_1615" data-name="Caminho 1615" d="M295.485,116.967a6.89,6.89,0,0,1-6.889-6.89V101h-1.2a.9.9,0,0,0-.9.9v16.425a.9.9,0,0,0,.9.9h10.976a.9.9,0,0,0,.9-.9v-1.357Z" transform="translate(-270.153 -100.238)" fill="#2bd62b"/>
      <g id="Agrupar_2765" data-name="Agrupar 2765" transform="translate(17.813 2.227)">
        <g id="Agrupar_2764" data-name="Agrupar 2764">
          <g id="Agrupar_2763" data-name="Agrupar 2763">
            <path id="Caminho_1616" data-name="Caminho 1616" d="M321.344,126v15.293H311.5v-15.07a.223.223,0,0,1,.223-.223Z" transform="translate(-311.5 -126)" fill="#d1d5cd"/>
          </g>
        </g>
      </g>
      <path id="Caminho_1617" data-name="Caminho 1617" d="M313.119,133.97V126h-1.4a.223.223,0,0,0-.223.223v15.07h9.844v-1.641H318.8A5.682,5.682,0,0,1,313.119,133.97Z" transform="translate(-293.688 -123.773)" fill="#c8ccc4"/>
      <g id="Agrupar_2768" data-name="Agrupar 2768" transform="translate(19.57 0)">
        <g id="Agrupar_2767" data-name="Agrupar 2767">
          <g id="Agrupar_2766" data-name="Agrupar 2766">
            <path id="Caminho_1618" data-name="Caminho 1618" d="M347.828,90.227V90.6a.448.448,0,0,1-.448.448h-5.433a.448.448,0,0,1-.448-.448V88.448a.448.448,0,0,1,.448-.448h5.433a.448.448,0,0,1,.448.448v1.779Z" transform="translate(-341.5 -88)" fill="#acafb7"/>
          </g>
        </g>
      </g>
      <path id="Caminho_1619" data-name="Caminho 1619" d="M343.567,89.523a.448.448,0,0,1-.448-.448V88h-1.171a.448.448,0,0,0-.448.448V90.6a.448.448,0,0,0,.448.448h5.433a.448.448,0,0,0,.448-.448V89.523Z" transform="translate(-321.93 -88)" fill="#999da3"/>
    </g>
    <g id="Agrupar_2770" data-name="Agrupar 2770" transform="translate(0 80.5)">
      <path id="Caminho_1620" data-name="Caminho 1620" d="M75.553,271.5a1.553,1.553,0,1,0,1.553,1.553A1.555,1.555,0,0,0,75.553,271.5Zm0,2.227a.674.674,0,1,1,.674-.674A.675.675,0,0,1,75.553,273.727Z" transform="translate(-69.664 -260.309)"/>
      <path id="Caminho_1621" data-name="Caminho 1621" d="M160.26,313.5h-.82a.439.439,0,0,0,0,.879h.82a.439.439,0,0,0,0-.879Z" transform="translate(-149.684 -299.848)"/>
      <path id="Caminho_1622" data-name="Caminho 1622" d="M200.779,313.5h-3.34a.439.439,0,0,0,0,.879h3.34a.439.439,0,0,0,0-.879Z" transform="translate(-185.457 -299.848)"/>
      <path id="Caminho_1623" data-name="Caminho 1623" d="M108.44,188.082a.437.437,0,0,0,.263-.088l.938-.7a.439.439,0,1,0-.527-.7l-.937.7a.439.439,0,0,0,.264.791Z" transform="translate(-101.672 -180.289)"/>
      <path id="Caminho_1624" data-name="Caminho 1624" d="M111.492,193.083l-2.812,2.051a.439.439,0,1,0,.518.71l2.813-2.051a.439.439,0,1,0-.518-.71Z" transform="translate(-102.142 -186.407)"/>
      <path id="Caminho_1625" data-name="Caminho 1625" d="M28.661,81.262H26.767a.888.888,0,0,0-.877-.762H20.457a.888.888,0,0,0-.877.762H17.686A1.34,1.34,0,0,0,16.348,82.6v1.3H7.077a1.808,1.808,0,0,0-1.8,1.6l-.546,4.126-.407-.655a.439.439,0,0,0-.373-.208h-.52a1.222,1.222,0,0,0-1.2-1H1.221A1.222,1.222,0,0,0,0,88.987v.429a1.222,1.222,0,0,0,1.221,1.221H2.236a1.222,1.222,0,0,0,1.2-1h.275l.621,1a2.171,2.171,0,0,0-1.274,1.6A22.209,22.209,0,0,0,2.7,95.467a.438.438,0,0,0,0,.046s0,0,0,.005c-.006.179-.01.356-.011.533a2.19,2.19,0,0,0,1.126,1.931v1.851a1.236,1.236,0,0,0,1.234,1.234H7.379a1.236,1.236,0,0,0,1.234-1.234v-.055h.766a1.052,1.052,0,0,0,1.05-1.05v-.473h5.918v.771a1.34,1.34,0,0,0,1.339,1.339H28.661A1.34,1.34,0,0,0,30,99.025V82.6A1.34,1.34,0,0,0,28.661,81.262ZM2.578,89.416a.342.342,0,0,1-.342.342H1.221a.342.342,0,0,1-.342-.342v-.429a.342.342,0,0,1,.342-.342H2.236a.342.342,0,0,1,.342.342Zm17.871-8.029a.008.008,0,0,1,.008-.008H25.89a.008.008,0,0,1,.008.008v2.152a.008.008,0,0,1-.008.008H20.457a.008.008,0,0,1-.008-.008Zm-6.006,9.074H5.511l.542-4.1H16.348v4.1ZM7.077,84.777h9.27v.709H6.175A.929.929,0,0,1,7.077,84.777Zm.657,15.055a.356.356,0,0,1-.355.355H5.043a.356.356,0,0,1-.355-.355V98.254H7.734v1.578Zm1.816-1.105a.172.172,0,0,1-.171.171H8.613v-.645h.938Zm.439-1.352H4.864a1.29,1.29,0,0,1-.921-.383,1.3,1.3,0,0,1-.381-.935c0-.035,0-.07,0-.1H7.77a1.542,1.542,0,0,0,1.342.778h6.268a.439.439,0,0,0,0-.879H9.112A.665.665,0,0,1,8.48,95.4c0-.012-.007-.024-.012-.036a.667.667,0,0,1-.016-.278l.177-1.154a.664.664,0,0,1,.66-.567h6.092a.439.439,0,0,0,0-.879H9.289A1.538,1.538,0,0,0,7.76,93.8l-.177,1.154c-.006.041-.01.083-.013.124H3.595A21.593,21.593,0,0,1,3.922,92.4,1.3,1.3,0,0,1,5.2,91.34H16.348v6.035H9.99Zm19.131,1.65a.46.46,0,0,1-.46.46H17.686a.46.46,0,0,1-.46-.46V82.6a.46.46,0,0,1,.46-.46H19.57v.586H18.252a.439.439,0,0,0-.439.439V88.7a.439.439,0,0,0,.879,0v-5.1h.882a.888.888,0,0,0,.884.82H25.89a.888.888,0,0,0,.884-.82h.882V98.02H18.691V90.461a.439.439,0,0,0-.879,0v8a.439.439,0,0,0,.439.439H28.1a.439.439,0,0,0,.439-.439V83.166a.439.439,0,0,0-.439-.439H26.777v-.586h1.884a.46.46,0,0,1,.46.46Z" transform="translate(0 -80.5)"/>
      <path id="Caminho_1626" data-name="Caminho 1626" d="M331.153,167.035l.41.352a.439.439,0,0,0,.573,0l1.289-1.113a.439.439,0,1,0-.574-.665l-1,.866-.123-.106a.439.439,0,1,0-.572.667Z" transform="translate(-311.605 -160.52)"/>
      <path id="Caminho_1627" data-name="Caminho 1627" d="M331.153,273.035l.41.352a.439.439,0,0,0,.573,0l1.289-1.113a.439.439,0,1,0-.574-.665l-1,.866-.123-.106a.439.439,0,1,0-.572.667Z" transform="translate(-311.605 -260.309)"/>
      <path id="Caminho_1628" data-name="Caminho 1628" d="M333.26,214.5a1.26,1.26,0,1,0,1.26,1.26A1.261,1.261,0,0,0,333.26,214.5Zm0,1.641a.381.381,0,1,1,.381-.381A.381.381,0,0,1,333.26,216.141Z" transform="translate(-312.547 -206.648)"/>
      <path id="Caminho_1629" data-name="Caminho 1629" d="M333.26,319.5a1.26,1.26,0,1,0,1.26,1.26A1.261,1.261,0,0,0,333.26,319.5Zm0,1.641a.381.381,0,1,1,.381-.381A.381.381,0,0,1,333.26,321.141Z" transform="translate(-312.547 -305.496)"/>
      <path id="Caminho_1630" data-name="Caminho 1630" d="M391.939,180.379h2.988a.439.439,0,0,0,0-.879h-2.988a.439.439,0,0,0,0,.879Z" transform="translate(-368.561 -173.699)"/>
      <path id="Caminho_1631" data-name="Caminho 1631" d="M391.939,229.379h2.988a.439.439,0,0,0,0-.879h-2.988a.439.439,0,0,0,0,.879Z" transform="translate(-368.561 -219.828)"/>
      <path id="Caminho_1632" data-name="Caminho 1632" d="M391.939,278.379h2.988a.439.439,0,0,0,0-.879h-2.988a.439.439,0,0,0,0,.879Z" transform="translate(-368.561 -265.957)"/>
      <path id="Caminho_1633" data-name="Caminho 1633" d="M391.939,327.379h2.988a.439.439,0,0,0,0-.879h-2.988a.439.439,0,0,0,0,.879Z" transform="translate(-368.561 -312.086)"/>
    </g>
  </g>
</svg>
