<svg xmlns="http://www.w3.org/2000/svg" width="23.557" height="24.788" viewBox="0 0 23.557 24.788">
  <g id="sending-from-the-inbox" transform="translate(-1.254)">
    <g id="Agrupar_1114" data-name="Agrupar 1114" transform="translate(1.254)">
      <g id="Agrupar_1113" data-name="Agrupar 1113">
        <path id="Caminho_942" data-name="Caminho 942" d="M16.959,29.508a2.93,2.93,0,0,1-2.93,2.93H12.036a2.93,2.93,0,0,1-2.93-2.93H1.254v8.343a1.963,1.963,0,0,0,1.963,1.963H22.848a1.963,1.963,0,0,0,1.963-1.963V29.508Z" transform="translate(-1.254 -15.026)" fill="#008548"/>
        <path id="Caminho_943" data-name="Caminho 943" d="M21.075,0,17.341,3.657c-.367.36-.248.651.266.651h2.24v7.47a1.227,1.227,0,1,0,2.454,0V4.308h2.24c.516,0,.633-.292.266-.651Z" transform="translate(-9.338)" fill="#008548"/>
      </g>
    </g>
  </g>
</svg>
