<svg xmlns="http://www.w3.org/2000/svg" width="24" height="24" viewBox="0 0 14 14">
  <g id="money_1_" data-name="money (1)" transform="translate(-11.583)">
    <g id="Grupo_2850" data-name="Grupo 2850" transform="translate(16.927 4.12)">
      <g id="Grupo_2849" data-name="Grupo 2849">
        <path id="Caminho_1967" data-name="Caminho 1967" d="M276.995,82.007c0,.267,0,.884.958,1.133V80.874C277,81.122,276.995,81.739,276.995,82.007Z" transform="translate(-276.995 -80.874)" fill="#005b9e"/>
      </g>
    </g>
    <g id="Grupo_2852" data-name="Grupo 2852" transform="translate(19.28 7.615)">
      <g id="Grupo_2851" data-name="Grupo 2851">
        <path id="Caminho_1968" data-name="Caminho 1968" d="M322.168,149.452v2.265c.957-.248.958-.865.958-1.133S323.125,149.7,322.168,149.452Z" transform="translate(-322.168 -149.452)" fill="#005b9e"/>
      </g>
    </g>
    <g id="Grupo_2854" data-name="Grupo 2854" transform="translate(11.583)">
      <g id="Grupo_2853" data-name="Grupo 2853" transform="translate(0)">
        <path id="Caminho_1969" data-name="Caminho 1969" d="M181.355,0a7,7,0,1,0,7,7A7,7,0,0,0,181.355,0Zm2.132,6.743a2.365,2.365,0,0,1,1.057,2.067,2.365,2.365,0,0,1-1.057,2.067,3.274,3.274,0,0,1-1.329.488v.789h-1.606v-.789a3.275,3.275,0,0,1-1.329-.488,2.365,2.365,0,0,1-1.057-2.067h1.606c0,.217,0,.719.779.921V7.744a3.276,3.276,0,0,1-1.329-.488,2.365,2.365,0,0,1-1.057-2.067,2.365,2.365,0,0,1,1.057-2.067,3.276,3.276,0,0,1,1.329-.488V1.846h1.606v.789a3.275,3.275,0,0,1,1.329.488,2.365,2.365,0,0,1,1.057,2.067h-1.606c0-.217,0-.719-.779-.921V6.26a3.275,3.275,0,0,1,1.329.483Z" transform="translate(-174.355)" fill="#005b9e"/>
      </g>
    </g>
  </g>
</svg>
