<svg xmlns="http://www.w3.org/2000/svg" width="37.969" height="37.969" viewBox="0 0 37.969 37.969">
  <g id="Agrupar_3099" data-name="Agrupar 3099" transform="translate(-845.491 -934)">
    <path id="Hover" d="M18.984,0A18.984,18.984,0,0,1,37.969,18.984a19.193,19.193,0,0,1-2.244,8.962A18.986,18.986,0,1,1,18.984,0Z" transform="translate(845.491 934)" fill="#ec0d24" opacity="0.27"/>
    <circle id="Elipse_216" data-name="Elipse 216" cx="15" cy="15" r="15" transform="translate(849.165 938)" fill="#ec0d24"/>
    <path id="Caminho_880" data-name="Caminho 880" d="M0,18.619H3.724V7.448H0ZM20.481,8.379a1.867,1.867,0,0,0-1.862-1.862H12.754l.931-4.282V1.955A1.952,1.952,0,0,0,13.313.931L12.289,0,6.144,6.144a1.562,1.562,0,0,0-.559,1.3v9.31a1.867,1.867,0,0,0,1.862,1.862h8.379A1.839,1.839,0,0,0,17.5,17.5l2.793-6.61a1.584,1.584,0,0,0,.093-.652V8.379h.093Z" transform="translate(854.165 941.83)" fill="#fff"/>
  </g>
</svg>
