<svg xmlns="http://www.w3.org/2000/svg" width="16.831" height="22.223" viewBox="0 0 16.831 22.223">
  <g id="Agrupar_759" data-name="Agrupar 759" transform="translate(0 0)">
    <g id="checklist" transform="translate(0)">
      <g id="Agrupar_718" data-name="Agrupar 718">
        <g id="Agrupar_717" data-name="Agrupar 717">
          <rect id="Ret창ngulo_1637" data-name="Ret창ngulo 1637" width="4.223" height="1.736" transform="translate(8.765 5.295)" fill="#033333"/>
          <path id="Caminho_659" data-name="Caminho 659" d="M1.757,19.619V2.6a.836.836,0,0,1,.8-.868h11.39a.836.836,0,0,1,.8.868v8.5l1.594-1.785V2.6A2.507,2.507,0,0,0,13.944,0H2.553A2.507,2.507,0,0,0,.163,2.6V19.619a2.507,2.507,0,0,0,2.39,2.6H8.637L9,20.487H2.553A.836.836,0,0,1,1.757,19.619Z" transform="translate(-0.163)" fill="#033333"/>
          <rect id="Ret창ngulo_1638" data-name="Ret창ngulo 1638" width="4.223" height="1.736" transform="translate(8.765 10.504)" fill="#033333"/>
          <path id="Caminho_661" data-name="Caminho 661" d="M84.417,200.6l-1.95,2.41-.97-.993L80.4,203.286l2.169,2.219,3.038-3.754Z" transform="translate(-77.205 -191.889)" fill="#033333"/>
          <path id="Caminho_662" data-name="Caminho 662" d="M84.417,79.706l-1.95,2.41-.97-.993L80.4,82.389l2.169,2.219,3.038-3.754Z" transform="translate(-77.205 -76.244)" fill="#033333"/>
          <path id="Caminho_663" data-name="Caminho 663" d="M81.5,321.92,80.4,323.186l2.169,2.219,3.038-3.754-1.2-1.148-1.95,2.41Z" transform="translate(-77.205 -306.58)" fill="#033333"/>
        </g>
      </g>
    </g>
    <g id="musica-searcher" transform="translate(9.311 13.451)">
      <path id="Caminho_664" data-name="Caminho 664" d="M7.335,7.023,5.7,5.244c-.009-.009-.019-.016-.028-.025a3.569,3.569,0,0,0,.509-1.851A3.239,3.239,0,0,0,3.091,0,3.239,3.239,0,0,0,0,3.368,3.239,3.239,0,0,0,3.091,6.736a2.9,2.9,0,0,0,1.7-.555c.008.01.014.021.023.03l1.634,1.78a.593.593,0,0,0,.889,0A.729.729,0,0,0,7.335,7.023ZM3.091,5.568a2.116,2.116,0,0,1-2.02-2.2,2.116,2.116,0,0,1,2.02-2.2,2.116,2.116,0,0,1,2.02,2.2A2.116,2.116,0,0,1,3.091,5.568Z" transform="translate(0 0)" fill="#005b9e" fill-rule="evenodd"/>
    </g>
  </g>
</svg>
