<svg xmlns="http://www.w3.org/2000/svg" width="20.19" height="22.01" viewBox="0 0 20.19 22.01">
  <g id="Agrupar_718" data-name="Agrupar 718" transform="translate(-0.001 0)">
    <g id="Agrupar_717" data-name="Agrupar 717">
      <rect id="Ret창ngulo_1637" data-name="Ret창ngulo 1637" width="4.179" height="1.718" transform="translate(8.674 5.24)" fill="#005b9e"/>
      <path id="Caminho_659" data-name="Caminho 659" d="M1.74,19.415V2.577a.827.827,0,0,1,.789-.859H13.8a.827.827,0,0,1,.789.859v8.415l1.577-1.767V2.577A2.481,2.481,0,0,0,13.8,0H2.529A2.481,2.481,0,0,0,.163,2.577V19.415a2.481,2.481,0,0,0,2.366,2.577h6.02l.359-1.718H2.529A.827.827,0,0,1,1.74,19.415Z" transform="translate(-0.163)" fill="#005b9e"/>
      <rect id="Ret창ngulo_1638" data-name="Ret창ngulo 1638" width="4.179" height="1.718" transform="translate(8.674 10.395)" fill="#005b9e"/>
      <path id="Caminho_660" data-name="Caminho 660" d="M260.4,250.321l-5.3,5.935a3.1,3.1,0,0,0-.669,1.184l-.012.039-.854,4.091,3.765-.918.037-.013a2.767,2.767,0,0,0,1.092-.733l5.3-5.934Zm-3.057,8.373a1.224,1.224,0,0,1-.093.09l-1.114-1.214a1.253,1.253,0,0,1,.085-.1l4.2-4.7,1.125,1.223Z" transform="translate(-243.567 -239.56)" fill="#005b9e"/>
      <path id="Caminho_661" data-name="Caminho 661" d="M84.375,200.6l-1.93,2.385-.96-.982-1.08,1.252,2.147,2.2,3.006-3.715Z" transform="translate(-77.239 -191.979)" fill="#005b9e"/>
      <path id="Caminho_662" data-name="Caminho 662" d="M84.375,79.706l-1.93,2.385-.96-.982L80.4,82.361l2.147,2.2,3.006-3.715Z" transform="translate(-77.239 -76.28)" fill="#005b9e"/>
      <path id="Caminho_663" data-name="Caminho 663" d="M81.485,321.905l-1.08,1.253,2.147,2.2,3.006-3.714L84.375,320.5l-1.93,2.385Z" transform="translate(-77.239 -306.725)" fill="#005b9e"/>
    </g>
  </g>
</svg>
