<svg xmlns="http://www.w3.org/2000/svg" width="40.861" height="18.124" viewBox="0 0 40.861 18.124">
  <g id="Agrupar_715" data-name="Agrupar 715" transform="translate(-418 -467.876)">
    <g id="car" transform="translate(422.356 476.665)" opacity="0.74">
      <rect id="Retângulo_1636" data-name="Retângulo 1636" width="23.647" height="2.489" rx="1.245" transform="translate(0)"/>
    </g>
    <g id="savings" transform="translate(418 476.286)">
      <g id="Agrupar_712" data-name="Agrupar 712" transform="translate(0 0.949)">
        <g id="Agrupar_711" data-name="Agrupar 711">
          <path id="Caminho_656" data-name="Caminho 656" d="M.28,305.681v8.765H3.467v-8.765Z" transform="translate(-0.28 -305.681)" fill="#005b9e"/>
        </g>
      </g>
      <g id="Agrupar_714" data-name="Agrupar 714" transform="translate(4.479 0)">
        <g id="Agrupar_713" data-name="Agrupar 713">
          <path id="Caminho_657" data-name="Caminho 657" d="M122.471,286.364l-5.377,1.478-4.581-1.117.306-1.255,4.255,1.038.01,0v-1.66l-5.949-1.49-5.435.843v7.061l3.141-.352,6.086,1.708,8.023-4.422Z" transform="translate(-105.701 -283.355)" fill="#ce9a21"/>
        </g>
      </g>
    </g>
    <g id="sedan-car-side-black-silhouette" transform="translate(434.802 467.876)">
      <path id="Caminho_658" data-name="Caminho 658" d="M23.629,168.715c0-1.1-3.906-1.286-5.7-1.477-7.954-5.112-13.681-1.43-15.516.354-1.4.908-2.411-.184-2.411,1.725,0,1.631-.184,2.078,1.52,2.174a2.034,2.034,0,0,0,4.05.023H17.934a2.035,2.035,0,0,0,4.049,0h1.345C24.77,171.514,23.629,171.765,23.629,168.715ZM4.581,167.438a7.473,7.473,0,0,1,4.837-2.032v2.087C6.836,167.5,4.515,167.5,4.581,167.438Zm5.677.051v-2.081a12.777,12.777,0,0,1,5.921,2.03S13.2,167.472,10.258,167.489Z" transform="translate(0.001 -164.634)" fill="#005b9e"/>
    </g>
  </g>
</svg>
