<svg id="pdf" xmlns="http://www.w3.org/2000/svg" width="28.715" height="31.326" viewBox="0 0 28.715 31.326">
  <path id="XMLID_4_" d="M43.715,10.838H39.365V6.773L32.14,0H15V31.326H39.365V26.738h4.351ZM41.1,24.128H22.831V13.449H41.1Z" transform="translate(-15)" fill="#ec0d24"/>
  <path id="XMLID_7_" d="M128.084,181.206h1.374a1.656,1.656,0,0,0,.736-.164,1.809,1.809,0,0,0,.573-.434,1.989,1.989,0,0,0,.368-.618,2.018,2.018,0,0,0,.131-.716,1.87,1.87,0,0,0-.139-.7,2.086,2.086,0,0,0-.384-.622,1.916,1.916,0,0,0-.585-.442,1.65,1.65,0,0,0-.74-.168h-2.462v5.807h1.129v-1.947Zm0-2.871h1.26a.731.731,0,0,1,.29.061.683.683,0,0,1,.249.184.969.969,0,0,1,.172.3,1.133,1.133,0,0,1,.065.4,1.048,1.048,0,0,1-.209.687.646.646,0,0,1-.519.254h-1.309Z" transform="translate(-117.213 -161.913)" fill="#ec0d24"/>
  <path id="XMLID_10_" d="M188.81,182.944a2.6,2.6,0,0,0,.9-.589,2.559,2.559,0,0,0,.577-.916,3.4,3.4,0,0,0,.2-1.2,3.467,3.467,0,0,0-.18-1.125,2.508,2.508,0,0,0-1.436-1.542,3.154,3.154,0,0,0-1.247-.229h-2.11v5.807h2.11A3.191,3.191,0,0,0,188.81,182.944Zm-2.164-4.609h.982a1.836,1.836,0,0,1,.732.139,1.494,1.494,0,0,1,.544.393,1.723,1.723,0,0,1,.335.605,2.473,2.473,0,0,1,.115.769,2.444,2.444,0,0,1-.115.761,1.8,1.8,0,0,1-.331.609,1.516,1.516,0,0,1-.54.4,1.768,1.768,0,0,1-.74.147h-.982Z" transform="translate(-170.68 -161.913)" fill="#ec0d24"/>
  <path id="XMLID_13_" d="M253.948,180.748h2.307v-.916h-2.307v-1.5h2.773v-.99h-3.9v5.807h1.129Z" transform="translate(-232.125 -161.913)" fill="#ec0d24"/>
</svg>
