<svg width="20" height="20" xmlns="http://www.w3.org/2000/svg">
 <g>
  <title>background</title>
  <rect fill="none" id="canvas_background" height="22" width="22" y="-1" x="-1"/>
  <g display="none" id="canvasGrid">
   <rect fill="url(#gridpattern)" stroke-width="0" y="0" x="0" height="100%" width="100%" id="svg_1"/>
  </g>
 </g>
 <g>
  <title>Layer 1</title>
  <defs>
   <clipPath id="svg_437">
    <path id="svg_498" d="m6635.14026,4824.39391c-1.294,6.65 -5.206,26.874 -5.172,28.23l49.184,-1.112s9.786,-12.483 7.7,-21.156c-0.254,-1.06 -32.5,-7.634 -49.107,-8.047a2.584,2.584 0 0 0 -2.609,2.086l0,0l0.004,-0.001z" fill="none"/>
   </clipPath>
   <clipPath id="svg_431">
    <path id="svg_497" d="m6635.97926,4832.27291c7.193,-2.509 37.7,-12.524 57.8,-9.35a1.135,1.135 0 0 1 0.918,1.389c-1.076,4.52 -5,20.806 -7.23,27.735a3.153,3.153 0 0 1 -2.834,2.179l-51.642,2.794l-3.023,-8.175l3.9,-14.475a3.452,3.452 0 0 1 2.107,-2.1l0.004,0.003z" fill="none"/>
   </clipPath>
   <clipPath id="svg_401">
    <path id="svg_496" d="m6770.81726,4628.18691c-61.954,0.225 -89.562,-0.208 -101.755,-0.682a3.846,3.846 0 0 1 -3.208,-5.715c7.844,-14.1 16.247,-27.69 20.135,-31.69a3.776,3.776 0 0 1 2.41,-1.132c3.926,-0.316 8.928,-0.482 15.227,-0.5c11.54,-0.042 26.339,0.408 42.007,0.885c12.576,0.382 25.554,0.776 38.972,1a3.829,3.829 0 0 1 2.581,1.049c4.848,4.613 18.138,17.878 25.053,30.9a3.853,3.853 0 0 1 -3.361,5.675c-8.663,0.066 -22.421,0.153 -38.061,0.21z" fill="none"/>
   </clipPath>
   <clipPath id="svg_386">
    <path id="svg_495" d="m6850.99326,4652.04891a1.26,1.26 0 0 1 -0.063,0.246a30.872,30.872 0 0 1 -8.833,2.93a37.85,37.85 0 0 1 -4.722,0.509s-68.3,15.665 -162.475,0.067a23.372,23.372 0 0 1 -5.408,-0.52a27.659,27.659 0 0 1 -4.124,-1.144a32.622,32.622 0 0 1 3.39,-13s1.082,-19.1 11.51,-30.947a26.194,26.194 0 0 1 12.7,-8.175s36.74,-11.113 39.256,-11.253s43.23,-9.945 96.762,12.088a24.675,24.675 0 0 1 7.433,5c5.568,5.2 12.154,15.19 11.759,33.165c0,0 3.2,8.156 2.815,11.038l0,-0.004z" fill="none"/>
   </clipPath>
   <clipPath id="svg_343">
    <path id="svg_494" d="m6994.71726,4611.11591s4.367,-4.524 21.771,-5.339c0,0 70.058,-2.227 79.648,0.462c0,0 12.69,2.772 19.2,10.825c0,0 18.668,19.656 1.217,24.791c0,0 -44.1,11.243 -124.349,1.016c0,0 -18.292,-2.375 -9.452,-16.308c0,0 9.342,-13.684 11.965,-15.447z" fill="none"/>
   </clipPath>
   <clipPath id="svg_286">
    <path id="svg_493" d="m6994.81726,4819.93691c1.3,6.686 5.233,27.017 5.2,28.38l-49.449,-1.118s-9.838,-12.549 -7.746,-21.269c0.256,-1.065 32.674,-7.674 49.368,-8.09a2.6,2.6 0 0 1 2.623,2.1l0.004,-0.003z" fill="none"/>
   </clipPath>
   <clipPath id="svg_280">
    <path id="svg_492" d="m7001.59326,4827.85691c-7.231,-2.523 -37.9,-12.59 -58.1,-9.4a1.141,1.141 0 0 0 -0.922,1.4c1.082,4.544 5.021,20.917 7.268,27.882a3.169,3.169 0 0 0 2.849,2.191l51.916,2.809l3.035,-8.218l-3.92,-14.552a3.47,3.47 0 0 0 -2.126,-2.112z" fill="none"/>
   </clipPath>
  </defs>
  <g stroke="null" id="svg_509">
   <g stroke="null" transform="matrix(0.6826524752631925,0,0,0.7615222385112926,-173.43914836184618,-107.31244134778973) " id="svg_506">
    <path stroke="null" fill="#004c84" d="m268.72367,141.06995c-8,0 -14.488,5.815 -14.488,12.988s6.486,12.988 14.488,12.988s14.488,-5.815 14.488,-12.988s-6.49,-12.98 -14.488,-12.988zm6.966,13.987l-5.851,0l0,5.5a1.121,1.121 0 0 1 -2.229,0l0,-5.5l-5.85,0a1.005,1.005 0 1 1 0,-2l5.851,0l0,-5a1.121,1.121 0 0 1 2.229,0l0,5l5.851,0a1.005,1.005 0 1 1 0,2l-0.001,0z" id="svg_507"/>
   </g>
  </g>
 </g>
</svg>