<svg xmlns="http://www.w3.org/2000/svg" width="24.351" height="22.829" viewBox="0 0 24.351 22.829">
  <g id="printer-" transform="translate(0 -0.5)">
    <g id="Agrupar_964" data-name="Agrupar 964" transform="translate(0 0.5)">
      <path id="Caminho_830" data-name="Caminho 830" d="M4,13.544V18.11H16.175V10.5H4Zm1.522-1.522h9.131v1.522H5.522Zm0,3.044h9.131v1.522H5.522Z" transform="translate(2.088 4.719)" fill="#005b9e"/>
      <path id="Caminho_831" data-name="Caminho 831" d="M16.175,5.066V.5H4V8.11H16.175Z" transform="translate(2.088 -0.5)" fill="#005b9e"/>
      <path id="Caminho_832" data-name="Caminho 832" d="M21.307,3.5H19.785V8.066H4.566V3.5H3.044A3.273,3.273,0,0,0,0,6.544v7.61A3.273,3.273,0,0,0,3.044,17.2H4.566V12.631H19.785V17.2h1.522a3.273,3.273,0,0,0,3.044-3.044V6.544A3.273,3.273,0,0,0,21.307,3.5Z" transform="translate(0 1.066)" fill="#005b9e"/>
    </g>
  </g>
</svg>
