<svg xmlns="http://www.w3.org/2000/svg" width="104.278" height="106.362" viewBox="0 0 104.278 106.362">
  <g id="project-management" transform="translate(0 0)">
    <g id="Agrupar_1523" data-name="Agrupar 1523" transform="translate(79.658 53.262)">
      <g id="Agrupar_1522" data-name="Agrupar 1522">
        <path id="Caminho_1086" data-name="Caminho 1086" d="M357.936,234.077a1.826,1.826,0,0,0-3.268.838l-1.013,7.1a1.783,1.783,0,0,1-.095.267,32.825,32.825,0,0,0,4.465-8.091Z" transform="translate(-353.559 -233.346)" fill="#dfdf59"/>
      </g>
    </g>
    <g id="Agrupar_1525" data-name="Agrupar 1525" transform="translate(20.512 9.615)">
      <g id="Agrupar_1524" data-name="Agrupar 1524">
        <path id="Caminho_1087" data-name="Caminho 1087" d="M151.858,96.005a2.023,2.023,0,0,1-.257-.016l-10.846-1.55a1.826,1.826,0,0,1-1.548-2.067h0l1.013-7.1a1.826,1.826,0,0,0-2.9-1.718l-5.741,4.3a1.826,1.826,0,0,1-2.556-.365h0l-6.574-8.765a1.826,1.826,0,0,1,.365-2.556l5.739-4.3a1.826,1.826,0,0,0-.838-3.269l-7.1-1.015a1.826,1.826,0,0,1-1.55-2.065v0l1.55-10.844a1.826,1.826,0,0,1,2.065-1.55h0l7.1,1.015a1.815,1.815,0,0,0,1.826-.878,1.788,1.788,0,0,0-.11-2.027l-4.3-5.737a1.826,1.826,0,0,1,.365-2.556l1.035-.776a33.482,33.482,0,0,0-5.029.135,32.868,32.868,0,0,0-13.991,60.338,10.47,10.47,0,0,1,4.952,8.77v7.379a5.478,5.478,0,0,0,5.478,5.478h14.608a5.478,5.478,0,0,0,5.478-5.478v-7.227a10.757,10.757,0,0,1,5.058-8.987,33.087,33.087,0,0,0,7.62-6.829A1.824,1.824,0,0,1,151.858,96.005Zm-22.721,22.775h-3.652V113.3h3.652Zm-3.652-9.13A11.657,11.657,0,0,0,118,98.768a25.564,25.564,0,0,1-4.311-45.441l1.937,3.09a21.912,21.912,0,0,0,3.692,38.954,15.278,15.278,0,0,1,9.82,14.281Z" transform="translate(-94.426 -42.12)" fill="#dfdf59"/>
      </g>
    </g>
    <g id="Agrupar_1527" data-name="Agrupar 1527" transform="translate(46.093 100.884)">
      <g id="Agrupar_1526" data-name="Agrupar 1526">
        <path id="Caminho_1088" data-name="Caminho 1088" d="M206.5,441.987v1.826a3.652,3.652,0,0,0,3.652,3.652h7.3a3.652,3.652,0,0,0,3.652-3.652v-1.826Z" transform="translate(-206.503 -441.987)" fill="#dfdf59"/>
      </g>
    </g>
    <g id="Agrupar_1529" data-name="Agrupar 1529" transform="translate(1.787 47.309)">
      <g id="Agrupar_1528" data-name="Agrupar 1528" transform="translate(0)">
        <path id="Caminho_1089" data-name="Caminho 1089" d="M45.281,231.626a34.554,34.554,0,0,1-3.121-2.281,10.934,10.934,0,1,1-11.042-15.886,34.773,34.773,0,0,1-1.446-6.192l-.32,1.519a3.652,3.652,0,0,1-5.644,2.257l-3.8-2.607-3.327,3.32,2.615,3.8a3.652,3.652,0,0,1-2.255,5.646l-4.552.959V226.5l4.552.959a3.652,3.652,0,0,1,2.253,5.648l-2.613,3.782,3.327,3.32,3.794-2.615a3.652,3.652,0,0,1,5.646,2.255l.957,4.559h4.34l.957-4.552a3.652,3.652,0,0,1,5.646-2.255l3.793,2.607,3.917-3.917A8.913,8.913,0,0,0,45.281,231.626Z" transform="translate(-12.391 -207.267)" fill="#dfdf59"/>
      </g>
    </g>
    <g id="Agrupar_1531" data-name="Agrupar 1531" transform="translate(46.093 93.58)">
      <g id="Agrupar_1530" data-name="Agrupar 1530">
        <rect id="Retângulo_1900" data-name="Retângulo 1900" width="14.608" height="3.652" fill="#dfdf59"/>
      </g>
    </g>
    <g id="Agrupar_1533" data-name="Agrupar 1533" transform="translate(49.014 4.353)">
      <g id="Agrupar_1532" data-name="Agrupar 1532">
        <path id="Caminho_1090" data-name="Caminho 1090" d="M269.278,46.194a5.478,5.478,0,0,1-2.511-9.806l4.278-3.21-4.382-5.843-4.278,3.208a5.478,5.478,0,0,1-8.712-5.149l.756-5.3L247.2,19.067l-.756,5.3a5.478,5.478,0,0,1-9.806,2.511l-3.21-4.286-5.843,4.382,3.208,4.278a5.478,5.478,0,0,1-5.158,8.71l-5.3-.756L219.3,46.433l5.3.756a5.478,5.478,0,0,1,2.511,9.806l-4.276,3.21,4.382,5.843,4.278-3.208A5.478,5.478,0,0,1,240.2,68l-.756,5.3,7.245,1.037.756-5.3a5.478,5.478,0,0,1,9.806-2.511l3.21,4.276,5.843-4.382-3.219-4.286a5.478,5.478,0,0,1,5.151-8.71l5.3.756,1.032-7.229ZM246.941,57.648A10.956,10.956,0,1,1,257.9,46.692,10.956,10.956,0,0,1,246.941,57.648Z" transform="translate(-219.303 -19.067)" fill="#dfdf59"/>
      </g>
    </g>
    <g id="Agrupar_1535" data-name="Agrupar 1535" transform="translate(88.09 68.016)">
      <g id="Agrupar_1534" data-name="Agrupar 1534">
        <rect id="Retângulo_1901" data-name="Retângulo 1901" width="12.782" height="3.652" fill="#dfdf59"/>
      </g>
    </g>
    <g id="Agrupar_1537" data-name="Agrupar 1537" transform="translate(85.096 77.568)">
      <g id="Agrupar_1536" data-name="Agrupar 1536" transform="translate(0 0)">
        <rect id="Retângulo_1902" data-name="Retângulo 1902" width="3.652" height="14.261" transform="matrix(0.64, -0.768, 0.768, 0.64, 0, 2.806)" fill="#dfdf59"/>
      </g>
    </g>
    <g id="Agrupar_1539" data-name="Agrupar 1539" transform="translate(77.135 82.624)">
      <g id="Agrupar_1538" data-name="Agrupar 1538">
        <rect id="Retângulo_1903" data-name="Retângulo 1903" width="3.652" height="12.782" fill="#dfdf59"/>
      </g>
    </g>
    <g id="Agrupar_1541" data-name="Agrupar 1541" transform="translate(0 27.898)">
      <g id="Agrupar_1540" data-name="Agrupar 1540" transform="translate(0 0)">
        <rect id="Retângulo_1904" data-name="Retângulo 1904" width="15.057" height="3.65" transform="translate(0 3.651) rotate(-14.035)" fill="#dfdf59"/>
      </g>
    </g>
    <g id="Agrupar_1543" data-name="Agrupar 1543" transform="translate(3.033 9.927)">
      <g id="Agrupar_1542" data-name="Agrupar 1542" transform="translate(0 0)">
        <rect id="Retângulo_1905" data-name="Retângulo 1905" width="3.65" height="15.707" transform="matrix(0.581, -0.814, 0.814, 0.581, 0, 2.97)" fill="#dfdf59"/>
      </g>
    </g>
    <g id="Agrupar_1545" data-name="Agrupar 1545" transform="translate(18.678 0)">
      <g id="Agrupar_1544" data-name="Agrupar 1544" transform="translate(0 0)">
        <rect id="Retângulo_1906" data-name="Retângulo 1906" width="3.652" height="15.077" transform="matrix(0.969, -0.248, 0.248, 0.969, 0, 0.905)" fill="#dfdf59"/>
      </g>
    </g>
  </g>
</svg>
