<svg xmlns="http://www.w3.org/2000/svg" width="26.245" height="23.652" viewBox="0 0 26.245 23.652">
  <g id="question-speech-bubble" transform="translate(0 -31.617)">
    <path id="Caminho_928" data-name="Caminho 928" d="M14.054,31.617A12.013,12.013,0,0,0,1.862,43.443a11.486,11.486,0,0,0,1.125,4.968L.1,53.894a.9.9,0,0,0,.073.954.809.809,0,0,0,.647.33.78.78,0,0,0,.218-.031l6.313-1.822a12.4,12.4,0,0,0,6.7,1.945,11.832,11.832,0,1,0,0-23.653Zm-.02,17.9a1.27,1.27,0,1,1,1.207-1.269A1.24,1.24,0,0,1,14.033,49.519ZM15.3,43.484c-.159.114-.268.2-.327.251V45.06a.938.938,0,1,1-1.873,0V43.632a2.148,2.148,0,0,1,1.144-1.774c.521-.374.865-.621.865-1.394a1.074,1.074,0,1,0-2.144,0,.938.938,0,1,1-1.873,0,3.028,3.028,0,0,1,2.946-3.1,3.028,3.028,0,0,1,2.945,3.1A3.41,3.41,0,0,1,15.3,43.484Z" transform="translate(0)" fill="#005b9e"/>
  </g>
</svg>
