<?xml version="1.0" standalone="no"?>
<!DOCTYPE svg>
<svg version="1.0" xmlns="http://www.w3.org/2000/svg"
 width="512.000000pt" height="512.000000pt" viewBox="0 0 512.000000 512.000000"
 preserveAspectRatio="xMidYMid meet">

<g transform="translate(0.000000,512.000000) scale(0.100000,-0.100000)"
fill="#ec0c23" stroke="none">
<path d="M422 5104 c-197 -53 -357 -214 -407 -412 -13 -51 -15 -317 -13 -2158
l3 -2099 24 -60 c66 -164 190 -287 351 -346 l65 -24 2115 0 2115 0 65 24 c164
60 291 187 351 351 l24 65 0 2115 0 2115 -24 65 c-59 161 -182 285 -346 351
l-60 24 -2105 2 c-1799 2 -2113 0 -2158 -13z m2776 -1341 l637 637 283 -282
282 -283 -637 -637 -638 -638 638 -638 637 -637 -282 -283 -283 -282 -637 637
-638 638 -638 -638 -637 -637 -283 282 -282 283 637 637 638 638 -638 638
-637 637 282 283 283 282 637 -637 638 -638 638 638z"/>
</g>
</svg>
