<svg xmlns="http://www.w3.org/2000/svg" width="16.547" height="16.547" viewBox="0 0 16.547 16.547">
  <path id="Caminho_509" data-name="Caminho 509" d="M8.273,0a8.273,8.273,0,1,0,8.273,8.273A8.274,8.274,0,0,0,8.273,0Zm0,15A6.722,6.722,0,1,1,15,8.273,6.722,6.722,0,0,1,8.273,15Zm0-11.367c-.593,0-1.041.309-1.041.809V9.019c0,.5.448.808,1.041.808s1.041-.321,1.041-.808V4.437C9.315,3.95,8.852,3.628,8.274,3.628Zm0,7.23a1.033,1.033,0,1,0,1.032,1.033A1.034,1.034,0,0,0,8.274,10.859Z" fill="#ec0d24"/>
</svg>
