<svg xmlns="http://www.w3.org/2000/svg" width="18.232" height="18.233" viewBox="0 0 18.232 18.233">
  <g id="Agrupar_736" data-name="Agrupar 736" transform="translate(-1605.351 -726.486)">
    <g id="Agrupar_797" data-name="Agrupar 797" transform="translate(-8.65 -0.65)">
      <path id="Caminho_673" data-name="Caminho 673" d="M17.232,1a3.292,3.292,0,0,0-2.415-1H3.422A3.293,3.293,0,0,0,1.006,1,3.293,3.293,0,0,0,0,3.419v11.4a3.293,3.293,0,0,0,1,2.416,3.293,3.293,0,0,0,2.416,1h11.4a3.425,3.425,0,0,0,3.418-3.419V3.419A3.293,3.293,0,0,0,17.232,1Z" transform="translate(1613.997 727.136)" fill="#ec0d24"/>
      <g id="close-cross" transform="translate(1617.615 730.68)">
        <path id="Caminho_674" data-name="Caminho 674" d="M7.2,5.381,10.383,2.2A1.288,1.288,0,1,0,8.561.378L5.38,3.559,2.2.378A1.288,1.288,0,1,0,.378,2.2l3.18,3.18L.378,8.561A1.288,1.288,0,0,0,2.2,10.383L5.38,7.2l3.181,3.181a1.288,1.288,0,1,0,1.822-1.822Z" transform="translate(0 -0.001)" fill="#fff"/>
      </g>
    </g>
  </g>
</svg>
