<svg xmlns="http://www.w3.org/2000/svg" width="19.804" height="19.802" viewBox="0 0 19.804 19.802">
  <g id="speedometer" transform="translate(0 -0.001)">
    <path id="Caminho_1933" data-name="Caminho 1933" d="M9.9,0a9.9,9.9,0,1,0,9.9,9.9A9.9,9.9,0,0,0,9.9,0Zm0,18.723a8.819,8.819,0,1,1,8.82-8.819A8.818,8.818,0,0,1,9.9,18.724ZM6.936,14.186H8.548v2.672H6.936Zm2.444,0h1.612v2.672H9.38Zm2.4,0h1.612v2.672H11.782Zm-.564-3.68a.825.825,0,0,1-1.649.052L6.658,6.934l3.736,2.748A.825.825,0,0,1,11.218,10.506ZM5.21,11.88l.715.716L4.583,13.939l-.716-.717Zm-.623-2.5h-1.9V8.37h1.9Zm.408-5.513L6.337,5.212l-.716.715L4.279,4.584Zm5.413.463H9.4v-1.9h1.012ZM14.523,6.31l-.717-.715L15.15,4.252l.715.716Zm2.884,2.06V9.382h-1.9V8.37Zm-2.538,3.713,1.344,1.342-.715.715L14.154,12.8Z" fill="#666"/>
  </g>
</svg>
