<svg class="lds-gear-set" width="100%" height="100%" xmlns="http://www.w3.org/2000/svg" xmlns:xlink="http://www.w3.org/1999/xlink" viewBox="0 0 100 100" preserveAspectRatio="xMidYMid" style="background: none;"><g transform="translate(50 50)"> <g transform="translate(-17 -17) scale(0.5)"> <g transform="rotate(305.453)">
<animateTransform attributeName="transform" type="rotate" values="0;360" keyTimes="0;1" dur="1.5s" begin="0s" repeatCount="indefinite"></animateTransform><path d="M37.25251669350676 -7.5 L47.25251669350676 -7.5 L47.25251669350676 7.5 L37.25251669350676 7.5 A38 38 0 0 1 33.35799047790687 18.20012283683478 L33.35799047790687 18.20012283683478 L41.01843490909665 24.627998933700173 L31.376620763798556 36.118665580484844 L23.716176332608775 29.69078948361945 A38 38 0 0 1 13.854889784925918 35.384205926480185 L13.854889784925918 35.384205926480185 L15.591371561595222 45.23228345660226 L0.8192552664120935 47.83700612160622 L-0.9172265102572107 37.98892859148414 A38 38 0 0 1 -12.131067818370088 36.01162581148074 L-12.131067818370088 36.01162581148074 L-17.131067818370084 44.67187984932513 L-30.121448875136657 37.17187984932514 L-25.12144887513666 28.511625811480744 A38 38 0 0 1 -32.44076396764965 19.788805754649363 L-32.44076396764965 19.788805754649363 L-41.83769017550873 23.209007187906053 L-46.967992325393766 9.113617876117436 L-37.571066117534684 5.693416442860747 A38 38 0 0 1 -37.571066117534684 -5.6934164428607374 L-37.571066117534684 -5.6934164428607374 L-46.967992325393766 -9.113617876117424 L-41.83769017550874 -23.209007187906046 L-32.44076396764966 -19.78880575464936 A38 38 0 0 1 -25.121448875136682 -28.511625811480727 L-25.121448875136682 -28.511625811480727 L-30.121448875136686 -37.17187984932511 L-17.1310678183701 -44.67187984932512 L-12.131067818370097 -36.011625811480734 A38 38 0 0 1 -0.9172265102572368 -37.98892859148414 L-0.9172265102572368 -37.98892859148414 L0.8192552664120629 -47.83700612160622 L15.59137156159521 -45.232283456602275 L13.854889784925911 -35.38420592648019 A38 38 0 0 1 23.716176332608754 -29.690789483619465 L23.716176332608754 -29.690789483619465 L31.376620763798535 -36.11866558048486 L41.01843490909665 -24.627998933700177 L33.35799047790687 -18.20012283683478 A38 38 0 0 1 37.252516693506756 -7.500000000000021 M0 -20A20 20 0 1 0 0 20 A20 20 0 1 0 0 -20" fill="#005b9e"></path></g></g> <g transform="translate(0 22) scale(0.4)"> <g transform="rotate(34.5467)">
<animateTransform attributeName="transform" type="rotate" values="360;0" keyTimes="0;1" dur="1.5s" begin="-0.08333333333333333s" repeatCount="indefinite"></animateTransform><path d="M37.25251669350676 -7.5 L47.25251669350676 -7.5 L47.25251669350676 7.5 L37.25251669350676 7.5 A38 38 0 0 1 33.35799047790687 18.20012283683478 L33.35799047790687 18.20012283683478 L41.01843490909665 24.627998933700173 L31.376620763798556 36.118665580484844 L23.716176332608775 29.69078948361945 A38 38 0 0 1 13.854889784925918 35.384205926480185 L13.854889784925918 35.384205926480185 L15.591371561595222 45.23228345660226 L0.8192552664120935 47.83700612160622 L-0.9172265102572107 37.98892859148414 A38 38 0 0 1 -12.131067818370088 36.01162581148074 L-12.131067818370088 36.01162581148074 L-17.131067818370084 44.67187984932513 L-30.121448875136657 37.17187984932514 L-25.12144887513666 28.511625811480744 A38 38 0 0 1 -32.44076396764965 19.788805754649363 L-32.44076396764965 19.788805754649363 L-41.83769017550873 23.209007187906053 L-46.967992325393766 9.113617876117436 L-37.571066117534684 5.693416442860747 A38 38 0 0 1 -37.571066117534684 -5.6934164428607374 L-37.571066117534684 -5.6934164428607374 L-46.967992325393766 -9.113617876117424 L-41.83769017550874 -23.209007187906046 L-32.44076396764966 -19.78880575464936 A38 38 0 0 1 -25.121448875136682 -28.511625811480727 L-25.121448875136682 -28.511625811480727 L-30.121448875136686 -37.17187984932511 L-17.1310678183701 -44.67187984932512 L-12.131067818370097 -36.011625811480734 A38 38 0 0 1 -0.9172265102572368 -37.98892859148414 L-0.9172265102572368 -37.98892859148414 L0.8192552664120629 -47.83700612160622 L15.59137156159521 -45.232283456602275 L13.854889784925911 -35.38420592648019 A38 38 0 0 1 23.716176332608754 -29.690789483619465 L23.716176332608754 -29.690789483619465 L31.376620763798535 -36.11866558048486 L41.01843490909665 -24.627998933700177 L33.35799047790687 -18.20012283683478 A38 38 0 0 1 37.252516693506756 -7.500000000000021 M0 -20A20 20 0 1 0 0 20 A20 20 0 1 0 0 -20" fill="#005b9e"></path></g></g> <g transform="translate(28 4) scale(0.3)"> <g transform="rotate(325.453)">
<animateTransform attributeName="transform" type="rotate" values="0;360" keyTimes="0;1" dur="1.5s" begin="-0.08333333333333333s" repeatCount="indefinite"></animateTransform><path d="M37.25251669350676 -7.5 L47.25251669350676 -7.5 L47.25251669350676 7.5 L37.25251669350676 7.5 A38 38 0 0 1 33.35799047790687 18.20012283683478 L33.35799047790687 18.20012283683478 L41.01843490909665 24.627998933700173 L31.376620763798556 36.118665580484844 L23.716176332608775 29.69078948361945 A38 38 0 0 1 13.854889784925918 35.384205926480185 L13.854889784925918 35.384205926480185 L15.591371561595222 45.23228345660226 L0.8192552664120935 47.83700612160622 L-0.9172265102572107 37.98892859148414 A38 38 0 0 1 -12.131067818370088 36.01162581148074 L-12.131067818370088 36.01162581148074 L-17.131067818370084 44.67187984932513 L-30.121448875136657 37.17187984932514 L-25.12144887513666 28.511625811480744 A38 38 0 0 1 -32.44076396764965 19.788805754649363 L-32.44076396764965 19.788805754649363 L-41.83769017550873 23.209007187906053 L-46.967992325393766 9.113617876117436 L-37.571066117534684 5.693416442860747 A38 38 0 0 1 -37.571066117534684 -5.6934164428607374 L-37.571066117534684 -5.6934164428607374 L-46.967992325393766 -9.113617876117424 L-41.83769017550874 -23.209007187906046 L-32.44076396764966 -19.78880575464936 A38 38 0 0 1 -25.121448875136682 -28.511625811480727 L-25.121448875136682 -28.511625811480727 L-30.121448875136686 -37.17187984932511 L-17.1310678183701 -44.67187984932512 L-12.131067818370097 -36.011625811480734 A38 38 0 0 1 -0.9172265102572368 -37.98892859148414 L-0.9172265102572368 -37.98892859148414 L0.8192552664120629 -47.83700612160622 L15.59137156159521 -45.232283456602275 L13.854889784925911 -35.38420592648019 A38 38 0 0 1 23.716176332608754 -29.690789483619465 L23.716176332608754 -29.690789483619465 L31.376620763798535 -36.11866558048486 L41.01843490909665 -24.627998933700177 L33.35799047790687 -18.20012283683478 A38 38 0 0 1 37.252516693506756 -7.500000000000021 M0 -20A20 20 0 1 0 0 20 A20 20 0 1 0 0 -20" fill="#005b9e"></path></g></g></g></svg>
