<svg width="28" height="22.000000000000004" xmlns="http://www.w3.org/2000/svg">
 <g>
  <title>background</title>
  <rect x="-1" y="-1" width="30" height="24" id="canvas_background" fill="none"/>
 </g>

 <g>
  <title>Layer 1</title>
  <g stroke="null" fill="none" fill-rule="evenodd" id="svg_1">
   <g stroke="null" fill="#005B9E" id="svg_2">
    <path stroke="null" d="m23.2483,14.734924c-0.59794,0 -1.08436,-0.421455 -1.08436,-0.939484c0,-0.518084 0.48642,-0.939539 1.08436,-0.939539c0.59795,0 1.08437,0.421455 1.08437,0.939539c0,0.518029 -0.48642,0.939484 -1.08437,0.939484m4.2803,-2.767689l-4.77398,0c-1.16344,0 -2.11002,0.820105 -2.11002,1.828205c0,1.008054 0.94658,1.828205 2.11002,1.828205l4.77398,0c0.26795,0 0.48594,-0.188929 0.48594,-0.421034l0,-2.814333c0,-0.232169 -0.21799,-0.421043 -0.48594,-0.421043m-22.90284,-6.394887l18.06158,0l-2.6311,-5.113364c-0.2009,-0.390395 -0.729,-0.565753 -1.17951,-0.391741l-14.25097,5.505104zm-2.39951,-3.857748c-1.22751,0 -2.22625,0.865248 -2.22625,1.928869c0,0.929683 0.76866,1.717748 1.79598,1.892228l9.89189,-3.821097l-9.46162,0zm21.80608,3.857748l0,-3.083848c0,-0.42744 -0.3999,-0.773872 -0.89317,-0.773872l-1.13295,0l1.98503,3.857721l0.04109,0zm-9.35157,9.789386c-0.05466,0.558953 -0.3213,1.070229 -0.75074,1.439722c-0.26503,0.227932 -0.68416,0.479602 -1.29461,0.564929l0,0.742822c0,0.28489 -0.26658,0.515915 -0.59545,0.515915c-0.3288,0 -0.59544,-0.231025 -0.59544,-0.515915l0,-0.794106c-1.35428,-0.310166 -1.97045,-1.417841 -1.99867,-1.469949c-0.13987,-0.257857 -0.01185,-0.56514 0.28581,-0.686331c0.29659,-0.120514 0.65005,-0.010936 0.79069,0.245164c0.01138,0.020023 0.51066,0.881968 1.49784,0.954501c0.44933,0.033228 0.80927,-0.064334 1.07067,-0.289218c0.22592,-0.194347 0.37293,-0.483986 0.4033,-0.794673c0.02828,-0.288806 -0.04752,-0.521689 -0.22508,-0.692096c-0.2252,-0.216172 -0.63575,-0.351804 -1.1872,-0.392308c-0.88132,-0.064691 -1.53112,-0.351493 -1.93138,-0.852244c-0.3144,-0.393388 -0.45052,-0.908635 -0.39359,-1.490027c0.05424,-0.554817 0.33422,-1.047158 0.78837,-1.386269c0.20209,-0.150905 0.49684,-0.313158 0.89924,-0.40943l0,-0.798636c0,-0.28489 0.26664,-0.515924 0.59544,-0.515924c0.32887,0 0.59545,0.231034 0.59545,0.515924l0,0.737239c0.60795,0.078006 1.12729,0.38075 1.50796,0.8814c0.27938,0.367535 0.3874,0.718305 0.39883,0.757107c0.0811,0.276169 -0.11153,0.556986 -0.43021,0.62725c-0.31904,0.069907 -0.64284,-0.096629 -0.72394,-0.372697c-0.00167,-0.005418 -0.26301,-0.825422 -0.98576,-0.878508c-0.45331,-0.033064 -0.82654,0.048914 -1.0796,0.237898c-0.21668,0.161841 -0.35137,0.407517 -0.37924,0.691785c-0.0231,0.236809 -0.00965,0.570557 0.18608,0.815465c0.18828,0.235573 0.54263,0.374097 1.05298,0.411544c0.87007,0.063922 1.53303,0.309141 1.97045,0.728893c0.40174,0.385545 0.58425,0.894084 0.5278,1.470773m8.07388,-4.426365l3.69271,0l0,-3.55731c0,-0.427385 -0.39984,-0.773872 -0.89317,-0.773872l-23.32787,0c-0.84964,0 -1.62782,-0.269982 -2.22625,-0.716301l0,14.155344c0,1.065369 0.99672,1.929016 2.22637,1.929016l23.32775,0c0.49333,0 0.89317,-0.346487 0.89317,-0.773872l0,-4.542916l-3.64264,0c-1.8114,0 -3.32293,-1.246309 -3.35056,-2.815577c-0.02817,-1.59728 1.46324,-2.90451 3.30049,-2.90451" id="svg_3"/>
   </g>
  </g>
 </g>
</svg>