<svg xmlns="http://www.w3.org/2000/svg" width="90.379" height="90.379" viewBox="0 0 90.379 90.379">
  <g id="stop" transform="translate(0 0)">
    <ellipse id="Elipse_256" data-name="Elipse 256" cx="45.19" cy="45.19" rx="45.19" ry="45.19" transform="translate(0 0)" fill="#e24c4b"/>
    <path id="Caminho_1130" data-name="Caminho 1130" d="M79.351,116.1A36.717,36.717,0,1,1,116.067,79.38,36.643,36.643,0,0,1,79.351,116.1Z" transform="translate(-34.167 -34.191)" fill="#fff"/>
    <path id="Caminho_1131" data-name="Caminho 1131" d="M140.412,104.177V137.5a5.825,5.825,0,0,1-6.778,5.649,47.1,47.1,0,0,0-17.793,0c-2.26.282-5.084-.565-6.214-3.107-4.236-9.885-1.412-4.519-12.427-23.16a3.924,3.924,0,1,1,6.778-3.954l4.8,8.191v-20.9a3.355,3.355,0,0,1,2.824-3.389,3.046,3.046,0,0,1,3.389,3.107V116.6c0,.565.565.847,1.13.847a.749.749,0,0,0,.847-.847V95.7a3.355,3.355,0,0,1,2.824-3.389,3.046,3.046,0,0,1,3.389,3.107v20.9a.9.9,0,0,0,.847.847c.282,0,1.13-.282,1.13-.847V99.658a3.355,3.355,0,0,1,2.824-3.389,3.046,3.046,0,0,1,3.389,3.107v16.664a.749.749,0,0,0,.847.847c.565,0,1.13-.282,1.13-.847V103.612a3.355,3.355,0,0,1,2.824-3.389C138.717,100.788,140.412,102.2,140.412,104.177Z" transform="translate(-77.435 -73.957)" fill="#3f4448"/>
  </g>
</svg>
