<svg xmlns="http://www.w3.org/2000/svg" width="24.841" height="27.241" viewBox="0 0 24.841 27.241">
  <g id="tax" transform="translate(-13.085)">
    <path id="Caminho_881" data-name="Caminho 881" d="M127.681,146.286a7.165,7.165,0,1,0,7.165-7.165A7.165,7.165,0,0,0,127.681,146.286Zm4.366-2.8a.953.953,0,1,1-.28.674A.961.961,0,0,1,132.047,143.488Zm5.6,5.6a.953.953,0,1,1,.279-.674A.961.961,0,0,1,137.645,149.084Zm-.013-5.584a.954.954,0,0,1,0,1.349l-4.222,4.222a.954.954,0,1,1-1.349-1.349l4.222-4.222A.954.954,0,0,1,137.632,143.5Z" transform="translate(-104.085 -126.361)" fill="#009e00"/>
    <path id="Caminho_882" data-name="Caminho 882" d="M21.688,19.925a9.083,9.083,0,0,1,9.073-9.073q.249,0,.494.014V.954A.954.954,0,0,0,30.3,0H14.039a.954.954,0,0,0-.954.954V26.288a.954.954,0,0,0,.954.954H25.4A9.065,9.065,0,0,1,21.688,19.925ZM18.479,5.067h6.756a.954.954,0,1,1,0,1.908H18.479a.954.954,0,0,1,0-1.908Zm0,5.067h6.756a.954.954,0,1,1,0,1.908H18.479a.954.954,0,0,1,0-1.908Zm1.689,6.974H18.479a.954.954,0,0,1,0-1.908h1.689a.954.954,0,1,1,0,1.908Z" fill="#009e00"/>
  </g>
</svg>
