<svg xmlns="http://www.w3.org/2000/svg" width="26.099" height="25.786" viewBox="0 0 26.099 25.786">
  <g id="Group_1751" data-name="Group 1751" transform="translate(-399 -369)">
    <g id="Group_882" data-name="Group 882" transform="translate(399 369)">
      <path id="Path_782" data-name="Path 782" d="M11,0A11,11,0,1,1,0,11,11,11,0,0,1,11,0Z" fill="#fff"/>
      <path id="Path_769" data-name="Path 769" d="M11,2.212A9.483,9.483,0,1,1,1.517,11.7,9.494,9.494,0,0,1,11,2.212M11,.7a11,11,0,1,0,11,11A11,11,0,0,0,11,.7Z" transform="translate(0 -0.695)" fill="#033333"/>
      <g id="Group_881" data-name="Group 881" transform="translate(2.276 2.23)">
        <path id="Path_770" data-name="Path 770" d="M28.379,6.573A.379.379,0,0,0,28,6.952v.379a.379.379,0,0,0,.759,0V6.952A.379.379,0,0,0,28.379,6.573Z" transform="translate(-19.655 -6.573)" fill="#033333"/>
        <path id="Path_771" data-name="Path 771" d="M28.379,49.573a.379.379,0,0,0-.379.379v.379a.379.379,0,1,0,.759,0v-.379A.379.379,0,0,0,28.379,49.573Z" transform="translate(-19.655 -33.262)" fill="#033333"/>
        <path id="Path_772" data-name="Path 772" d="M49.759,28.573h-.379a.379.379,0,1,0,0,.759h.379a.379.379,0,0,0,0-.759Z" transform="translate(-32.689 -20.228)" fill="#033333"/>
        <path id="Path_773" data-name="Path 773" d="M6.759,28.573H6.379a.379.379,0,1,0,0,.759h.379a.379.379,0,1,0,0-.759Z" transform="translate(-6 -20.228)" fill="#033333"/>
        <path id="Path_774" data-name="Path 774" d="M43.228,13.128l-.268.268a.379.379,0,1,0,.536.536l.268-.268a.379.379,0,0,0-.536-.536Z" transform="translate(-28.871 -10.573)" fill="#033333"/>
        <path id="Path_775" data-name="Path 775" d="M12.823,43.534l-.268.268a.379.379,0,1,0,.536.536l.268-.268a.379.379,0,0,0-.536-.536Z" transform="translate(-10 -29.445)" fill="#033333"/>
        <path id="Path_776" data-name="Path 776" d="M43.5,43.534a.379.379,0,1,0-.536.536l.268.268a.379.379,0,0,0,.536-.536Z" transform="translate(-28.871 -29.445)" fill="#033333"/>
        <path id="Path_777" data-name="Path 777" d="M13.091,13.128a.379.379,0,1,0-.536.536l.268.268a.379.379,0,0,0,.536-.536Z" transform="translate(-10 -10.573)" fill="#033333"/>
      </g>
      <path id="Path_778" data-name="Path 778" d="M20.414,29.333H17.379a.379.379,0,0,1,0-.759h3.035a.379.379,0,0,1,0,.759Z" transform="translate(-10.552 -17.999)" fill="#033333"/>
      <path id="Path_779" data-name="Path 779" d="M28.379,19.505A.379.379,0,0,1,28,19.126V14.953a.379.379,0,0,1,.759,0v4.172A.379.379,0,0,1,28.379,19.505Z" transform="translate(-17.379 -9.309)" fill="#033333"/>
      <path id="Path_780" data-name="Path 780" d="M26.517,28.609a1.517,1.517,0,1,1,1.517-1.517A1.519,1.519,0,0,1,26.517,28.609Zm0-2.276a.759.759,0,1,0,.759.759A.759.759,0,0,0,26.517,26.333Z" transform="translate(-15.517 -16.137)" fill="#033333"/>
    </g>
    <g id="Group_1623" data-name="Group 1623" transform="translate(413.099 382.786)">
      <circle id="Ellipse_169" data-name="Ellipse 169" cx="6" cy="6" r="6" fill="#ed7161"/>
      <path id="Path_795" data-name="Path 795" d="M45.357,44.268l2.236-2.236a.632.632,0,0,0-.894-.894l-2.236,2.236-2.236-2.236a.632.632,0,0,0-.894.894l2.236,2.236L41.332,46.5a.632.632,0,1,0,.894.894l2.236-2.236L46.7,47.4a.632.632,0,0,0,.894-.894Z" transform="translate(-38.41 -38.215)" fill="#fff"/>
    </g>
  </g>
</svg>
