<svg xmlns="http://www.w3.org/2000/svg" width="650.528" height="422">
 <defs>
  <clipPath id="clip-path">
   <path fill="none" d="m57.172,268.932c-1.294,6.65 -5.206,26.874 -5.172,28.23l49.184,-1.112s9.786,-12.483 7.7,-21.156c-0.254,-1.06 -32.5,-7.634 -49.107,-8.047a2.584,2.584 0 0 0 -2.609,2.086l0,0l0.004,-0.001z" id="Caminho_1694"/>
  </clipPath>
  <clipPath id="clip-path-2">
   <path fill="none" d="m58.011,276.811c7.193,-2.509 37.7,-12.524 57.8,-9.35a1.135,1.135 0 0 1 0.918,1.389c-1.076,4.52 -5,20.806 -7.23,27.735a3.153,3.153 0 0 1 -2.834,2.179l-51.642,2.794l-3.023,-8.175l3.9,-14.475a3.452,3.452 0 0 1 2.107,-2.1l0.004,0.003z" id="Caminho_1696"/>
  </clipPath>
  <clipPath id="clip-path-3">
   <path fill="none" d="m192.849,72.725c-61.954,0.225 -89.562,-0.208 -101.755,-0.682a3.846,3.846 0 0 1 -3.208,-5.715c7.844,-14.1 16.247,-27.69 20.135,-31.69a3.776,3.776 0 0 1 2.41,-1.132c3.926,-0.316 8.928,-0.482 15.227,-0.5c11.54,-0.042 26.339,0.408 42.007,0.885c12.576,0.382 25.554,0.776 38.972,1a3.829,3.829 0 0 1 2.581,1.049c4.848,4.613 18.138,17.878 25.053,30.9a3.853,3.853 0 0 1 -3.361,5.675c-8.663,0.066 -22.421,0.153 -38.061,0.21z" id="Caminho_1784"/>
  </clipPath>
  <clipPath id="clip-path-4">
   <path fill="none" d="m273.025,96.587a1.26,1.26 0 0 1 -0.063,0.246a30.872,30.872 0 0 1 -8.833,2.93a37.85,37.85 0 0 1 -4.722,0.509s-68.3,15.665 -162.475,0.067a23.372,23.372 0 0 1 -5.408,-0.52a27.659,27.659 0 0 1 -4.124,-1.144a32.622,32.622 0 0 1 3.39,-13s1.082,-19.1 11.51,-30.947a26.194,26.194 0 0 1 12.7,-8.175s36.74,-11.113 39.256,-11.253s43.23,-9.945 96.762,12.088a24.675,24.675 0 0 1 7.433,5c5.568,5.2 12.154,15.19 11.759,33.165c0,0 3.2,8.156 2.815,11.038l0,-0.004z" id="Caminho_1789"/>
  </clipPath>
  <clipPath id="clip-path-5">
   <path fill="none" d="m416.749,55.654s4.367,-4.524 21.771,-5.339c0,0 70.058,-2.227 79.648,0.462c0,0 12.69,2.772 19.2,10.825c0,0 18.668,19.656 1.217,24.791c0,0 -44.1,11.243 -124.349,1.016c0,0 -18.292,-2.375 -9.452,-16.308c0,0 9.342,-13.684 11.965,-15.447z" id="Caminho_1882"/>
  </clipPath>
  <clipPath id="clip-path-6">
   <path fill="none" d="m416.849,264.475c1.3,6.686 5.233,27.017 5.2,28.38l-49.449,-1.118s-9.838,-12.549 -7.746,-21.269c0.256,-1.065 32.674,-7.674 49.368,-8.09a2.6,2.6 0 0 1 2.623,2.1l0.004,-0.003z" id="Caminho_1930"/>
  </clipPath>
  <clipPath id="clip-path-7">
   <path fill="none" d="m423.625,272.395c-7.231,-2.523 -37.9,-12.59 -58.1,-9.4a1.141,1.141 0 0 0 -0.922,1.4c1.082,4.544 5.021,20.917 7.268,27.882a3.169,3.169 0 0 0 2.849,2.191l51.916,2.809l3.035,-8.218l-3.92,-14.552a3.47,3.47 0 0 0 -2.126,-2.112z" id="Caminho_1932"/>
  </clipPath>
 </defs>
 <g>
  <g id="method-draw-image_2_">
   <g id="Agrupar_2814">
    <rect x="-1" y="-1" fill="#e5e5e5" rx="17" height="424" width="652.528" id="canvas_background"/>
   </g>
   <g id="Agrupar_2815">
    <g id="Agrupar_2809">
     <g id="Agrupar_2806">
      <path fill="#111" d="m259.346,261.724s4.254,-3.433 4.978,0.927l-4.978,-0.927z" id="Caminho_1682"/>
      <rect x="268.914993" y="253.399994" fill="#111" transform="rotate(37.172000885009766 268.9149780273438,253.39999389648435) " height="9.646" width="0.434" id="Retângulo_1960"/>
      <g id="Agrupar_2805">
       <path fill="#ebf1ee" d="m321.618,338.084s-0.088,1.488 -0.344,3.609c-0.6,4.987 -2.109,13.455 -5.512,14.27c0,0 -7.024,1.527 -8.375,0.7c0,0 0.554,-23.687 -18.852,-29.772c-11.495,-3.594 -33.82,-3.733 -37.119,30.72c0,0 -131.258,-3.165 -140.132,-1.724c0,0 -3.447,-0.624 -2.734,-6a27.515,27.515 0 0 0 -0.063,-3.025c-0.444,-7.2 -3.527,-25.017 -22.7,-29.089c0,0 -27.489,-6.321 -33.32,24.574c-0.271,1.452 -0.5,2.98 -0.659,4.6c-0.186,1.6 -0.3,3.3 -0.366,5.072c0,0 -10.543,2.448 -14.892,-1.11c0,0 -10.9,0.068 -11.1,-0.516l-0.443,-3.043s0.108,-0.125 0.285,-0.348c0.973,-1.188 3.906,-5.056 1.371,-5.359a58.874,58.874 0 0 1 -0.689,-18.665c1.462,-10.5 6.9,-21.752 23.255,-23.049c0,0 39.426,-7.965 50.223,-13.5c19.63,-10.063 52.895,-31.071 101.668,-28.339c21.062,1.183 55.818,0.742 83.972,8.308a11.959,11.959 0 0 1 1.9,4.028s19.491,20.615 20.62,21.659c0.942,0.869 1.857,1.727 2.716,2.592a33.337,33.337 0 0 1 3.591,4.107c3.257,4.509 4.48,9.72 1.063,17.6c-0.006,0 8.815,14.618 6.636,21.7z" id="Caminho_1649"/>
       <path fill="#2a2b2a" d="m58.175,353.259l-6.74,-1.244s-2.571,-34.415 28.356,-34.987c11.766,-0.217 31.626,7.651 28.862,37.187c0,0 -2.628,5.015 -8,5.808c0,0 15.291,-26.482 -14.209,-36.66c-10.4,-3.59 -30.933,4.125 -28.269,29.9l0,-0.004z" id="Caminho_1650"/>
       <path fill="#2a2b2a" d="m255.6,357.264l-4.336,0.223s-2.351,-30.807 27.186,-33.074c11.734,-0.9 31.293,8.949 28.935,32.246c0,0 -0.429,-2.337 -3.957,-1.227c0,0 0.18,-16.33 -17.3,-23.4c-10.206,-4.129 -30.081,-0.163 -30.528,25.232z" id="Caminho_1651"/>
       <ellipse fill="#3d4039" transform="rotate(-87.33699798583984 55.43299865722653,368.47000122070307) " ry="24.564" rx="23.796" cy="393.034001" cx="79.229001" id="Elipse_287"/>
       <ellipse fill="#d6e3dd" transform="matrix(0.046,-0.999,0.999,0.046,36.701,364.977) " ry="17.735" rx="17.508" cy="42.615089" cx="20.655632" id="Elipse_288"/>
       <path fill="#3d4039" d="m92.681,346.414a12.195,12.195 0 1 1 -3.127,-8.845a12.2,12.2 0 0 1 3.127,8.845z" id="Caminho_1652"/>
       <path fill="#d6e3dd" d="m95.452,349.35l0.5,-4.649l-9.572,-0.5c-0.052,-0.174 -0.11,-0.346 -0.178,-0.513l7.5,-5.576l-2.91,-3.66l-7.1,6.322c-0.157,-0.093 -0.319,-0.178 -0.484,-0.257l1.495,-9.451l-4.652,-0.474l-0.651,9.408a6.179,6.179 0 0 0 -0.708,0.17l-5.858,-7.589l-3.534,3.06l6.231,6.753a5.821,5.821 0 0 0 -0.723,1.309l-9.43,-0.823l-0.148,4.673l9.449,-0.008c0.047,0.149 0.1,0.3 0.156,0.439l-7.474,6.2l3.179,3.429l6.8,-6.732a6.187,6.187 0 0 0 0.8,0.392l-1.991,9.351l4.6,0.825l1.285,-9.88c0.181,-0.044 0.357,-0.1 0.531,-0.158l-0.109,0.081l5.515,7.986l3.759,-2.78l-6.2,-7.48a5.81,5.81 0 0 0 0.652,-1.17l9.272,1.3l-0.002,0.002z" id="Caminho_1653"/>
       <path stroke-width="0.1" stroke-miterlimit="10" stroke="#3d4039" fill="#c6c6c6" d="m79.389,342.7a1.331,1.331 0 1 1 -1.268,-1.392a1.331,1.331 0 0 1 1.268,1.392z" id="Caminho_1654"/>
       <path stroke-width="0.1" stroke-miterlimit="10" stroke="#3d4039" fill="#c6c6c6" d="m85.083,343.6a1.331,1.331 0 1 1 -1.268,-1.391a1.331,1.331 0 0 1 1.268,1.391z" id="Caminho_1655"/>
       <path stroke-width="0.1" stroke-miterlimit="10" stroke="#3d4039" fill="#c6c6c6" d="m84.068,349.227a1.331,1.331 0 1 1 -1.268,-1.392a1.331,1.331 0 0 1 1.268,1.392z" id="Caminho_1656"/>
       <path stroke-width="0.1" stroke-miterlimit="10" stroke="#3d4039" fill="#c6c6c6" d="m78.316,348.324a1.331,1.331 0 1 1 -1.268,-1.389a1.331,1.331 0 0 1 1.268,1.389z" id="Caminho_1657"/>
       <path fill="#3d4039" d="m304.294,353.906c-0.61,13.128 -12.091,23.259 -25.643,22.629s-24.043,-11.783 -23.432,-24.911s12.091,-23.259 25.643,-22.629s24.038,11.785 23.432,24.911z" id="Caminho_1658"/>
       <ellipse fill="#d6e3dd" transform="rotate(-87.33100128173828 260.3840026855469,369.89599609375) " ry="17.735" rx="17.508" cy="387.630996" cx="277.892003" id="Elipse_289"/>
       <path fill="#3d4039" d="m291.36,353.335a12.195,12.195 0 1 1 -3.127,-8.845a12.2,12.2 0 0 1 3.127,8.845z" id="Caminho_1659"/>
       <path fill="#d6e3dd" d="m294.131,356.272l0.5,-4.649l-9.572,-0.5c-0.052,-0.174 -0.11,-0.346 -0.178,-0.513l7.5,-5.576l-2.91,-3.66l-7.1,6.322c-0.157,-0.093 -0.319,-0.178 -0.484,-0.257l1.495,-9.451l-4.652,-0.474l-0.65,9.41a6.241,6.241 0 0 0 -0.708,0.17l-5.858,-7.589l-3.537,3.058l6.231,6.753a5.807,5.807 0 0 0 -0.723,1.309l-9.429,-0.823l-0.148,4.673l9.449,-0.008c0.047,0.149 0.1,0.3 0.157,0.439l-7.474,6.2l3.179,3.429l6.8,-6.732a6.194,6.194 0 0 0 0.8,0.392l-1.991,9.351l4.6,0.825l1.285,-9.88c0.181,-0.044 0.357,-0.1 0.531,-0.158l-0.109,0.081l5.515,7.986l3.759,-2.78l-6.2,-7.48a5.814,5.814 0 0 0 0.652,-1.17l9.27,1.3l0,0.002z" id="Caminho_1660"/>
       <path stroke-width="0.1" stroke-miterlimit="10" stroke="#3d4039" fill="#c6c6c6" d="m278.067,349.618a1.331,1.331 0 1 1 -1.268,-1.392a1.331,1.331 0 0 1 1.268,1.392z" id="Caminho_1661"/>
       <path stroke-width="0.1" stroke-miterlimit="10" stroke="#3d4039" fill="#c6c6c6" d="m283.762,350.52a1.331,1.331 0 1 1 -1.268,-1.392a1.331,1.331 0 0 1 1.268,1.392z" id="Caminho_1662"/>
       <path stroke-width="0.1" stroke-miterlimit="10" stroke="#3d4039" fill="#c6c6c6" d="m282.747,356.151a1.331,1.331 0 1 1 -1.268,-1.392a1.331,1.331 0 0 1 1.268,1.392z" id="Caminho_1663"/>
       <path stroke-width="0.1" stroke-miterlimit="10" stroke="#3d4039" fill="#c6c6c6" d="m276.995,355.246a1.331,1.331 0 1 1 -1.268,-1.392a1.331,1.331 0 0 1 1.268,1.392z" id="Caminho_1664"/>
       <path fill="#4d4f5c" d="m310.32,294.673c-0.019,0 -0.037,0.008 -0.056,0.007c-2.945,0.327 -13.639,-2.331 -13.639,-2.331c-6,-0.186 -13.153,-0.232 -21.156,-0.168c-44.737,0.376 -116.141,4.259 -162.463,7.046c-26.783,1.628 -45.187,2.877 -45.187,2.877c-13.419,9.573 -41.762,20.918 -41.762,20.918l-0.09,-0.05c1.462,-10.5 6.9,-21.752 23.255,-23.049c0,0 6.859,-1.387 15.649,-3.407c12.266,-2.813 28.279,-6.87 34.574,-10.091c19.63,-10.063 52.9,-31.071 101.668,-28.339c21.062,1.183 55.818,0.742 83.972,8.308a11.959,11.959 0 0 1 1.9,4.028l0.009,0.01c0.486,0.514 17.079,18.065 20.169,21.2c0.221,0.233 0.372,0.379 0.443,0.447c0.94,0.874 1.856,1.731 2.714,2.594z" id="Caminho_1665"/>
       <path fill="#4d4f5c" d="m195.489,304.293c-0.092,1.98 -4.308,3.392 -9.417,3.154s-9.176,-2.035 -9.084,-4.015s4.308,-3.392 9.417,-3.154s9.176,2.031 9.084,4.015z" id="Caminho_1666"/>
       <path fill="#4d4f5c" d="m268.88,300.909c-0.092,1.98 -4.308,3.392 -9.417,3.154s-9.176,-2.035 -9.084,-4.015s4.308,-3.392 9.417,-3.154s9.177,2.035 9.084,4.015z" id="Caminho_1667"/>
       <path fill="#4d4f5c" d="m296.687,310.972a5.942,5.942 0 1 1 -5.659,-6.212a5.942,5.942 0 0 1 5.659,6.212z" id="Caminho_1668"/>
       <path fill="#bebebe" d="m114.874,283.588s-28.489,14.589 -16.618,15.141l14.75,0.5s-0.614,-8.8 1.868,-15.641z" id="Caminho_1669"/>
       <path fill="#bebebe" d="m314.976,316.38c-4.959,0.391 -20.339,-14.545 -20.339,-14.545c-5.817,-7.687 18.687,-3.145 18.687,-3.145l0.589,0.092c3.257,4.509 4.479,9.718 1.063,17.598z" id="Caminho_1670"/>
       <path fill="#d6e3dd" d="m141.657,272.155c7.193,-2.509 37.7,-12.524 57.8,-9.35a1.135,1.135 0 0 1 0.918,1.389c-1.076,4.52 -4.995,20.806 -7.23,27.735a3.153,3.153 0 0 1 -2.834,2.179l-51.642,2.792l-3.019,-8.175l3.9,-14.475a3.452,3.452 0 0 1 2.107,-2.1l0,0.005z" id="Caminho_1671"/>
       <path fill="#d6e3dd" d="m141.657,272.155c7.193,-2.509 37.7,-12.524 57.8,-9.35a1.135,1.135 0 0 1 0.918,1.389c-1.076,4.52 -4.995,20.806 -7.23,27.735a3.153,3.153 0 0 1 -2.834,2.179l-51.642,2.792l-3.019,-8.175l3.9,-14.475a3.452,3.452 0 0 1 2.107,-2.1l0,0.005z" id="Caminho_1672"/>
       <path fill="#d6e3dd" d="m141.657,272.155c7.193,-2.509 37.7,-12.524 57.8,-9.35a1.135,1.135 0 0 1 0.918,1.389c-1.076,4.52 -4.995,20.806 -7.23,27.735a3.153,3.153 0 0 1 -2.834,2.179l-51.642,2.792l-3.019,-8.175l3.9,-14.475a3.452,3.452 0 0 1 2.107,-2.1l0,0.005z" id="Caminho_1673"/>
       <path fill="#d6e3dd" d="m141.657,272.155c7.193,-2.509 37.7,-12.524 57.8,-9.35a1.135,1.135 0 0 1 0.918,1.389c-1.076,4.52 -4.995,20.806 -7.23,27.735a3.153,3.153 0 0 1 -2.834,2.179l-51.642,2.792l-3.019,-8.175l3.9,-14.475a3.452,3.452 0 0 1 2.107,-2.1l0,0.005z" id="Caminho_1674"/>
       <path fill="#4d4f5c" d="m51.8,346.943c-0.186,1.6 -0.3,3.3 -0.366,5.072c0,0 -10.543,2.448 -14.892,-1.11c0,0 -10.9,0.068 -11.1,-0.516l-0.442,-3.043s22.575,0.364 26.318,-0.389a1.239,1.239 0 0 1 0.483,-0.015l-0.001,0.001z" id="Caminho_1675"/>
       <path fill="#4d4f5c" d="m35.794,344.492s-7.261,3.046 -10.51,2.508c0.973,-1.188 3.906,-5.056 1.371,-5.359c0,0 3.092,-16.663 10.1,-17.728c-0.004,-0.002 4.685,20.378 -0.961,20.579z" id="Caminho_1676"/>
       <path fill="#4d4f5c" d="m35.794,344.492c-1.34,-4.466 0.957,-20.582 0.957,-20.582s4.688,20.381 -0.957,20.582z" id="Caminho_1677"/>
       <path fill="#bebebe" d="m253.7,331.756c-3.09,-0.144 -4.639,-6.7 -4.639,-6.7c0.616,-6.461 -5.894,-5.281 -8.372,-5.951c-39.977,-10.817 -111.1,-0.673 -126.147,-0.434c-1.238,0.02 -11.8,4.053 -11.8,4.279c-6.722,-8.021 -17.524,-10.293 -24.314,-9.842c-29.077,1.932 -26.233,29.066 -26.233,29.066s0.09,0.06 0.261,0.179c5.831,-30.9 33.32,-24.574 33.32,-24.574a28.106,28.106 0 0 1 22.7,29.089c0.059,-0.47 13.7,2.241 15.177,1.948l73.128,1.9l40.063,1.047s6.491,1.359 10.109,-7.465c0.177,-0.409 0.336,-0.847 0.5,-1.312a83.148,83.148 0 0 1 6.647,-9.971c0.024,-0.8 -0.1,-1.246 -0.4,-1.259z" id="Caminho_1678"/>
       <path fill="#bebebe" d="m124.294,345.132s58.029,-11.9 103.769,-3.749l-103.769,3.749z" id="Caminho_1679"/>
       <path fill="#4d4f5c" d="m44.2,315.1s21.309,11.69 54.516,-17.975l-30.9,4.978s-13.191,8.151 -23.616,13l0,-0.003z" id="Caminho_1680"/>
       <path fill="#bebebe" d="m307.162,291.637c-0.273,-0.105 -0.564,-0.239 -0.863,-0.383a37.869,37.869 0 0 1 -19.306,-20.819c0.486,0.513 17.079,18.065 20.169,21.202z" id="Caminho_1681"/>
       <path fill="#4d4f5c" d="m321.27,341.694c-0.6,4.987 -2.109,13.455 -5.512,14.27c0,0 -7.024,1.527 -8.375,0.7c0,0 0.554,-23.687 -18.852,-29.772c-11.495,-3.594 -33.82,-3.733 -37.119,30.72c0,0 -131.258,-3.165 -140.132,-1.724c0,0 -3.447,-0.624 -2.734,-6c0,0 0.053,-1.536 -0.073,-3.406c0,0 118.252,-11.6 138.487,-2.19c0,0 11.475,-28.074 39.907,-21.5a31.376,31.376 0 0 1 18.656,12.455s9.788,8.8 15.457,6.513a0.91,0.91 0 0 1 0.29,-0.066z" id="Caminho_1683"/>
       <path fill="#eceff1" d="m69.835,299.128s29.759,-5.936 37.67,-11.594c0,0 -19.06,11.2 -9.319,10.532c54.256,-3.7 177.529,-6.281 177.542,-5.994c0.3,6.449 -208.4,10.091 -208.4,10.091s3.241,-0.935 2.507,-3.035z" id="Caminho_1684"/>
       <path fill="#bebebe" d="m285.086,266.4s-7.984,1.265 -10.017,2.81a2.073,2.073 0 0 1 -1.857,0.33a205.482,205.482 0 0 0 -33.678,-7.036s25.015,0.317 45.552,3.9l0,-0.004z" id="Caminho_1685"/>
       <path fill="#e0e9ef" d="m67.814,302.1l-0.291,0.292a4.482,4.482 0 0 1 -0.34,0.34c-12.82,12.589 -31.583,11.278 -31.583,11.278a14.047,14.047 0 0 1 5.438,-10.562a19.374,19.374 0 0 1 6.337,-3.326c0.486,-0.17 1,-0.316 1.518,-0.449c0,0 7.2,-1.129 15.988,-3.156l0.109,0.049s9.163,2.439 2.824,5.534z" id="Caminho_1686"/>
       <path fill="#707070" d="m246.961,344.292c-3.618,8.824 -10.109,7.465 -10.109,7.465l-40.064,-1.047l-73.128,-1.9a13.73,13.73 0 0 1 -3.768,0.279l-3.974,-3.246s104.868,-11.172 130.4,-1.758c0.217,0.08 0.443,0.141 0.643,0.207z" id="Caminho_1687"/>
       <path stroke-miterlimit="10" stroke="#4d4f5c" fill="none" d="m262.654,325.146c-2.95,1.448 -5.98,4.6 -8.551,7.862a83.147,83.147 0 0 0 -6.647,9.971c-0.161,0.465 -0.32,0.9 -0.5,1.312c-3.618,8.824 -10.109,7.465 -10.109,7.465l-40.06,-1.05l-73.128,-1.9a13.727,13.727 0 0 1 -3.767,0.279c-6.345,-0.508 -5.192,-6.953 -5.192,-6.953c-2.87,-6.864 -3.8,-14.75 -3.849,-21.88a101.071,101.071 0 0 1 2.139,-21.074c9.05,-1.646 49.219,-3.459 87.347,-4.856c38.649,-1.419 75.22,-2.416 75.22,-2.416a33.262,33.262 0 0 1 -12.9,33.24l-0.003,0z" id="Caminho_1688"/>
       <path stroke-miterlimit="10" stroke="#4d4f5c" fill="none" d="m200.108,294.658s-7.459,45.772 -3.506,55.458" id="Caminho_1689"/>
       <path fill="#434443" d="m275.557,291.909a0.568,0.568 0 0 1 -0.087,0.274c-20.875,0.179 -47.562,1.116 -74.8,2.343c-31.121,1.417 -62.955,3.219 -87.664,4.7l-0.016,-0.047s-0.5,-16.589 5.414,-19.336c0,0 40.417,-22.909 89.793,-19.575c16.209,1.1 62.449,2.672 63.873,11.935c0,0 3.573,16.234 3.487,19.706z" id="Caminho_1690"/>
       <path fill="#d6e3dd" d="m214.132,265.45c-1.294,6.65 -5.206,26.874 -5.172,28.23l49.184,-1.112s9.786,-12.483 7.7,-21.156c-0.254,-1.06 -32.5,-7.634 -49.107,-8.047a2.584,2.584 0 0 0 -2.609,2.086l0,0l0.004,-0.001z" id="Caminho_1691"/>
       <path fill="#d6e3dd" d="m120.811,282.164c3.134,-2.563 10.7,-5.565 14.612,-6.981a0.83,0.83 0 0 1 1.1,0.933c-0.644,3.435 -2.478,12.831 -3.388,13.419c0,0 -9.856,2.632 -13.61,0.294c0,0 -0.936,-5.847 1.286,-7.665z" id="Caminho_1692"/>
       <path fill="#2a2b2a" d="m133.99,284.477s3.826,7.44 0.129,10.512c0,0 -10.724,1.355 -10.849,-5.912c0,0 0.764,-6.454 10.72,-4.6z" id="Caminho_1693"/>
       <g clip-path="url(#clip-path)" id="Agrupar_2777">
        <g opacity="0.57" id="Agrupar_2776">
         <rect x="248.011993" y="256.598999" fill="#fff" transform="rotate(41.75699996948242 248.01199340820304,256.59899902343756) " height="51.123" width="4.757" id="Retângulo_1961"/>
         <rect x="257.554001" y="259.588013" fill="#fff" transform="rotate(41.75699996948242 257.5540161132812,259.58801269531256) " height="51.123" width="10.61" id="Retângulo_1962"/>
        </g>
       </g>
       <path fill="#d6e3dd" d="m141.657,272.155c7.193,-2.509 37.7,-12.524 57.8,-9.35a1.135,1.135 0 0 1 0.918,1.389c-1.076,4.52 -4.995,20.806 -7.23,27.735a3.153,3.153 0 0 1 -2.834,2.179l-51.642,2.792l-3.019,-8.175l3.9,-14.475a3.452,3.452 0 0 1 2.107,-2.1l0,0.005z" id="Caminho_1695"/>
       <g clip-path="url(#clip-path-2)" id="Agrupar_2779">
        <g opacity="0.56" id="Agrupar_2778">
         <rect x="180.792999" y="254.391998" fill="#fff" transform="rotate(38.74300003051758 180.792999267578,254.39199829101568) " height="62.101" width="4.271" id="Retângulo_1963"/>
         <rect x="191.695007" y="254.016998" fill="#fff" transform="rotate(38.74300003051758 191.6950073242187,254.01699829101565) " height="62.101" width="16.639" id="Retângulo_1964"/>
        </g>
       </g>
      </g>
     </g>
     <g id="Agrupar_2807">
      <path fill="#595958" d="m93.608,165.188l6.636,-0.027a20.591,20.591 0 0 1 20.674,20.509l0.05,12.476a20.591,20.591 0 0 1 -20.508,20.673l-6.637,0.027a20.59,20.59 0 0 1 -20.673,-20.509l-0.05,-12.477a20.59,20.59 0 0 1 20.508,-20.672z" id="Caminho_1759"/>
      <path fill="#595958" transform="rotate(-0.20900000631809235 24.392999649047727,-1.2630000114440587) " d="m246.672,165.447l6.636,0a20.591,20.591 0 0 1 20.59,20.59l0,12.477a20.59,20.59 0 0 1 -20.59,20.59l-6.637,0a20.59,20.59 0 0 1 -20.59,-20.59l0,-12.477a20.591,20.591 0 0 1 20.591,-20.591l0,0.001z" id="Caminho_1760"/>
      <path stroke-miterlimit="10" stroke="#fff" fill="none" d="m97.253,99.757s6.538,-20.257 20.547,-22.422c0,0 43.39,-7.166 57.854,-5.1c0,0 35.08,-1.45 64.258,22.51c0,0 16.532,12.987 18.394,15.977c0,0 20.493,11.385 22.656,24.424c0,0 6.371,6.5 4.651,18.319c0,0 0.737,8.9 -0.491,10.4a11.686,11.686 0 0 0 1.336,4.135s-0.69,4.234 -10.037,3.386c0,0 -35.672,8.328 -48.376,5.73a65.13,65.13 0 0 1 -38.256,0.844s0.8,-22.218 -9.81,-30.995c0,0 -17.869,-17.213 -14.717,25.618c0,0 -52.326,-13.914 -54.318,-16.287c0,0 0.367,-32.53 -13.9,-29.3c0,0 -6.037,0.551 -3.85,19.981c0,0 -3.97,-0.779 -0.625,-26.576c0,0 3.02,-5.829 3.006,-9.8a27.811,27.811 0 0 1 1.678,-10.847l0,0.003z" id="Caminho_1761"/>
      <path fill="#bebebe" d="m284.308,179.751s-4.67,25.62 -30.6,26.77c0,0 -68.3,15.665 -162.475,0.067c0,0 -29.367,1.694 -29.513,-38.531c0,0 -5.114,-26.632 4.8,-51.77c0.024,-0.072 0.039,-0.111 0.039,-0.111s-0.3,-11.645 9.7,-24.645c0,0 8.816,-14.258 8.813,-14.854c0,0 19.1,-41.549 34.754,-48.553a218.71,218.71 0 0 1 41.266,-4.124s34.271,-0.259 54.132,3.773c0.207,0 12.734,0.089 33.192,32.825c0,0 17.84,28.777 19.164,30.63c0,0 15.943,13.6 14.555,31.369c-0.008,0.064 -0.008,0.135 -0.015,0.2c0.008,0.016 0.008,0.032 0.016,0.048c0.4,1.393 9.261,32.823 2.172,56.9l0,0.006z" id="Caminho_1762"/>
      <path stroke-miterlimit="10" stroke="#000" fill="none" d="m282.118,122.8" id="Caminho_1763"/>
      <path fill="#3d4039" d="m65,160.258s-3.1,-5.182 -3.074,0.772c0,0 -3.416,24.689 7.991,32.586c0,0 7.294,4.6 8.06,-3.072a22.859,22.859 0 0 0 -5.886,-17.844s-6.854,-11.287 -7.091,-12.442z" id="Caminho_1764"/>
      <path fill="#1c1c1c" d="m84.962,80.65a11.02,11.02 0 0 1 -2.062,2.742a26.793,26.793 0 0 1 -13.42,-4.623s-0.509,-4.563 -0.113,-4.763s1.751,-7.453 18.427,-6.22c0,0 0.1,7.59 -2.835,12.864l0.003,0z" id="Caminho_1765"/>
      <path fill="#1c1c1c" d="m271.61,73.37a0.766,0.766 0 0 1 -0.119,0.1a26.811,26.811 0 0 1 -13.257,4.613a21.1,21.1 0 0 1 -3.022,-3.657a54.153,54.153 0 0 1 -5.463,-11.293c0.2,-0.025 0.4,-0.057 0.587,-0.073c17.251,-2.2 20.97,5.354 21.36,5.551s-0.086,4.759 -0.086,4.759z" id="Caminho_1766"/>
      <path fill="#7a7974" d="m271.7,68.61l-14.979,0.5l-6.373,-5.931c0,-0.04 -0.008,-0.079 -0.008,-0.119c17.246,-2.202 20.966,5.35 21.36,5.55z" id="Caminho_1767"/>
      <path fill="#050505" d="m271.491,73.466a26.811,26.811 0 0 1 -13.257,4.613a21.1,21.1 0 0 1 -3.022,-3.657c2.488,0.078 14.314,0.378 16.279,-0.956z" id="Caminho_1768"/>
      <path fill="#7a7974" d="m87.8,67.787a31.278,31.278 0 0 1 -5.564,6.9c-2.903,2.392 -12.866,-0.687 -12.866,-0.687c0.4,-0.2 1.752,-7.451 18.427,-6.217l0.003,0.004z" id="Caminho_1769"/>
      <path fill="#050505" d="m84.962,80.65a11.02,11.02 0 0 1 -2.062,2.739a26.793,26.793 0 0 1 -13.417,-4.62s13.837,2.131 15.09,1.731a0.356,0.356 0 0 1 0.389,0.15z" id="Caminho_1770"/>
      <path fill="#4d4f5c" d="m284.308,179.75s-2.934,16.079 -17.047,23.33a32.424,32.424 0 0 1 -13.555,3.439s-68.3,15.665 -162.475,0.067a26.435,26.435 0 0 1 -9.532,-1.664c-8.585,-3.121 -19.89,-11.947 -19.981,-36.866c0,0 -5.114,-26.632 4.8,-51.77c-0.5,1.5 -6.022,18.5 -1.246,28.338c0,0 24.08,15.861 31.33,16.351a0.328,0.328 0 0 0 0.087,0.008s100.213,13.648 156.059,-2.354c12.911,-3.7 23.45,-8.985 29.838,-16.383c0,0 0.724,-14.864 -0.435,-19.345c0.577,2.038 9.172,33.039 2.157,56.849z" id="Caminho_1771"/>
      <path fill="#bebebe" d="m68.393,130.258s-3.738,9.209 -3.123,14.367c0,0 -5.426,-10.867 1.246,-28.338a27.542,27.542 0 0 0 1.877,13.971z" id="Caminho_1772"/>
      <path fill="#3d4039" d="m281.332,152.671s3.057,-5.2 3.079,0.75c0,0 3.6,24.663 -7.754,32.643c0,0 -7.26,4.657 -8.082,-3.014a22.858,22.858 0 0 1 5.756,-17.883s6.775,-11.336 7,-12.5l0.001,0.004z" id="Caminho_1774"/>
      <path fill="#eceff1" d="m278.118,181.524s-7.26,4.657 -8.082,-3.014a22.1,22.1 0 0 1 0.361,-7.344a23.142,23.142 0 0 0 -1.817,11.882c0.822,7.671 8.082,3.014 8.082,3.014c3.76,-2.644 5.873,-7.12 7.027,-11.923a16.618,16.618 0 0 1 -5.57,7.385l0,0l-0.001,0z" id="Caminho_1775"/>
      <path fill="#d6e3dd" d="m281.1,176.95c-2.647,3.287 -6.7,4.418 -9.043,2.528s-2.1,-6.088 0.542,-9.374s6.7,-4.418 9.043,-2.527s2.1,6.085 -0.542,9.373z" id="Caminho_1776"/>
      <path fill="#eceff1" d="m77.636,183.571a16.664,16.664 0 0 1 -0.129,1.988c-0.766,7.677 -8.06,3.072 -8.06,3.072c-4.859,-3.364 -7.023,-9.772 -7.913,-16.023c0.38,7.537 2.208,16.731 8.385,21.007c0,0 7.294,4.6 8.06,-3.072a22.108,22.108 0 0 0 -0.343,-6.972z" id="Caminho_1777"/>
      <path fill="#d6e3dd" d="m66.215,183.879c2.671,3.267 6.549,4.516 8.662,2.789s1.66,-5.776 -1.01,-9.043s-6.549,-4.516 -8.662,-2.789s-1.66,5.776 1.01,9.043z" id="Caminho_1778"/>
      <path fill="#d6e3dd" d="m112.941,138.1s-36.889,-10.189 -44.553,-7.841c0,0 -3.4,-9.25 -1.841,-14.1c1,-3.069 0.407,-6.613 2.524,-12.321a47.951,47.951 0 0 1 7.18,-12.321a57.929,57.929 0 0 1 6.1,-0.254s5.6,13.484 22.111,24.427c0,0 8.471,20.148 8.479,22.4l0,0.01z" id="Caminho_1779"/>
      <path fill="#d6e3dd" d="m279.364,130.607c-7.68,-2.275 -41.114,8.368 -41.114,8.368c-0.008,-2.254 8.12,-22.6 8.12,-22.6c16.431,-11.079 18.437,-24.21 18.437,-24.21a21.412,21.412 0 0 1 3.048,-0.409a33.025,33.025 0 0 1 10.306,13.467a106.99,106.99 0 0 1 4.442,13.87c1.607,4.819 -3.239,11.514 -3.239,11.514z" id="Caminho_1780"/>
      <path fill="#3d4039" d="m121.073,30.236c18.517,-1.787 58.551,0.647 100.43,1.289c0,0 26.483,23.72 31.316,42.954c0,0 -158.373,1.37 -159.773,-1.4c0,0 22.468,-42.306 28.027,-42.843z" id="Caminho_1781"/>
      <path fill="#d6e3dd" d="m205.147,72.037c-61.954,0.225 -89.562,-0.208 -101.755,-0.682a3.846,3.846 0 0 1 -3.208,-5.715c7.844,-14.1 16.247,-27.69 20.135,-31.69a3.776,3.776 0 0 1 2.41,-1.132c3.926,-0.316 8.928,-0.482 15.227,-0.5c11.54,-0.042 26.339,0.408 42.007,0.885c12.576,0.382 25.554,0.776 38.972,1a3.829,3.829 0 0 1 2.581,1.049c4.848,4.613 18.138,17.878 25.053,30.9a3.853,3.853 0 0 1 -3.361,5.675c-8.663,0.066 -22.421,0.153 -38.061,0.21z" id="Caminho_1782"/>
      <path fill="#f5f5f0" d="m93.051,73.075s-8.161,11.541 -7.358,14.184c0,0 96.543,-12.524 131.256,0.581c0,0 44.988,0.366 49.1,4.32s-10.12,-17.693 -13.229,-17.682s-157.639,3.484 -159.769,-1.4l0,-0.003z" id="Caminho_1783"/>
      <g clip-path="url(#clip-path-3)" id="Agrupar_2787">
       <rect x="192.382004" y="-12.224" opacity="0.57" fill="#fff" transform="rotate(43.28200149536133 192.38200378417966,-12.223999977111802) " height="141.466" width="30.37" id="Retângulo_1972"/>
       <rect x="222.740997" y="16.365999" opacity="0.54" fill="#fff" transform="rotate(43.28200149536133 222.74099731445315,16.36599922180174) " height="141.466" width="14.505" id="Retângulo_1973"/>
      </g>
      <path opacity="0.56" fill="#fff" d="m104.46,115.7c-24.351,2.094 -34.8,-11.075 -35.388,-11.852a47.95,47.95 0 0 1 7.18,-12.321a57.933,57.933 0 0 1 6.1,-0.254s5.6,13.485 22.108,24.427z" id="Caminho_1785"/>
      <path opacity="0.49" fill="#fff" d="m278.161,105.226c-0.066,0.067 -0.132,0.117 -0.2,0.183c-12.8,11.232 -31.593,10.968 -31.593,10.968c16.432,-11.077 18.432,-24.21 18.432,-24.21a21.41,21.41 0 0 1 3.048,-0.409a33.024,33.024 0 0 1 10.308,13.468l0.005,0z" id="Caminho_1786"/>
      <path fill="#434443" d="m267.325,202.834a1.26,1.26 0 0 1 -0.063,0.246a30.872,30.872 0 0 1 -8.833,2.93a37.848,37.848 0 0 1 -4.722,0.509s-68.3,15.665 -162.475,0.067a23.373,23.373 0 0 1 -5.408,-0.52a27.66,27.66 0 0 1 -4.124,-1.144a32.622,32.622 0 0 1 3.39,-13s1.082,-19.1 11.51,-30.947a26.194,26.194 0 0 1 12.7,-8.175s36.74,-11.113 39.256,-11.257s43.23,-9.945 96.762,12.088a24.675,24.675 0 0 1 7.433,5c5.568,5.2 12.154,15.19 11.759,33.165c0,0 3.2,8.156 2.815,11.038z" id="Caminho_1787"/>
      <g clip-path="url(#clip-path-4)" id="Agrupar_2788">
       <line x1="69.325001" y2="145.524994" stroke-miterlimit="10" stroke="#4b4c4b" fill="none" x2="296.336001" y1="146.350994" id="Linha_201"/>
       <line x1="69.763" y2="152.151001" stroke-miterlimit="10" stroke="#4b4c4b" fill="none" x2="296.773" y1="152.976001" id="Linha_202"/>
       <line x1="70.202" y2="158.776993" stroke-miterlimit="10" stroke="#4b4c4b" fill="none" x2="297.213" y1="159.603993" id="Linha_203"/>
       <line x1="70.639999" y2="165.404007" stroke-miterlimit="10" stroke="#4b4c4b" fill="none" x2="297.649999" y1="166.229007" id="Linha_204"/>
       <line x1="71.077999" y2="172.029999" stroke-miterlimit="10" stroke="#4b4c4b" fill="none" x2="298.086999" y1="172.854999" id="Linha_205"/>
       <line x1="71.516998" y2="178.656998" stroke-miterlimit="10" stroke="#4b4c4b" fill="none" x2="298.526998" y1="179.481998" id="Linha_206"/>
       <line x1="71.955002" y2="185.283997" stroke-miterlimit="10" stroke="#4b4c4b" fill="none" x2="298.965002" y1="186.108997" id="Linha_207"/>
       <line x1="72.393002" y2="191.910995" stroke-miterlimit="10" stroke="#4b4c4b" fill="none" x2="299.403002" y1="192.735995" id="Linha_208"/>
       <line x1="72.832001" y2="198.537994" stroke-miterlimit="10" stroke="#4b4c4b" fill="none" x2="299.842001" y1="199.362994" id="Linha_209"/>
       <path fill="#2a2b2a" d="m264.51,191.794c0.4,-17.975 -6.191,-27.962 -11.759,-33.165a28.3,28.3 0 0 0 -5.32,-3.959l0,0a16.167,16.167 0 0 0 -2.113,-1.039c-53.532,-22.034 -94.254,-12.232 -96.762,-12.088a3.322,3.322 0 0 0 -0.357,0.05c-0.045,0.008 -0.11,0.023 -0.161,0.033c-0.122,0.024 -0.247,0.048 -0.4,0.083l-0.24,0.056l-0.523,0.123l-0.267,0.066c-0.213,0.053 -0.434,0.108 -0.676,0.171l-0.292,0.076l-0.836,0.22l-0.259,0.069l-1.034,0.28l-0.2,0.056l-1.25,0.345l-0.116,0.032c-11.254,3.13 -32.639,9.6 -32.639,9.6a26.193,26.193 0 0 0 -12.7,8.176c-10.428,11.851 -11.506,30.947 -11.506,30.947a32.623,32.623 0 0 0 -3.39,13a27.461,27.461 0 0 0 3.764,1.06a34.093,34.093 0 0 1 3.372,-12.374s1.082,-19.1 11.51,-30.947a26.193,26.193 0 0 1 12.7,-8.175s36.74,-11.113 39.256,-11.257a153.74,153.74 0 0 1 37.739,-1.9a189.7,189.7 0 0 1 51.531,13.332a24.671,24.671 0 0 1 7.433,5c5.568,5.2 11.233,15.076 10.838,33.051c0,0 3.346,2.856 3.38,12.12a17.249,17.249 0 0 0 4.033,-1.753a1.259,1.259 0 0 0 0.063,-0.246c0.385,-2.885 -2.815,-11.043 -2.815,-11.043l-0.004,0z" id="Caminho_1788"/>
      </g>
      <path fill="#bfc4c1" d="m140.964,164.789l71.236,-0.289a7.151,7.151 0 0 1 7.18,7.122l0.021,5.349a7.151,7.151 0 0 1 -7.122,7.18l-71.237,0.285a7.151,7.151 0 0 1 -7.18,-7.122l-0.021,-5.349a7.151,7.151 0 0 1 7.122,-7.18l0.001,0.004z" id="Caminho_1790"/>
      <path fill="#bebebe" d="m263.163,204.573a34.176,34.176 0 0 1 -4.726,1.407a25.2,25.2 0 0 1 -4.73,0.541s-68.3,15.665 -162.475,0.067a23.378,23.378 0 0 1 -5.408,-0.52c-0.032,-0.135 -0.056,-0.27 -0.089,-0.389c-1.21,-5.156 3.129,-12.713 3.129,-12.713c3.96,-2.7 8.143,1.693 8.143,1.693c67.443,20.412 137.747,4.7 157.5,-0.525c3.529,-0.926 5.44,-1.528 5.44,-1.528c3.121,3.035 3.322,10.467 3.216,11.967z" id="Caminho_1791"/>
      <path fill="#2a2b2a" d="m96.955,194.6s-4.765,0.449 -5.747,12.027a32.1,32.1 0 0 1 -5.744,-0.641c-1.543,-5.228 3.344,-13.074 3.344,-13.074c3.96,-2.7 8.147,1.688 8.147,1.688z" id="Caminho_1792"/>
      <path fill="#2a2b2a" d="m263.229,204.835a29.635,29.635 0 0 1 -4.792,1.145c1.8,-5.262 -3.128,-10.96 -3.933,-11.846c3.529,-0.926 5.44,-1.528 5.44,-1.528c3.124,3.035 3.39,10.728 3.285,12.229z" id="Caminho_1793"/>
      <path fill="#eceff1" d="m254.5,194.133c-17.472,22.078 -126.092,12.978 -126.092,12.978c-22.435,-2.3 -31.4,-12.453 -31.4,-12.453c67.443,20.412 137.748,4.7 157.492,-0.525z" id="Caminho_1794"/>
      <path fill="#eceff1" d="m104.461,115.705s37.341,8 50.636,7.159a80.6,80.6 0 0 1 45.252,0.232s37.7,-3.114 46.021,-6.717l-1.706,4.042s-54.075,11.311 -54.206,11.708s-9.76,-9.557 -26.6,-0.565l-57.8,-11.9l-1.6,-3.959l0.003,0z" id="Caminho_1795"/>
      <path fill="#2e302a" d="m105.488,119.03l57.612,13.162s13.785,-10.929 27.2,0.128l55.028,-12.439l-6.746,14.529l-34.878,6.926s-21.384,40.42 -57.342,-0.471l-34.248,-6.9l-6.626,-14.935z" id="Caminho_1796"/>
      <path fill="#d6e3dd" d="m108.226,124.233l46.5,10.483s5.9,2.245 5.688,6.1c0,0 15.26,20.569 32.408,-0.345c0,0 0.658,-6.122 9.27,-6.153l40.081,-9.438l-1.124,2.5l-37.587,9.655a38.138,38.138 0 0 0 -6.776,6.371s-20.767,22.966 -39.891,-0.648c0,0 -4.664,-4.969 -7.046,-5.64s-40.209,-10.166 -40.209,-10.166l-1.314,-2.719z" id="Caminho_1797"/>
      <ellipse fill="#d6e3dd" transform="rotate(-0.20900000631809235 164.51199340819238,130.71200561523122) " ry="8.329" rx="12.409" cy="139.041006" cx="176.920993" id="Elipse_293"/>
     </g>
     <g id="Agrupar_2808">
      <path fill="#595958" transform="rotate(-0.20900000631809235 24.38999938964849,-0.6799999475472853) " d="m404.956,167.167l8.984,0a19.125,19.125 0 0 1 19.124,19.124l0,14.754a19.124,19.124 0 0 1 -19.121,19.122l-8.987,0a19.125,19.125 0 0 1 -19.125,-19.122l0,-14.754a19.125,19.125 0 0 1 19.124,-19.124l0.001,0z" id="Caminho_1854"/>
      <path fill="#595958" transform="rotate(-0.20900000631809235 24.39299964904785,-0.12699997425131143) " d="m556.752,167.167l8.984,0a19.125,19.125 0 0 1 19.125,19.125l0,14.753a19.124,19.124 0 0 1 -19.122,19.122l-8.987,0a19.125,19.125 0 0 1 -19.125,-19.122l0,-14.753a19.125,19.125 0 0 1 19.125,-19.125z" id="Caminho_1855"/>
      <path fill="#434443" d="m587.154,200.253a16.442,16.442 0 0 1 -4.64,1.009a14.89,14.89 0 0 1 -5.126,-0.477c-103.358,21.174 -183.841,-2.337 -183.841,-2.337a9.524,9.524 0 0 1 -5.965,0.172a27.506,27.506 0 0 1 -4.438,-1.382c-9.774,-26.533 -8.7,-45.141 -5.556,-56.724a40.756,40.756 0 0 1 6.68,-14.466c0.239,-0.3 0.374,-0.452 0.374,-0.452c-1.533,-8.38 -0.086,-23.788 -0.086,-23.788c-0.951,-1.169 3.144,-3.2 4.419,-3.773a2.416,2.416 0 0 1 0.24,-0.106a0.664,0.664 0 0 1 0.135,-0.076c2.066,-2.081 10.046,-10.376 10.046,-10.376c22.376,-45.164 28.653,-42.182 28.653,-42.182c67.584,-11.02 117.336,0.2 117.336,0.2c11.177,7.338 27.08,41.468 27.08,41.468c0.845,1.049 1.691,2.1 2.536,3.117a63.7,63.7 0 0 0 7.845,8.372a49.974,49.974 0 0 1 5.392,3.361c2.35,18.115 0.026,23.788 0.026,23.788s0.015,0.015 0.015,0.03a66.046,66.046 0 0 1 7.169,20.907c4.762,28.18 -8.294,53.715 -8.294,53.715z" id="Caminho_1856"/>
      <path fill="#bebebe" d="m575,90.084c-3.621,0.148 -7.018,0.04 -5.038,-1.094c3.749,-2.148 -18.277,-33.881 -18.277,-33.881a14.988,14.988 0 0 0 -11.093,-4.964c-13.365,-1.574 -26.893,-2.337 -39.742,-2.591c-11.166,-0.215 -21.8,-0.041 -31.376,0.324c-25.288,0.949 -43.087,3.252 -43.087,3.252c-10.327,3.223 -23.252,31.823 -23.252,31.823c-2.48,4.142 -1.854,6.649 -1.854,6.649c-2.373,0.384 -8.346,10.925 -8.346,10.925c-0.661,0.108 -2.3,-1.1 -3.961,-2.5c0.24,-0.121 0.375,-0.182 0.375,-0.182c2.066,-2.081 10.046,-10.376 10.046,-10.376c22.376,-45.164 28.654,-42.181 28.654,-42.181c67.584,-11.02 117.336,0.2 117.336,0.2c11.177,7.338 27.08,41.468 27.08,41.468c0.844,1.06 1.689,2.109 2.535,3.128z" id="Caminho_1857"/>
      <path fill="#4d4f5c" d="m587.154,200.253a16.442,16.442 0 0 1 -4.64,1.009a14.89,14.89 0 0 1 -5.126,-0.477c-103.358,21.174 -183.841,-2.337 -183.841,-2.337a9.525,9.525 0 0 1 -5.965,0.172a27.5,27.5 0 0 1 -4.438,-1.382c-9.774,-26.533 -8.7,-45.141 -5.556,-56.724a40.756,40.756 0 0 1 6.68,-14.466s-2.342,12.962 26.348,13.729c0,0 7.706,19.763 21.42,18.211c0,0 19.484,6.436 103.878,2.132c0,0 17.591,-0.374 22.719,-20.124c0,0 32.552,-2.122 29.076,-14.462l0.572,0.1a66.046,66.046 0 0 1 7.169,20.907c4.76,28.179 -8.296,53.712 -8.296,53.712z" id="Caminho_1858"/>
      <path fill="#bebebe" d="m587.154,200.253a16.44,16.44 0 0 1 -4.64,1.009a14.888,14.888 0 0 1 -5.126,-0.477c-103.358,21.174 -183.841,-2.337 -183.841,-2.337a9.525,9.525 0 0 1 -5.965,0.172a27.51,27.51 0 0 1 -4.438,-1.382c-9.774,-26.533 -8.7,-45.141 -5.556,-56.724c0.306,1.562 4.6,20.9 23.6,26.348c0,0 38.871,10.889 107.478,8.626c0,0 83.128,2.944 86.784,-28.943c4.76,28.173 -8.3,53.708 -8.3,53.708l0.004,0z" id="Caminho_1859"/>
      <path fill="#bebebe" d="m396.446,101.764s3.515,2.492 4.291,9.251c0,0 11.959,51.551 29.723,46.477c0,0 66.026,8.338 111.459,1.223c0,0 9.766,-0.411 12.178,-8.685c0,0 14.423,-31.214 19.98,-45.625c1.09,-2.826 6.574,-4.438 8.448,-5.823a69.715,69.715 0 0 0 -10.058,-11.614s3.221,7.57 -70.585,12.159c0,0 -11.284,-3.716 -29.306,-0.645c0,0 -60.372,-3.037 -70.662,-9.01a8.955,8.955 0 0 1 -2.517,-1.995l-10.048,10.376s0.83,2.29 7.1,3.911l-0.003,0z" id="Caminho_1860"/>
      <path fill="#f5f5f0" d="m384.551,100.9s85.092,18.225 117.884,13.179c0,0 81.151,-6.864 85.377,-11.806c0,0 2.487,-1.006 -5.289,-4.439c0,0 -7.424,-9.719 -10.058,-10.878c0,0 1.53,7.389 -70.588,11.406c0,0 -14.676,-6.7 -29.306,-0.6c0,0 -66.641,-2.456 -73.176,-10.292l-10.183,9.793s-5.168,0.593 -4.661,3.637z" id="Caminho_1861"/>
      <path fill="#d6e3dd" d="m428.091,56.566s4.367,-4.524 21.771,-5.339c0,0 70.058,-2.227 79.648,0.462c0,0 12.69,2.772 19.2,10.825c0,0 18.668,19.656 1.217,24.791c0,0 -44.1,11.243 -124.349,1.016c0,0 -18.292,-2.375 -9.452,-16.308c-0.001,0.003 9.342,-13.684 11.965,-15.447z" id="Caminho_1862"/>
      <path fill="#d6e3dd" d="m500.88,47.465a0.212,0.212 0 0 1 -0.03,0.09c-11.166,-0.215 -21.805,-0.041 -31.376,0.324c0.012,-0.721 0.251,-5.351 3.557,-5.243l23.953,-0.222a3.757,3.757 0 0 1 3.9,5.05l-0.004,0.001z" id="Caminho_1863"/>
      <path stroke-miterlimit="10" stroke="#d6e3dd" fill="none" d="m495.147,107.476c0.012,3.351 -4.456,6.087 -10,6.107s-10.018,-2.684 -10.03,-6.035a4.876,4.876 0 0 1 2.2,-3.81a13.2,13.2 0 0 1 7.791,-2.3a13.044,13.044 0 0 1 8,2.375a4.76,4.76 0 0 1 2.042,3.659l-0.003,0.004z" id="Caminho_1864"/>
      <path stroke-miterlimit="10" stroke="#d6e3dd" fill="none" d="m493.106,103.816c-8.83,5.788 -14.558,1.12 -15.794,-0.078a13.2,13.2 0 0 1 7.791,-2.3a13.044,13.044 0 0 1 8,2.375l0,0l0.003,0.003z" id="Caminho_1865"/>
      <path stroke-miterlimit="10" stroke="#d6e3dd" fill="none" d="m487.339,107.9c0.012,3.2 -0.988,5.8 -2.233,5.8s-2.264,-2.585 -2.275,-5.784s0.988,-5.8 2.233,-5.8s2.262,2.584 2.275,5.784z" id="Caminho_1866"/>
      <path fill="#eceff1" d="m546.16,118.247s0.885,3.634 -5.377,4.783c0,0 -49.556,9.693 -109.944,-0.607a20.824,20.824 0 0 1 -5.414,-5.345a5.625,5.625 0 0 1 -0.881,-2.642s112.724,4.85 121.727,1.06l-0.111,2.751z" id="Caminho_1867"/>
      <path fill="#4d4f5c" d="m546.271,115.5l-0.11,2.75c-62.7,10.251 -120.675,-1.184 -120.675,-1.184c-0.015,0 -0.045,0.015 -0.06,0.015a5.626,5.626 0 0 1 -0.881,-2.642s106.888,1.674 121.726,1.061z" id="Caminho_1868"/>
      <path fill="#eceff1" d="m541.412,122.526l-7.789,26.647a1.194,1.194 0 0 1 -0.327,0.948c-6.121,6.845 -93.767,1.453 -93.767,1.453a3.215,3.215 0 0 1 -1.718,-1.3c-4.439,-5.754 -6.969,-27.851 -6.969,-27.851c48.99,9.093 110.57,0.103 110.57,0.103z" id="Caminho_1869"/>
      <path fill="#707070" d="m409.853,138.157s-1.777,27.894 16.012,29.7c0,0 78.932,10.284 117.6,2.115c0,0 18.979,1.737 20.363,-30.785l-4.7,-0.073l-5.222,10.444s-1.192,7.988 -11.613,9.177c0,0 -44.055,6.985 -111.459,-1.334c0.002,-0.001 -11.479,2.699 -20.981,-19.244z" id="Caminho_1870"/>
      <path fill="#bebebe" d="m438.228,123.778s3.723,25.158 12.491,25.5l68.878,0.376s7.143,1.226 8.612,-7.8l3.69,-18.3s-25.656,4.86 -93.671,0.224z" id="Caminho_1871"/>
      <path fill="#f5f5f0" d="m533.292,150.12c-6.121,6.845 -93.767,1.453 -93.767,1.453a3.216,3.216 0 0 1 -1.718,-1.3l0.015,0s6.67,-0.6 9.669,-2.289c0,0 49.442,3.131 76.1,1.151c0,0 5.828,2.337 9.7,0.985l0.001,0z" id="Caminho_1872"/>
      <path fill="#033333" d="m409.6,137.97s14.428,7.148 20.859,19.523c0.002,0 -11.191,4.298 -20.859,-19.523z" id="Caminho_1873"/>
      <path fill="#033333" d="m558.879,139.118s-14.375,7.253 -20.717,19.674c0,0.001 14.573,4.108 20.717,-19.674z" id="Caminho_1874"/>
      <path fill="#d6e3dd" d="m468.041,126.486l33.682,-0.135a6.076,6.076 0 0 1 6.1,6.052l0.044,11.14a6.076,6.076 0 0 1 -6.052,6.1l-33.682,0.135a6.076,6.076 0 0 1 -6.1,-6.052l-0.045,-11.14a6.076,6.076 0 0 1 6.052,-6.1l0.001,0z" id="Caminho_1875"/>
      <path fill="#d6e3dd" d="m410.5,139.89a41.864,41.864 0 0 1 -5.371,-0.466c-23.518,-1.605 -20.888,-13.194 -20.888,-13.194l0.025,-0.185c0.239,-0.3 0.374,-0.452 0.374,-0.452a52.6,52.6 0 0 1 -0.658,-7.361c-0.239,-7.844 0.256,-16.426 0.256,-16.426a4.778,4.778 0 0 1 0.041,-0.947c0.469,-3.413 4.871,-3.579 4.931,-3.594c1.5,2.594 7.229,4.5 7.229,4.5a9.3,9.3 0 0 1 1.991,1.916l0.015,0a14.9,14.9 0 0 1 2.7,7.263c-1.053,2.874 9.355,28.946 9.355,28.946z" id="Caminho_1876"/>
      <path opacity="0.76" fill="#c6c6c6" d="m404.958,139.4c-23.6,-1.628 -20.691,-13.348 -20.691,-13.348c0.239,-0.3 0.374,-0.452 0.374,-0.452a52.616,52.616 0 0 1 -0.658,-7.361a0.79,0.79 0 0 1 0.377,0.284s19.879,8.997 20.598,20.877z" id="Caminho_1877"/>
      <path fill="#d6e3dd" d="m588.286,127.56l-0.315,0.182s3.578,8.628 -29.589,12.505c0,0 9.978,-24.892 12.671,-28.223a17.8,17.8 0 0 1 2.232,-5.974a15.682,15.682 0 0 1 2.423,-3.149s6.715,-4.863 8.505,-4.254c1.821,0.609 4.939,2.747 4,3.923c0,0 0.03,0.15 0.077,0.451c0.46,2.538 2.49,15.319 -0.378,24.091c0,0 0.132,0.148 0.374,0.448z" id="Caminho_1878"/>
      <path opacity="0.76" fill="#c6c6c6" d="m588.03,127.761c-0.018,-0.089 0.341,-0.19 0.341,-0.19c-0.241,-0.3 -0.414,-0.494 -0.414,-0.494a22.892,22.892 0 0 0 1.316,-7.7c-0.15,0.061 -20.682,7.827 -21.781,19.478c-0.018,0.151 22.169,-3.204 20.538,-11.094z" id="Caminho_1879"/>
      <path opacity="0.48" fill="#fcfcfc" d="m398.431,103.679a61.2,61.2 0 0 1 -14.151,-2.819c0.469,-3.413 4.871,-3.579 4.931,-3.594c1.5,2.594 7.229,4.5 7.229,4.5a9.3,9.3 0 0 1 1.991,1.916l0,-0.003z" id="Caminho_1880"/>
      <path opacity="0.48" fill="#fcfcfc" d="m588.21,102.569s0.03,0.15 0.077,0.451c-5.194,1.446 -15,3.045 -15,3.045l0,-0.015a15.679,15.679 0 0 1 2.423,-3.15s6.715,-4.863 8.505,-4.254c1.82,0.61 4.938,2.748 3.995,3.923z" id="Caminho_1881"/>
      <g clip-path="url(#clip-path-5)" id="Agrupar_2796">
       <g opacity="0.52" id="Agrupar_2795">
        <rect x="515.854004" y="3.198" fill="#fffefd" transform="rotate(46.904998779296875 515.85400390625,3.197999954223639) " height="133.317" width="31.057" id="Retângulo_1980"/>
        <rect x="541.596985" y="33.384998" fill="#fffefd" transform="rotate(46.904998779296875 541.5969848632814,33.384998321533196) " height="133.317" width="16.339" id="Retângulo_1981"/>
       </g>
      </g>
      <path fill="#434443" d="m582.53,201.646a0.362,0.362 0 0 1 -0.015,0.127a14.18,14.18 0 0 1 -5.126,-0.5a414.983,414.983 0 0 1 -64.317,8.638a421.448,421.448 0 0 1 -55.529,-0.558c-39.428,-3.022 -64,-10.577 -64,-10.577a9.069,9.069 0 0 1 -5.965,0.18l0.2,-0.159s-0.276,-9.749 13.761,-5.32c0,0 20.075,3.615 49.357,6.025a574.484,574.484 0 0 0 67.826,1.795a369.993,369.993 0 0 0 50.129,-4.994s14.263,-5.6 13.684,5.343l-0.005,0z" id="Caminho_1883"/>
      <path fill="#8696a9" d="m518.721,200.817a33.973,33.973 0 0 1 -5.651,8.183c-3.144,3.167 -5.263,3.07 -5.263,3.07l-45.09,-0.718c-1.816,0.074 -3.41,-1.12 -5.175,-2.872a45.985,45.985 0 0 1 -6.646,-9.353a604.923,604.923 0 0 0 67.826,1.692l0,0l-0.001,-0.002z" id="Caminho_1884"/>
     </g>
     <g id="Agrupar_2804">
      <g id="Agrupar_2803">
       <g id="Agrupar_2802">
        <g id="Agrupar_2801">
         <path fill="#ebf1ee" d="m337.914,338.512s0.088,1.5 0.344,3.628c0.6,5.014 2.109,13.526 5.512,14.346c0,0 7.024,1.535 8.375,0.7c0,0 -0.554,-23.813 18.852,-29.93c11.495,-3.613 33.82,-3.753 37.119,30.883c0,0 131.258,-3.182 140.132,-1.733c0,0 3.447,-0.627 2.734,-6.027a27.807,27.807 0 0 1 0.063,-3.041c0.444,-7.234 3.527,-25.15 22.7,-29.243c0,0 27.489,-6.355 33.32,24.7c0.271,1.46 0.5,3 0.659,4.62c0.186,1.613 0.3,3.313 0.366,5.1c0,0 10.543,2.461 14.892,-1.116c0,0 10.905,0.068 11.1,-0.519l0.443,-3.059s-0.108,-0.125 -0.285,-0.35c-0.973,-1.194 -3.906,-5.083 -1.371,-5.388a59.494,59.494 0 0 0 0.689,-18.764c-1.462,-10.556 -6.9,-21.867 -23.255,-23.171c0,0 -39.426,-8.007 -50.223,-13.57c-19.63,-10.116 -52.895,-31.235 -101.668,-28.489c-21.062,1.19 -55.819,0.746 -83.973,8.352a12.051,12.051 0 0 0 -1.9,4.049s-19.491,20.724 -20.62,21.774c-0.942,0.874 -1.857,1.736 -2.716,2.606a33.462,33.462 0 0 0 -3.591,4.13c-3.257,4.533 -4.48,9.771 -1.063,17.691c0,0 -8.819,14.7 -6.635,21.823l0,-0.002z" id="Caminho_1885"/>
         <path fill="#2a2b2a" d="m601.176,353.111l6.776,-1.25s2.585,-34.6 -28.507,-35.172c-11.829,-0.218 -31.794,7.691 -29.016,37.384c0,0 2.642,5.042 8.038,5.839c0,0 -15.373,-26.622 14.284,-36.855c10.465,-3.61 31.1,4.146 28.425,30.054z" id="Caminho_1886"/>
         <path fill="#2a2b2a" d="m404.281,357.276l4.359,0.225s2.364,-30.971 -27.33,-33.25c-11.8,-0.9 -31.459,9 -29.088,32.417c0,0 0.431,-2.35 3.978,-1.234c0,0 -0.181,-16.417 17.389,-23.525c10.262,-4.15 30.242,-0.162 30.692,25.367z" id="Caminho_1887"/>
         <ellipse fill="#3d4039" transform="rotate(-92.66300201416016 554.5969848632814,370.70001220703125) " ry="24.695" rx="23.922" cy="395.395012" cx="578.518985" id="Elipse_297"/>
         <ellipse fill="#d6e3dd" transform="matrix(-0.046,-0.999,0.999,-0.046,537.013,366.535) " ry="17.829" rx="17.601" cy="42.893068" cx="18.448901" id="Elipse_298"/>
         <path fill="#3d4039" d="m566.488,346.353a12.26,12.26 0 1 0 3.143,-8.892a12.26,12.26 0 0 0 -3.143,8.892z" id="Caminho_1888"/>
         <path fill="#d6e3dd" d="m563.7,349.183l-0.5,-4.673l9.623,-0.5c0.052,-0.175 0.111,-0.348 0.179,-0.516l-7.541,-5.606l2.925,-3.679l7.142,6.355c0.157,-0.094 0.32,-0.179 0.487,-0.259l-1.5,-9.5l4.676,-0.476l0.654,9.46a6.228,6.228 0 0 1 0.712,0.171l5.889,-7.63l3.554,3.07l-6.264,6.789a5.85,5.85 0 0 1 0.727,1.316l9.48,-0.827l0.149,4.7l-9.5,-0.008c-0.047,0.149 -0.1,0.3 -0.157,0.441l7.514,6.23l-3.2,3.447l-6.839,-6.768a6.213,6.213 0 0 1 -0.8,0.394l2,9.4l-4.627,0.829l-1.3,-9.938c-0.182,-0.045 -0.359,-0.1 -0.534,-0.159l0.11,0.082l-5.544,8.029l-3.779,-2.8l6.235,-7.52a5.843,5.843 0 0 1 -0.656,-1.176l-9.317,1.318l0.002,0.004z" id="Caminho_1889"/>
         <path stroke-width="0.1" stroke-miterlimit="10" stroke="#3d4039" fill="#c6c6c6" d="m579.85,342.674a1.338,1.338 0 1 0 0.347,-0.964a1.338,1.338 0 0 0 -0.347,0.964z" id="Caminho_1890"/>
         <path stroke-width="0.1" stroke-miterlimit="10" stroke="#3d4039" fill="#c6c6c6" d="m574.434,343.572a1.338,1.338 0 1 0 0.347,-0.964a1.338,1.338 0 0 0 -0.347,0.964z" id="Caminho_1891"/>
         <path stroke-width="0.1" stroke-miterlimit="10" stroke="#3d4039" fill="#c6c6c6" d="m575.146,349.2a1.338,1.338 0 1 0 0.347,-0.964a1.338,1.338 0 0 0 -0.347,0.964z" id="Caminho_1892"/>
         <path stroke-width="0.1" stroke-miterlimit="10" stroke="#3d4039" fill="#c6c6c6" d="m580.929,348.3a1.338,1.338 0 1 0 0.347,-0.964a1.338,1.338 0 0 0 -0.347,0.964z" id="Caminho_1893"/>
         <path fill="#3d4039" d="m355.327,353.762c0.614,13.2 12.156,23.383 25.779,22.749s24.171,-11.846 23.557,-25.043s-12.156,-23.383 -25.779,-22.749s-24.17,11.845 -23.557,25.043z" id="Caminho_1894"/>
         <ellipse fill="#d6e3dd" transform="rotate(-92.66899871826172 363.8559875488281,371.4939880371094) " ry="17.829" rx="17.601" cy="389.322988" cx="381.456988" id="Elipse_299"/>
         <path fill="#3d4039" d="m368.331,353.191a12.26,12.26 0 1 0 3.144,-8.892a12.259,12.259 0 0 0 -3.144,8.892z" id="Caminho_1895"/>
         <path fill="#d6e3dd" d="m365.544,356.14l-0.5,-4.673l9.623,-0.5c0.052,-0.175 0.111,-0.348 0.179,-0.516l-7.541,-5.606l2.925,-3.679l7.142,6.355c0.157,-0.094 0.32,-0.179 0.487,-0.259l-1.5,-9.5l4.676,-0.476l0.654,9.459a6.29,6.29 0 0 1 0.712,0.171l5.889,-7.629l3.556,3.074l-6.264,6.789a5.836,5.836 0 0 1 0.727,1.316l9.479,-0.827l0.149,4.7l-9.5,-0.008c-0.047,0.149 -0.1,0.3 -0.157,0.441l7.514,6.23l-3.2,3.447l-6.839,-6.768a6.215,6.215 0 0 1 -0.8,0.394l2,9.4l-4.627,0.829l-1.292,-9.932c-0.182,-0.045 -0.359,-0.1 -0.534,-0.159l0.11,0.082l-5.544,8.029l-3.779,-2.8l6.235,-7.52a5.845,5.845 0 0 1 -0.656,-1.176l-9.324,1.312z" id="Caminho_1896"/>
         <path stroke-width="0.1" stroke-miterlimit="10" stroke="#3d4039" fill="#c6c6c6" d="m381.693,349.59a1.338,1.338 0 1 0 0.347,-0.964a1.338,1.338 0 0 0 -0.347,0.964z" id="Caminho_1897"/>
         <path stroke-width="0.1" stroke-miterlimit="10" stroke="#3d4039" fill="#c6c6c6" d="m375.969,350.492a1.338,1.338 0 1 0 0.347,-0.964a1.338,1.338 0 0 0 -0.347,0.964z" id="Caminho_1898"/>
         <path stroke-width="0.1" stroke-miterlimit="10" stroke="#3d4039" fill="#c6c6c6" d="m376.988,356.018a1.338,1.338 0 1 0 0.347,-0.964a1.338,1.338 0 0 0 -0.347,0.964z" id="Caminho_1899"/>
         <path stroke-width="0.1" stroke-miterlimit="10" stroke="#3d4039" fill="#c6c6c6" d="m382.771,355.109a1.338,1.338 0 1 0 0.347,-0.964a1.338,1.338 0 0 0 -0.347,0.964z" id="Caminho_1900"/>
         <path fill="#4d4f5c" d="m349.269,294.876c0.019,0 0.037,0.007 0.056,0.007c2.944,0.328 13.636,-2.343 13.636,-2.343c6,-0.187 13.15,-0.233 21.151,-0.169c44.727,0.378 116.113,4.281 162.425,7.083c26.777,1.637 45.176,2.892 45.176,2.892c13.42,9.624 41.752,21.029 41.752,21.029l0.09,-0.051c-1.461,-10.556 -6.9,-21.867 -23.25,-23.171c0,0 -6.858,-1.394 -15.645,-3.425c-12.263,-2.828 -28.272,-6.907 -34.566,-10.145c-19.625,-10.116 -52.882,-31.235 -101.644,-28.489c-21.058,1.19 -55.8,0.746 -83.953,8.352a12.051,12.051 0 0 0 -1.9,4.049l-0.009,0.01c-0.486,0.517 -17.075,18.16 -20.164,21.315c-0.221,0.234 -0.372,0.381 -0.443,0.449c-0.939,0.873 -1.854,1.735 -2.712,2.607z" id="Caminho_1901"/>
         <path fill="#4d4f5c" d="m463.994,304.278c0.093,1.99 4.331,3.41 9.467,3.171s9.224,-2.046 9.132,-4.036s-4.331,-3.41 -9.467,-3.171s-9.226,2.046 -9.132,4.036z" id="Caminho_1902"/>
         <path fill="#4d4f5c" d="m390.629,300.893c0.093,1.99 4.331,3.41 9.467,3.171s9.224,-2.046 9.132,-4.036s-4.331,-3.41 -9.467,-3.171s-9.225,2.043 -9.132,4.036z" id="Caminho_1903"/>
         <path fill="#4d4f5c" d="m362.975,310.951a5.973,5.973 0 1 0 5.69,-6.245a5.973,5.973 0 0 0 -5.69,6.245z" id="Caminho_1904"/>
         <path fill="#bebebe" d="m544.576,283.543s28.64,14.667 16.706,15.221l-14.829,0.5s0.618,-8.848 -1.877,-15.721z" id="Caminho_1905"/>
         <path fill="#d6e3dd" d="m344.589,316.416c4.986,0.393 20.447,-14.622 20.447,-14.622c5.847,-7.727 -18.786,-3.162 -18.786,-3.162l-0.592,0.093c-3.275,4.533 -4.5,9.771 -1.069,17.691z" id="Caminho_1906"/>
         <path fill="#d6e3dd" d="m518,272.232c-7.231,-2.523 -37.9,-12.59 -58.1,-9.4a1.141,1.141 0 0 0 -0.922,1.4c1.082,4.544 5.021,20.917 7.268,27.882a3.169,3.169 0 0 0 2.849,2.191l51.916,2.809l3.035,-8.218l-3.92,-14.552a3.47,3.47 0 0 0 -2.126,-2.112z" id="Caminho_1907"/>
         <path fill="#d6e3dd" d="m518,272.232c-7.231,-2.523 -37.9,-12.59 -58.1,-9.4a1.141,1.141 0 0 0 -0.922,1.4c1.082,4.544 5.021,20.917 7.268,27.882a3.169,3.169 0 0 0 2.849,2.191l51.916,2.809l3.035,-8.218l-3.92,-14.552a3.47,3.47 0 0 0 -2.126,-2.112z" id="Caminho_1908"/>
         <path fill="#d6e3dd" d="m518,272.232c-7.231,-2.523 -37.9,-12.59 -58.1,-9.4a1.141,1.141 0 0 0 -0.922,1.4c1.082,4.544 5.021,20.917 7.268,27.882a3.169,3.169 0 0 0 2.849,2.191l51.916,2.809l3.035,-8.218l-3.92,-14.552a3.47,3.47 0 0 0 -2.126,-2.112z" id="Caminho_1909"/>
         <path fill="#d6e3dd" d="m518,272.232c-7.231,-2.523 -37.9,-12.59 -58.1,-9.4a1.141,1.141 0 0 0 -0.922,1.4c1.082,4.544 5.021,20.917 7.268,27.882a3.169,3.169 0 0 0 2.849,2.191l51.916,2.809l3.035,-8.218l-3.92,-14.552a3.47,3.47 0 0 0 -2.126,-2.112z" id="Caminho_1910"/>
         <path fill="#4d4f5c" d="m607.585,346.895c0.187,1.613 0.3,3.313 0.368,5.1c0,0 10.6,2.461 14.971,-1.116c0,0 10.963,0.068 11.159,-0.519l0.445,-3.059s-22.694,0.366 -26.457,-0.391a1.245,1.245 0 0 0 -0.485,-0.015l0,0l-0.001,0z" id="Caminho_1911"/>
         <path fill="#4d4f5c" d="m623.677,344.493s7.3,3.062 10.564,2.519c-0.978,-1.194 -3.927,-5.083 -1.378,-5.388c0,0 -3.109,-16.752 -10.148,-17.822c0,0 -4.713,20.488 0.962,20.691z" id="Caminho_1912"/>
         <path fill="#4d4f5c" d="m623.676,344.5c1.348,-4.489 -0.962,-20.691 -0.962,-20.691s-4.714,20.491 0.962,20.691z" id="Caminho_1913"/>
         <path fill="#bebebe" d="m404.616,331.686c3.106,-0.144 4.663,-6.74 4.663,-6.74c-0.619,-6.495 5.925,-5.309 8.417,-5.983c40.189,-10.875 111.686,-0.676 126.816,-0.436c1.245,0.02 11.866,4.074 11.858,4.3c6.758,-8.064 17.617,-10.348 24.443,-9.894c29.231,1.942 26.372,29.22 26.372,29.22s-0.09,0.06 -0.262,0.18c-5.862,-31.059 -33.5,-24.7 -33.5,-24.7a28.255,28.255 0 0 0 -22.823,29.243c-0.059,-0.472 -13.772,2.253 -15.258,1.958l-73.516,1.909l-40.277,1.057s-6.525,1.366 -10.162,-7.5c-0.178,-0.411 -0.338,-0.851 -0.5,-1.319a83.589,83.589 0 0 0 -6.682,-10.024c-0.015,-0.809 0.113,-1.253 0.411,-1.267l0,-0.004z" id="Caminho_1914"/>
         <path fill="#707070" d="m535.517,345.118s-58.337,-11.965 -104.32,-3.769l104.32,3.769z" id="Caminho_1915"/>
         <path fill="#4d4f5c" d="m615.225,315.13s-21.422,11.752 -54.806,-18.071l31.061,5s13.265,8.2 23.745,13.071z" id="Caminho_1916"/>
         <path fill="#bebebe" d="m352.444,291.819c0.275,-0.106 0.567,-0.241 0.867,-0.385a38.07,38.07 0 0 0 19.408,-20.93c-0.488,0.515 -17.17,18.16 -20.275,21.315z" id="Caminho_1917"/>
         <path fill="#111" d="m400.2,261.746s-4.276,-3.451 -5,0.932l5,-0.932z" id="Caminho_1918"/>
         <rect x="396.752014" y="261.102997" fill="#111" transform="rotate(142.8280029296875 396.7520141601563,261.1029968261719) " height="9.697" width="0.436" id="Retângulo_1982"/>
         <path fill="#4d4f5c" d="m338.266,341.627c0.606,5.014 2.12,13.526 5.541,14.346c0,0 7.061,1.536 8.42,0.7c0,0 -0.557,-23.813 18.952,-29.93c11.556,-3.613 34,-3.753 37.316,30.883c0,0 131.955,-3.182 140.876,-1.733c0,0 3.466,-0.627 2.749,-6.027c0,0 -0.053,-1.545 0.074,-3.424c0,0 -118.88,-11.666 -139.222,-2.2c0,0 -11.536,-28.223 -40.119,-21.61a31.543,31.543 0 0 0 -18.753,12.521s-9.84,8.845 -15.539,6.547a0.916,0.916 0 0 0 -0.295,-0.073z" id="Caminho_1919"/>
         <path fill="#ebf1ee" d="m589.456,299.142s-29.917,-5.968 -37.87,-11.656c0,0 19.161,11.255 9.368,10.588c-54.544,-3.719 -178.471,-6.314 -178.485,-6.026c-0.3,6.484 209.5,10.145 209.5,10.145s-3.252,-0.94 -2.513,-3.051z" id="Caminho_1920"/>
         <path fill="#bebebe" d="m374.638,266.444s8.026,1.272 10.07,2.825a2.084,2.084 0 0 0 1.867,0.332a206.561,206.561 0 0 1 33.857,-7.073s-25.149,0.316 -45.794,3.916z" id="Caminho_1921"/>
         <path fill="#e0e9ef" d="m591.487,302.07l0.293,0.293a4.509,4.509 0 0 0 0.342,0.342c12.888,12.656 31.755,11.338 31.755,11.338a14.122,14.122 0 0 0 -5.467,-10.618a19.477,19.477 0 0 0 -6.371,-3.344c-0.488,-0.171 -1,-0.317 -1.526,-0.452c0,0 -7.237,-1.135 -16.073,-3.173l-0.11,0.049s-9.213,2.453 -2.843,5.565z" id="Caminho_1922"/>
         <path fill="#707070" d="m412.254,344.242c3.637,8.871 10.162,7.5 10.162,7.5l40.276,-1.053l73.516,-1.909a13.8,13.8 0 0 0 3.788,0.28l4,-3.263s-105.43,-11.227 -131.1,-1.762c-0.217,0.079 -0.441,0.141 -0.643,0.207l0.001,0z" id="Caminho_1923"/>
         <path stroke-miterlimit="10" stroke="#4d4f5c" fill="none" d="m396.64,325.106c2.966,1.456 6.012,4.622 8.6,7.9a83.6,83.6 0 0 1 6.682,10.024c0.162,0.468 0.322,0.908 0.5,1.319c3.637,8.871 10.162,7.5 10.162,7.5l40.276,-1.049l73.516,-1.909a13.8,13.8 0 0 0 3.787,0.28c6.379,-0.511 5.22,-6.99 5.22,-6.99c2.885,-6.9 3.821,-14.828 3.87,-22a101.612,101.612 0 0 0 -2.15,-21.186c-9.1,-1.655 -49.48,-3.477 -87.811,-4.882c-38.854,-1.427 -75.619,-2.429 -75.619,-2.429a33.438,33.438 0 0 0 12.967,33.426l0,-0.004z" id="Caminho_1924"/>
         <path stroke-miterlimit="10" stroke="#4d4f5c" fill="none" d="m459.409,294.456s7.5,46.015 3.525,55.753" id="Caminho_1925"/>
         <path fill="#434443" d="m383.673,292.092a0.57,0.57 0 0 0 0.087,0.275c20.986,0.18 47.814,1.122 75.2,2.356c31.286,1.425 63.289,3.236 88.13,4.727l0.016,-0.047s0.5,-16.677 -5.442,-19.439c0,0 -40.632,-23.031 -90.269,-19.678c-16.3,1.1 -62.781,2.686 -64.212,12c0,0 -3.6,16.315 -3.51,19.806z" id="Caminho_1926"/>
         <path fill="#d6e3dd" d="m445.6,265.493c1.3,6.686 5.233,27.017 5.2,28.38l-49.445,-1.118s-9.838,-12.549 -7.746,-21.269c0.256,-1.065 32.674,-7.674 49.368,-8.09a2.6,2.6 0 0 1 2.623,2.1l0,-0.003z" id="Caminho_1927"/>
         <path fill="#d6e3dd" d="m538.74,282.163c-3.15,-2.577 -10.756,-5.594 -14.69,-7.018a0.834,0.834 0 0 0 -1.108,0.938c0.647,3.453 2.491,12.9 3.406,13.49c0,0 9.908,2.646 13.682,0.3c0,0 0.944,-5.883 -1.29,-7.71z" id="Caminho_1928"/>
         <path fill="#2a2b2a" d="m525.5,284.441s-3.846,7.479 -0.13,10.568c0,0 10.781,1.363 10.907,-5.944c0.003,0 -0.765,-6.488 -10.777,-4.624z" id="Caminho_1929"/>
         <g clip-path="url(#clip-path-6)" id="Agrupar_2798">
          <g opacity="0.57" id="Agrupar_2797">
           <rect x="445.779999" y="294.924011" fill="#fff" transform="rotate(138.2429962158203 445.7799987792969,294.9240112304687) " height="51.394" width="4.782" id="Retângulo_1983"/>
           <rect x="436.187012" y="297.928986" fill="#fff" transform="rotate(138.2429962158203 436.18701171875,297.92898559570307) " height="51.394" width="10.666" id="Retângulo_1984"/>
          </g>
         </g>
         <path fill="#d6e3dd" d="m518,272.232c-7.231,-2.523 -37.9,-12.59 -58.1,-9.4a1.141,1.141 0 0 0 -0.922,1.4c1.082,4.544 5.021,20.917 7.268,27.882a3.169,3.169 0 0 0 2.849,2.191l51.916,2.809l3.035,-8.218l-3.92,-14.552a3.47,3.47 0 0 0 -2.126,-2.112z" id="Caminho_1931"/>
         <g clip-path="url(#clip-path-7)" id="Agrupar_2800">
          <g opacity="0.56" id="Agrupar_2799">
           <rect x="-20.746274" y="-14.086112" fill="#fff" transform="matrix(-0.78,0.626,-0.626,-0.78,492.729,305.07) " height="62.431" width="4.294" id="Retângulo_1985"/>
           <rect x="506.768005" y="302.692993" fill="#fff" transform="rotate(141.2570037841797 506.7680053710938,302.6929931640625) " height="62.43" width="16.727" id="Retângulo_1986"/>
          </g>
         </g>
        </g>
       </g>
      </g>
     </g>
     <rect x="32.264" y="380.437988" stroke="#fff" fill="#004c84" stroke-width="1.5" height="14" width="50" id="svg_1"/>
     <rect x="32.264" y="399.437988" stroke="#e5e5e5" fill="#ec0d24" stroke-width="1.5" height="14" width="50" id="svg_2"/>
    </g>
    <g id="svg_6" style="cursor:pointer" onClick="listar(this, 'PINTURA_FRENTE')">
     <path fill="#ec0d24" d="m209.264,92.782c-8.278,0 -14.988,5.815 -14.988,12.988s6.71,12.988 14.988,12.988s14.988,-5.815 14.988,-12.988s-6.714,-12.98 -14.988,-12.988zm7.206,13.987l-6.053,0l0,5.5a1.165,1.165 0 0 1 -2.306,0l0,-5.5l-6.053,0a1.009,1.009 0 1 1 0,-2l6.053,0l0,-5a1.165,1.165 0 0 1 2.306,0l0,5l6.053,0a1.009,1.009 0 1 1 0,2z" id="svg_4"/>
    </g>
    <g id="svg_12" style="cursor:pointer" onClick="listar(this, 'MARTELINHO_FRENTE')">
     <path fill="#004c84" d="m136.764,92.782c-8,0 -14.488,5.815 -14.488,12.988s6.486,12.988 14.488,12.988s14.488,-5.815 14.488,-12.988s-6.49,-12.98 -14.488,-12.988zm6.966,13.987l-5.851,0l0,5.5a1.121,1.121 0 0 1 -2.229,0l0,-5.5l-5.85,0a1.005,1.005 0 1 1 0,-2l5.851,0l0,-5a1.121,1.121 0 0 1 2.229,0l0,5l5.851,0a1.005,1.005 0 1 1 0,2l-0.001,0z" id="svg_10"/>
    </g>
    <g id="svg_14" style="cursor:pointer" onClick="listar(this, 'PINTURA_LATERAL_ESQUERDA')">
     <path fill="#ec0d24" d="m228.264,307.782c-8.278,0 -14.988,5.815 -14.988,12.988s6.71,12.988 14.988,12.988s14.988,-5.815 14.988,-12.988s-6.714,-12.98 -14.988,-12.988zm7.206,13.987l-6.053,0l0,5.5a1.165,1.165 0 0 1 -2.306,0l0,-5.5l-6.053,0a1.009,1.009 0 1 1 0,-2l6.053,0l0,-5a1.165,1.165 0 0 1 2.306,0l0,5l6.053,0a1.009,1.009 0 1 1 0,2z" id="svg_13"/>
    </g>
    <g id="svg_16" style="cursor:pointer" onClick="listar(this, 'MARTELINHO_LATERAL_ESQUERDA')">
     <path fill="#004c84" d="m154.764,307.782c-8,0 -14.488,5.591 -14.488,12.488s6.486,12.488 14.488,12.488s14.488,-5.591 14.488,-12.488s-6.49,-12.48 -14.488,-12.488zm6.966,13.448l-5.851,0l0,5.284a1.127,1.127 0 0 1 -2.229,0l0,-5.284l-5.85,0a0.971,0.971 0 1 1 0,-1.921l5.851,0l0,-4.8a1.127,1.127 0 0 1 2.229,0l0,4.8l5.851,0a0.971,0.971 0 1 1 0,1.921l-0.001,0z" id="svg_15"/>
    </g>
    <g id="svg_18" style="cursor:pointer" onClick="listar(this, 'PINTURA_TRASEIRA')">
     <path fill="#ec0d24" d="m510.264,122.782c-8.278,0 -14.988,5.815 -14.988,12.988s6.71,12.988 14.988,12.988s14.988,-5.815 14.988,-12.988s-6.714,-12.98 -14.988,-12.988zm7.206,13.987l-6.053,0l0,5.5a1.165,1.165 0 0 1 -2.306,0l0,-5.5l-6.053,0a1.009,1.009 0 1 1 0,-2l6.053,0l0,-5a1.165,1.165 0 0 1 2.306,0l0,5l6.053,0a1.009,1.009 0 1 1 0,2z" id="svg_17"/>
    </g>
    <g id="svg_20" style="cursor:pointer" onClick="listar(this, 'MARTELINHO_TRASEIRA')">
     <path fill="#004c84" d="m459.764,122.782c-8,0 -14.488,5.591 -14.488,12.488s6.486,12.488 14.488,12.488s14.488,-5.591 14.488,-12.488s-6.49,-12.48 -14.488,-12.488zm6.966,13.449l-5.851,0l0,5.284a1.127,1.127 0 0 1 -2.229,0l0,-5.285l-5.85,0a0.971,0.971 0 1 1 0,-1.921l5.851,0l0,-4.8a1.127,1.127 0 0 1 2.229,0l0,4.8l5.851,0a0.971,0.971 0 1 1 0,1.921l-0.001,0.001z" id="svg_19"/>
    </g>
    <g id="svg_22" style="cursor:pointer" onClick="listar(this, 'PINTURA_LATERAL_DIREITA')">
     <path fill="#ec0d24" d="m506.264,307.782c-8.278,0 -14.988,5.815 -14.988,12.988s6.71,12.988 14.988,12.988s14.988,-5.815 14.988,-12.988s-6.714,-12.98 -14.988,-12.988zm7.206,13.987l-6.053,0l0,5.5a1.165,1.165 0 0 1 -2.306,0l0,-5.5l-6.053,0a1.009,1.009 0 1 1 0,-2l6.053,0l0,-5a1.165,1.165 0 0 1 2.306,0l0,5l6.053,0a1.009,1.009 0 1 1 0,2z" id="svg_21"/>
    </g>
    <g id="svg_24" style="cursor:pointer" onClick="listar(this, 'MARTELINHO_LATERAL_DIREITA')">
     <path fill="#004c84" d="m431.764,307.782c-8,0 -14.488,5.591 -14.488,12.488s6.486,12.488 14.488,12.488s14.488,-5.591 14.488,-12.488s-6.49,-12.48 -14.488,-12.488zm6.966,13.448l-5.851,0l0,5.284a1.127,1.127 0 0 1 -2.229,0l0,-5.284l-5.85,0a0.971,0.971 0 1 1 0,-1.921l5.851,0l0,-4.8a1.127,1.127 0 0 1 2.229,0l0,4.8l5.851,0a0.971,0.971 0 1 1 0,1.921l-0.001,0z" id="svg_23"/>
    </g>
   </g>
  </g>
  <text font-weight="400" xml:space="preserve" text-anchor="start" font-family="'Poppins', 'sans-serif'" font-size="14" id="svg_8" y="17.5" x="24.764008" stroke-width="0" stroke="#000" fill="#000000">Selecione aqui os itens de martelinho, recuperação e pintura:</text>
  <text font-weight="400" xml:space="preserve" text-anchor="start" font-family="'Poppins', 'sans-serif'" font-size="14" id="svg_9" y="391.5" x="94.764008" fill-opacity="null" stroke-opacity="null" stroke-width="0" stroke="null" fill="#000000">Martelinho de Ouro</text>
  <text font-weight="400" xml:space="preserve" text-anchor="start" font-family="'Poppins', 'sans-serif'" font-size="14" id="svg_11" y="411.5" x="94.764008" fill-opacity="null" stroke-opacity="null" stroke-width="0" stroke="null" fill="#000000">Recuperação e Pintura</text>
 </g>
</svg>
