<svg xmlns="http://www.w3.org/2000/svg" width="46.52" height="18.447" viewBox="0 0 46.52 18.447">
  <g id="automobile" transform="translate(0.001 -154.484)">
    <path id="Caminho_1629" data-name="Caminho 1629" d="M44.507,162.22c-1.511-.93-6.384-2.12-13.222-2.12l-3.612-4.214a4.01,4.01,0,0,0-3.045-1.4H13.816a4.813,4.813,0,0,0-3.132,1.159L6.421,159.3l-4.546.649a1.6,1.6,0,0,0-1.329,1.2L0,163.308l12.031,5.614H45.722v-4.534A2.544,2.544,0,0,0,44.507,162.22Z" transform="translate(-0.006 -0.001)" fill="#b21626"/>
    <path id="Caminho_1630" data-name="Caminho 1630" d="M45.721,237.139c0-1.6-2.406-3.208-13.635-3.208H.806a.8.8,0,0,0-.8.8v4.812l15.239,2.406H45.721v-4.812Z" transform="translate(-0.005 -72.229)" fill="#ee5f6d"/>
    <path id="Caminho_1631" data-name="Caminho 1631" d="M45.717,288.506H8.108L.975,286.921a.8.8,0,1,0-.348,1.566l7.218,1.6a.786.786,0,0,0,.174.019h37.7a.8.8,0,0,0,0-1.6Z" transform="translate(0 -120.387)" fill="#b21626"/>
    <circle id="Elipse_278" data-name="Elipse 278" cx="4.01" cy="4.01" r="4.01" transform="translate(34.487 164.108)" fill="#ededee"/>
    <path id="Caminho_1632" data-name="Caminho 1632" d="M375.572,261.211a4.812,4.812,0,1,1,4.812-4.812A4.818,4.818,0,0,1,375.572,261.211Zm0-8.021a3.208,3.208,0,1,0,3.208,3.208A3.211,3.211,0,0,0,375.572,253.19Z" transform="translate(-337.074 -88.279)" fill="#504b5a"/>
    <circle id="Elipse_279" data-name="Elipse 279" cx="1.604" cy="1.604" r="1.604" transform="translate(36.893 166.515)" fill="#dcdbde"/>
    <circle id="Elipse_280" data-name="Elipse 280" cx="4.01" cy="4.01" r="4.01" transform="translate(4.009 164.108)" fill="#ededee"/>
    <path id="Caminho_1633" data-name="Caminho 1633" d="M40.126,261.211a4.812,4.812,0,1,1,4.812-4.812A4.818,4.818,0,0,1,40.126,261.211Zm0-8.021a3.208,3.208,0,1,0,3.208,3.208A3.212,3.212,0,0,0,40.126,253.19Z" transform="translate(-32.106 -88.279)" fill="#504b5a"/>
    <circle id="Elipse_281" data-name="Elipse 281" cx="1.604" cy="1.604" r="1.604" transform="translate(6.415 166.515)" fill="#dcdbde"/>
    <g id="Agrupar_2761" data-name="Agrupar 2761" transform="translate(14.436 164.911)">
      <path id="Caminho_1634" data-name="Caminho 1634" d="M176.546,270.846H159.7a.8.8,0,0,1-.8-.8h0a.8.8,0,0,1,.8-.8h16.843a.8.8,0,0,1,.8.8h0A.8.8,0,0,1,176.546,270.846Z" transform="translate(-158.901 -269.242)" fill="#b21626"/>
      <path id="Caminho_1635" data-name="Caminho 1635" d="M487.122,270.846h-.8a.8.8,0,0,1-.8-.8h0a.8.8,0,0,1,.8-.8h.8a.8.8,0,0,1,.8.8h0A.8.8,0,0,1,487.122,270.846Z" transform="translate(-455.842 -269.242)" fill="#b21626"/>
    </g>
    <path id="Caminho_1636" data-name="Caminho 1636" d="M70.624,159.3l4.263-3.654a4.813,4.813,0,0,1,3.132-1.159H88.831a4.01,4.01,0,0,1,3.045,1.4l3.612,4.214H76.5a12.834,12.834,0,0,1-2.11-.175Z" transform="translate(-64.208)" fill="#ee5f6d"/>
    <path id="Caminho_1637" data-name="Caminho 1637" d="M136.1,163.889a1.6,1.6,0,0,0-1.232-.577h-7.407a1.6,1.6,0,0,0-1.134.47l-2.406,2.406a1.134,1.134,0,0,0-.332.8h0a1.134,1.134,0,0,0,1.134,1.134H138.77a.4.4,0,0,0,.308-.658Z" transform="translate(-112.357 -8.026)" fill="#625d6b"/>
    <path id="Caminho_1638" data-name="Caminho 1638" d="M161.3,168.124H158.9l1.6-4.812h1.6Z" transform="translate(-144.462 -8.026)" fill="#504b5a"/>
    <path id="Caminho_1639" data-name="Caminho 1639" d="M478.234,242.759h-.743a.8.8,0,0,0,0,1.6h1.568A2.512,2.512,0,0,0,478.234,242.759Z" transform="translate(-433.379 -80.254)" fill="#ededee"/>
    <path id="Caminho_1640" data-name="Caminho 1640" d="M281.008,163.91a4.006,4.006,0,0,0-.639-.6H279.06a.4.4,0,0,0-.308.658l2.981,3.577a1.6,1.6,0,0,0,1.232.577h1.655Z" transform="translate(-253.34 -8.026)" fill="#625d6b"/>
    <path id="Caminho_1641" data-name="Caminho 1641" d="M0,234.734v.8h1.6a.8.8,0,0,0,0-1.6h-.8A.8.8,0,0,0,0,234.734Z" transform="translate(-0.005 -72.229)" fill="#ff6464"/>
  </g>
</svg>
