<svg xmlns="http://www.w3.org/2000/svg" width="23.745" height="24" viewBox="0 0 23.745 24">
  <g id="noun_Traffic_135499" transform="translate(0.001 -0.001)">
    <path id="Caminho_7" data-name="Caminho 7" d="M23.708,16.434l-.216-.631a.971.971,0,0,0-.847-.631h-.735c-.458-1.3-.937-2.46-1.092-2.815-.288-.655-1.21-.794-1.717-.938a15.281,15.281,0,0,0-3.673-.26,15.273,15.273,0,0,0-3.673.26c-.593.2-1.419.331-1.747.967-.131.254-.615,1.444-1.082,2.786H8.2a.972.972,0,0,0-.847.631l-.216.631a.535.535,0,0,0,.415.755h.727a7.478,7.478,0,0,1-.324.828,2.434,2.434,0,0,0-.092.634v4.719a.63.63,0,0,0,.63.63h1.752a.631.631,0,0,0,.631-.63v-.883h9.107v.883a.63.63,0,0,0,.631.63h1.753a.631.631,0,0,0,.631-.63V18.651a2.434,2.434,0,0,0-.093-.634,7.535,7.535,0,0,1-.33-.828h.72C23.642,17.189,23.828,16.782,23.708,16.434Zm-12,3.784H10.87c-.749,0-1.5-.11-1.5-.631v-.631c0-.609.323-.63.672-.63a4.78,4.78,0,0,1,1.456.531c.484.237,1.025.433,1.025.828C12.526,20.05,12.339,20.218,11.708,20.218Zm-1.75-4.372a11.008,11.008,0,0,1,1.03-2.691c.085-.2.167-.822,4.44-.822s4.373.71,4.385.718a15.168,15.168,0,0,1,1.073,2.8,19.5,19.5,0,0,1-5.457.587A19.66,19.66,0,0,1,9.958,15.847Zm11.527,3.74c0,.521-.749.631-1.5.631h-.838c-.631,0-.818-.168-.818-.532,0-.394.54-.592,1.025-.828a4.761,4.761,0,0,1,1.456-.532c.348,0,.672.023.672.631v.629ZM8.213,14.159c.375-1.028.746-1.946.895-2.236a3.023,3.023,0,0,1,2.026-1.372c.1-.03.2-.061.3-.092a15.272,15.272,0,0,1,4-.315h.064l-.021-.059h.72c.348,0,.534-.406.415-.755L16.391,8.7a.971.971,0,0,0-.847-.631h-.735c-.458-1.3-.937-2.46-1.092-2.815-.288-.656-1.21-.794-1.717-.938a15.279,15.279,0,0,0-3.673-.26,15.277,15.277,0,0,0-3.672.26c-.593.2-1.418.331-1.747.967-.13.255-.615,1.444-1.081,2.787H1.1A.971.971,0,0,0,.251,8.7l-.216.63c-.12.348.066.755.415.755h.727a7.458,7.458,0,0,1-.323.828,2.429,2.429,0,0,0-.092.634v4.719a.63.63,0,0,0,.63.631H3.143a.631.631,0,0,0,.631-.631v-.884H6.441A1.963,1.963,0,0,1,8.2,14.159h.013ZM4.606,13.117H3.769c-.749,0-1.5-.11-1.5-.631v-.631c0-.609.322-.631.671-.631a4.787,4.787,0,0,1,1.456.531c.484.236,1.025.433,1.025.828C5.424,12.948,5.237,13.117,4.606,13.117ZM2.858,8.745a10.9,10.9,0,0,1,1.03-2.691c.085-.2.167-.822,4.44-.822s4.374.709,4.384.717a15.187,15.187,0,0,1,1.073,2.8,19.492,19.492,0,0,1-5.457.587A19.654,19.654,0,0,1,2.858,8.745ZM10.989,2c.085-.2.167-.822,4.441-.822s4.373.709,4.384.717a15.159,15.159,0,0,1,1.073,2.8,19.49,19.49,0,0,1-5.457.587c-.216,0-.4-.008-.608-.012.171.415.423,1.045.7,1.795h.022a1.973,1.973,0,0,1,1.806,1.317l.216.63a1.659,1.659,0,0,1-.049,1.2,9.247,9.247,0,0,1,1.88.245l.188.049a2.9,2.9,0,0,1,2.161,1.451c.066.15.2.47.369.892h.249a.631.631,0,0,0,.631-.63V7.492a2.449,2.449,0,0,0-.093-.634,7.523,7.523,0,0,1-.33-.828h.72c.348,0,.534-.406.415-.755l-.217-.63a.971.971,0,0,0-.847-.631h-.735c-.458-1.3-.937-2.46-1.092-2.815C20.529.543,19.607.4,19.1.26A15.29,15.29,0,0,0,15.427,0,15.287,15.287,0,0,0,11.755.26c-.593.2-1.419.331-1.747.967-.1.192-.4.911-.736,1.827.465.01.849.029,1.191.052C10.716,2.483,10.924,2.166,10.989,2Zm10.5,5.8v.631c0,.52-.749.631-1.5.631h-.838c-.631,0-.818-.168-.818-.532,0-.394.542-.592,1.025-.828a4.76,4.76,0,0,1,1.456-.531C21.161,7.167,21.485,7.189,21.485,7.8Z" fill="#005b9e"/>
  </g>
</svg>
