<svg xmlns="http://www.w3.org/2000/svg" width="20" height="24" viewBox="0 0 20 24">
  <g id="Grupo_3" data-name="Grupo 3" transform="translate(-560 -610)">
    <g id="noun_Car_1913715" transform="translate(560 619)">
      <g id="Grupo_1" data-name="Grupo 1">
        <path id="Caminho_2" data-name="Caminho 2" d="M0,6.97A4.065,4.065,0,0,1,1.591,4.792L.383,4.41a.268.268,0,0,1-.177-.354l.206-.572A.3.3,0,0,1,.8,3.321L2.5,3.866C2.769,3.1,3.387.87,5.42.434a57.151,57.151,0,0,1,9.161,0c2,.436,2.651,2.669,2.916,3.432l1.708-.545a.3.3,0,0,1,.383.163l.206.572a.268.268,0,0,1-.177.354l-1.237.381A4.111,4.111,0,0,1,20,6.97V14.3a.98.98,0,0,1-1,.953H17.114a.98.98,0,0,1-1-.953V13.48a31.828,31.828,0,0,0-12.224,0V14.3a.98.98,0,0,1-1,.953H1A.98.98,0,0,1,0,14.3ZM5.8,1.06C4.389,1.169,3.417,3.021,3.24,4.22a40.236,40.236,0,0,0,13.52,0c-.177-1.2-1.178-3.05-2.563-3.159A48.009,48.009,0,0,0,5.8,1.06ZM18.469,7.3a15.659,15.659,0,0,0-4.035,1.362c-.295.136-.265.463-.059.9h3.947a.791.791,0,0,0,.825-.735v-.9A.643.643,0,0,0,18.469,7.3ZM1.5,7.3A15.519,15.519,0,0,1,5.567,8.659c.295.136.265.463.059.9H1.65a.783.783,0,0,1-.8-.735v-.9A.635.635,0,0,1,1.5,7.3Z" transform="translate(0 -0.25)" fill="#005b9e" fill-rule="evenodd"/>
      </g>
    </g>
    <g id="noun_Arrow_2526848" transform="translate(553.769 634)">
      <g id="Grupo_2" data-name="Grupo 2" transform="translate(10 -24)">
        <path id="Caminho_3" data-name="Caminho 3" d="M5.316,25.513l2.922-2.922a1.078,1.078,0,0,1,1.525,1.524L8.681,25.2h8.226a1.078,1.078,0,1,1,0,2.156H8.681l1.082,1.082a1.078,1.078,0,0,1-1.525,1.525L5.316,27.037A1.078,1.078,0,0,1,5.316,25.513Z" transform="translate(-5 -22.275)" fill="#005b9e"/>
      </g>
    </g>
  </g>
</svg>
