<svg id="writing" xmlns="http://www.w3.org/2000/svg" width="27.367" height="30.537" viewBox="0 0 27.367 30.537">
  <g id="Agrupar_573" data-name="Agrupar 573" transform="translate(0 0)">
    <g id="Agrupar_572" data-name="Agrupar 572">
      <path id="Caminho_556" data-name="Caminho 556" d="M121.131,201.193A1.193,1.193,0,0,0,119.938,200H107.652a1.193,1.193,0,1,0,0,2.386h12.286A1.193,1.193,0,0,0,121.131,201.193Z" transform="translate(-101.694 -188.072)" fill="#005b9e"/>
      <path id="Caminho_557" data-name="Caminho 557" d="M107.652,280a1.193,1.193,0,0,0,0,2.386h7.462a1.193,1.193,0,0,0,0-2.386Z" transform="translate(-101.694 -263.3)" fill="#005b9e"/>
      <path id="Caminho_558" data-name="Caminho 558" d="M35.331,28.151H31.341a2.388,2.388,0,0,1-2.386-2.386V4.771a2.388,2.388,0,0,1,2.386-2.386H46.007a2.388,2.388,0,0,1,2.386,2.386v7.336a1.193,1.193,0,0,0,2.386,0V4.771A4.777,4.777,0,0,0,46.007,0H31.341A4.777,4.777,0,0,0,26.57,4.771V25.765a4.777,4.777,0,0,0,4.771,4.771h3.989a1.193,1.193,0,1,0,0-2.386Z" transform="translate(-26.57)" fill="#005b9e"/>
      <path id="Caminho_559" data-name="Caminho 559" d="M256.842,273.071a3.582,3.582,0,0,0-5.06,0l-6.549,6.534a1.193,1.193,0,0,0-.3.5l-1.426,4.7a1.193,1.193,0,0,0,1.46,1.5l4.815-1.334a1.192,1.192,0,0,0,.524-.305l6.535-6.523A3.583,3.583,0,0,0,256.842,273.071Zm-8,9.674-2.422.671.709-2.334,4.419-4.409,1.687,1.687Zm6.313-6.3-.231.231-1.687-1.687.23-.23a1.193,1.193,0,0,1,1.688,1.686Z" transform="translate(-230.521 -255.8)" fill="#005b9e"/>
      <path id="Caminho_560" data-name="Caminho 560" d="M119.938,120H107.652a1.193,1.193,0,1,0,0,2.386h12.286a1.193,1.193,0,1,0,0-2.386Z" transform="translate(-101.694 -112.843)" fill="#005b9e"/>
    </g>
  </g>
</svg>
