<svg id="xml" xmlns="http://www.w3.org/2000/svg" width="28.307" height="30.806" viewBox="0 0 28.307 30.806">
  <path id="XMLID_1014_" d="M42.905,10.685H38.558V6.66L31.453,0H14.6V30.805h23.96V26.321H42.9V10.685ZM40.338,23.754H22.368v-10.5h17.97v10.5Z" transform="translate(-14.598)" fill="#008548"/>
  <path id="XMLID_1017_" d="M118.591,186.638h1.13l1.273-1.913,1.265,1.913h1.122L121.536,184l1.905-2.711h-1.122l-1.325,1.988-1.333-1.988h-1.13L120.436,184Z" transform="translate(-109.637 -165.779)" fill="#008548"/>
  <path id="XMLID_1018_" d="M183.194,183.1l1.378,2.636h.565l1.378-2.636v3.539h1.039v-5.346h-1.107l-1.6,3.042-1.581-3.042h-1.114v5.346h1.039Z" transform="translate(-167.817 -165.779)" fill="#008548"/>
  <path id="XMLID_1019_" d="M262.039,185.727h-2.726v-4.435h-1.039v5.346h3.765Z" transform="translate(-237.423 -165.779)" fill="#008548"/>
</svg>
